<svg width="252" height="98" viewBox="0 0 252 98" fill="none" xmlns="http://www.w3.org/2000/svg">
    <path
        d="M67.7444 59.3635L0.108032 86.4544V63.5453L43.1989 48.6362L42.4717 49.7271V47.1817L43.1989 48.2726L0.108032 33.3635V10.4544L67.7444 37.5453V59.3635Z"
        fill="#F1F4FA"/>
    <path
        d="M121.767 96.2726C114.616 96.2726 108.267 95.015 102.722 92.4999C97.2065 89.9544 92.858 86.4544 89.6762 81.9999C86.5247 77.5453 84.9186 72.4241 84.858 66.6362H109.403C109.494 69.8484 110.737 72.409 113.131 74.3181C115.555 76.2271 118.434 77.1817 121.767 77.1817C124.343 77.1817 126.616 76.6362 128.585 75.5453C130.555 74.4241 132.1 72.8484 133.222 70.8181C134.343 68.7878 134.888 66.4241 134.858 63.7271C134.888 60.9999 134.343 58.6362 133.222 56.6362C132.1 54.6059 130.555 53.0453 128.585 51.9544C126.616 50.8332 124.343 50.2726 121.767 50.2726C119.1 50.2726 116.631 50.9241 114.358 52.2271C112.116 53.4999 110.464 55.2726 109.403 57.5453L87.2217 53.1817L90.858 1.90896H153.403V22.0908H111.585L109.767 42.6362H110.313C111.767 39.818 114.282 37.4847 117.858 35.6362C121.434 33.7574 125.585 32.8181 130.313 32.8181C135.858 32.8181 140.797 34.1059 145.131 36.6817C149.494 39.2574 152.934 42.8181 155.449 47.3635C157.994 51.8787 159.252 57.0908 159.222 62.9999C159.252 69.4847 157.707 75.2423 154.585 80.2726C151.494 85.2726 147.146 89.1968 141.54 92.0453C135.934 94.8635 129.343 96.2726 121.767 96.2726Z"
        fill="#F1F4FA"/>
    <path
        d="M210.665 97.5453C202.21 97.515 194.907 95.5605 188.756 91.6817C182.604 87.8029 177.862 82.212 174.528 74.909C171.195 67.6059 169.544 58.8484 169.574 48.6362C169.604 38.3938 171.271 29.6968 174.574 22.5453C177.907 15.3938 182.635 9.95441 188.756 6.22714C194.907 2.49987 202.21 0.63623 210.665 0.63623C219.119 0.63623 226.422 2.51502 232.574 6.2726C238.725 9.99987 243.468 15.4393 246.801 22.5908C250.135 29.7423 251.786 38.4241 251.756 48.6362C251.756 58.909 250.089 67.6968 246.756 74.9999C243.422 82.3029 238.68 87.8938 232.528 91.7726C226.407 95.6211 219.119 97.5453 210.665 97.5453ZM210.665 76.9999C215.028 76.9999 218.604 74.7271 221.392 70.1817C224.21 65.6059 225.604 58.4241 225.574 48.6362C225.574 42.2423 224.938 37.015 223.665 32.9544C222.392 28.8938 220.635 25.8938 218.392 23.9544C216.15 21.9847 213.574 20.9999 210.665 20.9999C206.301 20.9999 202.741 23.212 199.983 27.6362C197.225 32.0605 195.816 39.0605 195.756 48.6362C195.725 55.1514 196.347 60.515 197.619 64.7271C198.892 68.909 200.65 71.9999 202.892 73.9999C205.165 75.9999 207.756 76.9999 210.665 76.9999Z"
        fill="#F1F4FA"/>
</svg>
