<svg width="22" height="22" viewBox="0 0 22 22" xmlns="http://www.w3.org/2000/svg">
    <path opacity="0.5"
          d="M11.0001 21.5C16.7991 21.5 21.5001 16.799 21.5001 11C21.5001 5.20101 16.7991 0.5 11.0001 0.5C5.20113 0.5 0.500122 5.20101 0.500122 11C0.500122 16.799 5.20113 21.5 11.0001 21.5Z"
          fill="none"
          stroke="currentColor"/>
    <path
        d="M13.2472 7.7615C13.2472 9.01245 12.2378 10.023 10.9972 10.023C9.75651 10.023 8.74719 9.01245 8.74719 7.7615C8.74719 6.51054 9.75651 5.5 10.9972 5.5C12.2378 5.5 13.2472 6.51054 13.2472 7.7615Z"
        fill="none"
        stroke="currentColor"/>
    <path d="M5.50012 16.5V13.6271C8.63013 10.8286 13.3701 10.8286 16.5001 13.6271V16.5H5.50012Z" fill="none"
          stroke="currentColor"/>
</svg>
