<svg width="21" height="33" viewBox="0 0 21 33" fill="none" xmlns="http://www.w3.org/2000/svg">
<g clip-path="url(#clip0_377_45)">
<path d="M16.7379 13.2118H15.5743L15.4173 13.1844C14.4105 13.0015 13.607 12.2243 13.413 11.2276V11.3648C13.413 8.73135 11.261 6.60084 8.60101 6.60084H8.90581L8.74878 6.57342C7.74204 6.39053 6.93848 5.61331 6.74454 4.61665V3.29995C6.74454 1.48033 5.24828 -0.000976086 3.41028 -0.000976086C1.57228 -0.000976086 0.0760104 1.48033 0.0760104 3.29995C0.0760104 5.11957 1.57228 6.60084 3.41028 6.60084H4.57404L4.73104 6.6283C5.73778 6.81115 6.54134 7.5884 6.73531 8.58506V8.44791C6.73531 11.0722 8.88731 13.2027 11.5381 13.2027H11.2333L11.3903 13.2301C12.3971 13.413 13.2006 14.1902 13.3946 15.1869V17.6648L13.3669 17.8203C13.1821 18.817 12.3971 19.6125 11.3903 19.8045H11.5289C8.87808 19.8045 6.71681 21.935 6.71681 24.5593V24.2576L6.68911 24.413C6.50438 25.4097 5.71931 26.2052 4.71258 26.3972H3.38258C1.54458 26.3972 0.0483093 27.8785 0.0483093 29.6981C0.0483093 31.5177 1.54458 32.999 3.38258 32.999C5.22058 32.999 6.71681 31.5177 6.71681 29.6981V28.546L6.74454 28.3905C6.92924 27.3939 7.71434 26.5983 8.72108 26.4063H8.58254C11.2425 26.4063 13.3946 24.2758 13.3946 21.6424V21.9442L13.4223 21.7887C13.607 20.792 14.3921 19.9965 15.3988 19.8045H16.7289C18.5759 19.8045 20.0632 18.3232 20.0632 16.5036C20.0632 14.684 18.5669 13.2027 16.7289 13.2027L16.7379 13.2118Z" fill="url(#paint0_linear_377_45)"/>
</g>
<defs>
<linearGradient id="paint0_linear_377_45" x1="20.0632" y1="16.499" x2="0.0483093" y2="16.499" gradientUnits="userSpaceOnUse">
<stop stop-color="#214772"/>
<stop offset="1" stop-color="#3098A6"/>
</linearGradient>
<clipPath id="clip0_377_45">
<rect width="33" height="21" fill="white" transform="matrix(0 1 -1 0 21 -0.000976562)"/>
</clipPath>
</defs>
</svg>
