<svg width="10" height="6" viewBox="0 0 10 6" xmlns="http://www.w3.org/2000/svg">
    <path
        d="M4.00388 0.99312V1.3422L3.99557 1.3893C3.94015 1.69133 3.70463 1.93239 3.4026 1.99058H3.44417C2.64616 1.99058 2.00055 2.63619 2.00055 3.43419V3.34275L1.99224 3.38986C1.93682 3.69188 1.7013 3.93295 1.39928 3.99113L1.00028 3.99113C0.44888 3.99113 0 4.44001 0 4.99141C0 5.54281 0.44888 5.99169 1.00028 5.99169C1.55168 5.99169 2.00055 5.54281 2.00055 4.99141V4.64228L2.00887 4.59518C2.06428 4.29316 2.29981 4.05209 2.60183 3.9939H2.56027C3.3555 3.9939 4.00111 3.3483 4.00111 2.55306V2.6445L4.00942 2.5974C4.06484 2.29537 4.30036 2.05431 4.60238 1.99612H5.35328L5.40039 2.00443C5.70241 2.05985 5.94347 2.29537 6.00166 2.5974V2.55583C6.00166 3.35107 6.64727 3.99945 7.4425 3.99945H7.35107L7.39817 4.00776C7.70019 4.06318 7.94126 4.2987 7.99945 4.60072V4.99972C7.99945 5.55112 8.44832 6 8.99972 6C9.55112 6 10 5.55112 10 4.99972C10 4.44832 9.55112 3.99945 8.99972 3.99945L8.6506 3.99945L8.60349 3.99113C8.30147 3.93572 8.0604 3.70019 8.00222 3.39817V3.43973C8.00222 2.64173 7.35661 1.99612 6.5586 1.99612H6.65004L6.60294 1.98781C6.30091 1.93239 6.05985 1.69687 6.00166 1.39485V0.99582C6.00166 0.44172 5.55278 -0.00447989 5.00139 -0.00447989C4.44999 -0.00447989 4.00111 0.44442 4.00111 0.99582L4.00388 0.99312Z"
        fill="var(--icon-color, url(#paint0_linear_632_4))"/>
    <defs>
        <linearGradient id="paint0_linear_632_4" x1="5" y1="-0.00447989" x2="5" y2="6" gradientUnits="userSpaceOnUse">
            <stop stop-color="#214772"/>
            <stop offset="1" stop-color="#3098A6"/>
        </linearGradient>
    </defs>
</svg>
