<svg width="10" height="6" viewBox="0 0 10 6" xmlns="http://www.w3.org/2000/svg">
    <path
        d="M5.99612 5.00688V4.6578L6.00443 4.6107C6.05985 4.30867 6.29537 4.06761 6.5974 4.00942H6.55583C7.35384 4.00942 7.99945 3.36381 7.99945 2.56581V2.65725L8.00776 2.61014C8.06318 2.30812 8.2987 2.06705 8.60072 2.00887H8.99972C9.55112 2.00887 10 1.55999 10 1.00859C10 0.45719 9.55112 0.00831032 8.99972 0.00831032C8.44832 0.00831032 7.99945 0.45719 7.99945 1.00859V1.35772L7.99113 1.40482C7.93572 1.70684 7.70019 1.94791 7.39817 2.0061H7.43973C6.6445 2.0061 5.99889 2.6517 5.99889 3.44694V3.3555L5.99058 3.4026C5.93516 3.70463 5.69964 3.94569 5.39762 4.00388H4.64672L4.59961 3.99557C4.29759 3.94015 4.05653 3.70463 3.99834 3.4026V3.44417C3.99834 2.64893 3.35273 2.00055 2.5575 2.00055H2.64893L2.60183 1.99224C2.29981 1.93682 2.05874 1.7013 2.00055 1.39928V1.00028C2.00055 0.44888 1.55168 0 1.00028 0C0.448878 0 2.41024e-08 0.44888 0 1.00028C-2.41024e-08 1.55168 0.448878 2.00055 1.00028 2.00055H1.3494L1.39651 2.00887C1.69853 2.06428 1.9396 2.29981 1.99778 2.60183V2.56027C1.99778 3.35827 2.64339 4.00388 3.4414 4.00388H3.34996L3.39706 4.01219C3.69909 4.06761 3.94015 4.30313 3.99834 4.60515V5.00418C3.99834 5.55828 4.44722 6.00448 4.99861 6.00448C5.55001 6.00448 5.99889 5.55558 5.99889 5.00418L5.99612 5.00688Z"
        fill="var(--icon-color, url(#paint0_linear_632_4))"/>
    <defs>
        <linearGradient id="paint0_linear_632_4" x1="5" y1="6.00448" x2="5" y2="0" gradientUnits="userSpaceOnUse">
            <stop stop-color="#214772"/>
            <stop offset="1" stop-color="#3098A6"/>
        </linearGradient>
    </defs>
</svg>
