<svg width="21" height="33" viewBox="0 0 21 33" fill="none" xmlns="http://www.w3.org/2000/svg">
    <g clip-path="url(#clip0_377_45)">
        <path
            d="M4.26206 19.7862H5.42566L5.58266 19.8136C6.58943 19.9965 7.39296 20.7737 7.58693 21.7704V21.6333C7.58693 24.2667 9.73896 26.3972 12.399 26.3972H12.0942L12.2512 26.4246C13.2579 26.6075 14.0615 27.3847 14.2554 28.3814V29.6981C14.2554 31.5177 15.7517 32.999 17.5897 32.999C19.4277 32.999 20.924 31.5177 20.924 29.6981C20.924 27.8785 19.4277 26.3972 17.5897 26.3972H16.4259L16.2689 26.3698C15.2622 26.1869 14.4586 25.4097 14.2647 24.413V24.5501C14.2647 21.9259 12.1127 19.7954 9.46186 19.7954H9.76666L9.60966 19.7679C8.60289 19.5851 7.79936 18.8078 7.60539 17.8112V15.3332L7.63309 15.1777C7.81783 14.1811 8.60289 13.3856 9.60966 13.1935H9.47109C12.1219 13.1935 14.2832 11.063 14.2832 8.43877V8.74049L14.3109 8.58506C14.4956 7.5884 15.2807 6.79287 16.2874 6.60084H17.6174C19.4554 6.60084 20.9517 5.11957 20.9517 3.29995C20.9517 1.48032 19.4554 -0.000976483 17.6174 -0.000976562C15.7794 -0.000976642 14.2832 1.48032 14.2832 3.29995V4.45204L14.2554 4.60751C14.0707 5.60417 13.2856 6.3997 12.2789 6.5917H12.4174C9.75743 6.5917 7.60539 8.72221 7.60539 11.3556V11.0539L7.57769 11.2093C7.39296 12.206 6.60789 13.0015 5.60116 13.1935H4.27106C2.42406 13.1935 0.936728 14.6748 0.936728 16.4944C0.936728 18.3141 2.43306 19.7954 4.27106 19.7954L4.26206 19.7862Z"
            fill="url(#paint0_linear_377_45)"/>
    </g>
    <defs>
        <linearGradient id="paint0_linear_377_45" x1="0.936728" y1="16.499" x2="20.9517" y2="16.499"
                        gradientUnits="userSpaceOnUse">
            <stop stop-color="#214772"/>
            <stop offset="1" stop-color="#3098A6"/>
        </linearGradient>
        <clipPath id="clip0_377_45">
            <rect width="33" height="21" fill="white" transform="matrix(0 -1 1 0 -1.52588e-05 32.999)"/>
        </clipPath>
    </defs>
</svg>
