<svg width="10" height="12" viewBox="0 0 10 12" xmlns="http://www.w3.org/2000/svg">
    <path
        d="M4.55822 5.67955L4.27559 5.96218C3.8849 6.35287 3.8849 6.98739 4.27559 7.37808C4.66628 7.76877 5.30081 7.76877 5.6915 7.37808C6.08219 6.98739 6.08219 6.35287 5.6915 5.96218L5.44489 5.71557L5.41718 5.67401C5.24262 5.42186 5.23985 5.08659 5.40887 4.8289L5.38116 4.85661C5.92979 4.30798 5.94087 3.42685 5.42272 2.8616L5.43935 2.87822L5.41164 2.83666C5.23708 2.58451 5.23985 2.24924 5.41164 1.99155L5.69427 1.70892C6.08496 1.31823 6.08496 0.683707 5.69427 0.293017C5.30358 -0.0976724 4.66905 -0.0976724 4.27836 0.293017C3.88767 0.683707 3.88767 1.31823 4.27836 1.70892L4.52497 1.95553L4.55268 1.99709C4.72724 2.24924 4.73555 2.58451 4.56376 2.8422L4.57761 2.82835C4.02622 3.3936 4.02899 4.2969 4.5887 4.85661L4.52497 4.79288L4.55268 4.83444C4.72724 5.08659 4.73001 5.42186 4.56099 5.67955H4.55822Z"
        fill="url(#paint0_linear_180_142)"/>
    <path
        d="M5.9961 10.0879V9.73879L6.00441 9.69169C6.05983 9.38966 6.29535 9.1486 6.59738 9.09041H6.55581C7.35382 9.09041 7.99943 8.4448 7.99943 7.6468V7.73824L8.00774 7.69113C8.06316 7.38911 8.29869 7.14804 8.60071 7.08986H8.9997C9.5511 7.08986 9.99998 6.64098 9.99998 6.08958C9.99998 5.53818 9.5511 5.0893 8.9997 5.0893C8.4483 5.0893 7.99943 5.53818 7.99943 6.08958V6.43871L7.99111 6.48581C7.9357 6.78783 7.70017 7.0289 7.39815 7.08709H7.43971C6.64448 7.08709 5.99887 7.73269 5.99887 8.52793V8.43649L5.99056 8.48359C5.93514 8.78562 5.69963 9.02668 5.3976 9.08487H4.6467L4.59959 9.07656C4.29757 9.02114 4.05651 8.78562 3.99832 8.48359V8.52516C3.99832 7.72992 3.35271 7.08154 2.55748 7.08154H2.64891L2.60181 7.07323C2.29979 7.01781 2.05872 6.78229 2.00053 6.48027V6.08127C2.00053 5.52987 1.55166 5.08099 1.00026 5.08099C0.448863 5.08099 -1.52347e-05 5.52987 -1.52588e-05 6.08127C-1.52829e-05 6.63267 0.448863 7.08154 1.00026 7.08154H1.34938L1.39649 7.08986C1.69851 7.14527 1.93958 7.3808 1.99776 7.68282V7.64126C1.99776 8.43926 2.64337 9.08487 3.44138 9.08487H3.34994L3.39704 9.09318C3.69907 9.1486 3.94013 9.38412 3.99832 9.68614V10.0852C3.99832 10.6393 4.4472 11.0855 4.99859 11.0855C5.54999 11.0855 5.99887 10.6366 5.99887 10.0852L5.9961 10.0879Z"
        fill="url(#paint1_linear_180_142)"/>
    <defs>
        <linearGradient id="paint0_linear_180_142" x1="4.98493" y1="7.6711" x2="4.98493" y2="0"
                        gradientUnits="userSpaceOnUse">
            <stop stop-color="#214772"/>
            <stop offset="1" stop-color="#3098A6"/>
        </linearGradient>
        <linearGradient id="paint1_linear_180_142" x1="4.99998" y1="11.0855" x2="4.99998" y2="5.08099"
                        gradientUnits="userSpaceOnUse">
            <stop stop-color="#214772"/>
            <stop offset="1" stop-color="#3098A6"/>
        </linearGradient>
    </defs>
</svg>
