<svg width="136" height="145" viewBox="0 0 136 145" fill="none" xmlns="http://www.w3.org/2000/svg">
    <g clip-path="url(#clip0_258_346)">
        <path
            d="M73.4212 131.182C74.5189 131.239 75.1612 131.3 75.8035 131.3C80.2064 131.308 84.6092 131.308 89.012 131.3C90.5813 131.3 91.7481 131.934 91.7806 133.591C91.809 135.293 90.6057 135.882 89.0486 135.882C82.2757 135.882 75.5027 135.902 68.7297 135.865C66.2864 135.853 65.5099 134.826 65.9734 132.316C67.7866 122.572 70.7746 113.177 74.4985 104.014C84.0807 80.4445 98.0047 59.9008 117.429 43.2969C121.791 39.5683 126.503 36.2337 131.146 32.8382C133.967 30.7749 135.581 31.6604 135.825 35.2265C136.659 47.4154 134.545 59.0844 129.394 70.1564C128.825 71.379 127.621 72.5365 126.418 73.1905C122.861 75.1157 119.157 76.7769 115.478 78.9742C116.994 79.3154 118.572 79.4982 120.007 80.0546C121.027 80.4486 122.438 81.2325 122.6 82.0529C122.759 82.849 121.771 84.2543 120.909 84.8189C114.913 88.7424 108.245 91.1875 100.964 93.328C101.985 93.8479 102.676 94.2703 103.424 94.5627C104.619 95.0258 105.688 95.5538 105.672 97.0688C105.66 98.5959 104.562 99.1077 103.351 99.5017C95.6305 102.004 87.9184 104.534 80.186 106.995C77.2224 107.938 76.0231 110.33 77.2427 113.165C78.3119 115.651 79.3161 118.165 80.491 120.598C81.1943 122.056 80.9178 123.153 79.8689 124.257C77.7915 126.442 75.7588 128.66 73.4171 131.178L73.4212 131.182ZM131.243 38.2442C108.034 54.7629 91.5692 76.1392 80.121 102.337C85.9996 100.456 91.2927 98.7625 97.1266 96.8982C95.4557 96.1386 94.3255 95.5619 93.1466 95.107C91.8985 94.6277 90.9512 93.9413 91.1057 92.4669C91.2602 90.9763 92.427 90.6067 93.671 90.2899C97.403 89.3395 101.168 88.4744 104.831 87.3087C107.851 86.3461 110.75 85.0017 113.705 83.8238C111.827 82.914 110.128 82.4753 108.404 82.1423C107.079 81.8864 105.798 81.6021 105.611 79.9937C105.428 78.4056 106.591 77.776 107.798 77.1993C112.982 74.7136 118.189 72.2685 123.308 69.6569C124.34 69.1288 125.336 68.0728 125.824 67.0168C128.93 60.2501 130.544 53.0732 131.207 45.6851C131.414 43.37 131.239 41.0224 131.239 38.2442H131.243ZM74.2018 118.153C73.4781 120.748 72.8724 122.917 72.2666 125.09C76.5394 121.203 76.4499 122.239 74.2018 118.153Z"
            fill="currentColor"/>
        <path
            d="M13.737 79.0108C13.737 77.7639 13.737 77.0897 13.737 76.4154C13.737 53.7394 13.737 31.0593 13.737 8.38321C13.737 2.42887 16.1437 0.0325133 22.1239 0.0325133C42.0444 0.0325133 61.9608 0.056883 81.8773 2.02987e-05C83.9343 -0.00404133 85.4386 0.601141 86.8899 2.07145C94.9272 10.215 103.009 18.3139 111.181 26.3234C112.827 27.9399 113.612 29.5971 113.417 31.8675C113.274 33.48 113.156 35.1534 113.433 36.7293C114.096 40.5025 111.978 42.5699 108.904 44.5317V31.7213C107.896 31.7213 107.168 31.7213 106.444 31.7213C100.485 31.7213 94.5207 31.7497 88.5608 31.7091C84.3734 31.6807 81.7106 29.0488 81.6821 24.849C81.6333 18.2205 81.6699 11.5878 81.6699 4.71963C80.8609 4.67089 80.1495 4.58966 79.438 4.58966C60.2656 4.58559 41.0972 4.58559 21.9247 4.58966C18.8066 4.58966 18.2496 5.1461 18.2496 8.24918C18.2496 29.3006 18.2252 50.356 18.2821 71.4074C18.2862 73.4098 18.0829 75.071 16.2819 76.3058C15.4323 76.8906 14.8265 77.8289 13.7451 79.0027L13.737 79.0108ZM86.1541 8.06234C86.1541 13.6958 86.1378 18.9556 86.1622 24.2114C86.1703 26.5712 86.8167 27.1967 89.1991 27.2048C94.0044 27.221 98.8097 27.2129 103.615 27.2048C104.091 27.2048 104.566 27.0951 105.026 27.0383C98.7609 20.7427 92.6181 14.565 86.1541 8.06641V8.06234Z"
            fill="currentColor"/>
        <path
            d="M20.7214 108.575C18.5382 108.783 16.534 108.71 14.672 109.193C9.22847 110.606 5.05329 115.736 4.79311 121.532C4.54918 126.938 4.67928 132.36 4.66301 137.779C4.65895 139.801 5.8867 140.451 7.71207 140.447C14.0826 140.435 20.449 140.443 26.8195 140.443C35.5601 140.443 44.3007 140.447 53.0413 140.443C56.1432 140.443 56.7449 139.838 56.749 136.775C56.7571 132.239 56.7978 127.702 56.7368 123.165C56.6514 116.581 52.8625 111.041 47.0815 109.327C45.1341 108.75 42.9998 108.787 40.8167 108.531C42.4144 107.195 43.8982 105.866 45.4959 104.684C45.874 104.404 46.6546 104.506 47.2034 104.636C55.318 106.581 61.0868 113.892 61.2819 122.621C61.3958 127.698 61.347 132.779 61.2941 137.856C61.2494 142.088 58.3386 144.976 54.0618 144.984C38.475 145.016 22.8923 145.016 7.30553 144.984C3.01653 144.976 0.142284 142.157 0.0772373 137.864C-0.00407084 132.787 -0.0650519 127.702 0.0975643 122.629C0.386208 113.782 5.85418 106.756 13.9565 104.733C14.7493 104.534 15.8673 104.9 16.6031 105.367C18.0097 106.26 19.2538 107.414 20.7173 108.584L20.7214 108.575Z"
            fill="currentColor"/>
        <path
            d="M110.416 94.9975C111.181 94.6969 112.112 94.3314 113.266 93.8765C113.311 94.705 113.376 95.3386 113.38 95.9723C113.384 109.709 113.388 123.445 113.38 137.182C113.38 142.226 110.64 144.98 105.603 144.984C92.3294 144.996 79.0559 144.984 65.7823 144.984C65.1847 144.984 64.5871 144.984 63.7943 144.984C64.3716 143.583 64.7294 142.271 65.4368 141.178C65.7498 140.695 66.7662 140.463 67.4613 140.463C79.8527 140.423 92.2481 140.435 104.639 140.435C108.404 140.435 108.859 139.984 108.859 136.251C108.859 125.358 108.831 114.461 108.896 103.568C108.904 102.276 109.465 100.996 109.697 99.7008C109.957 98.2549 110.14 96.7927 110.408 94.9934L110.416 94.9975Z"
            fill="currentColor"/>
        <path
            d="M14.8712 90.5701C14.8916 81.7605 21.9288 74.7704 30.7751 74.7664C39.3856 74.7664 46.5245 81.9026 46.5651 90.5498C46.6058 99.2904 39.471 106.435 30.6979 106.443C21.8759 106.447 14.855 99.4042 14.8753 90.5701H14.8712ZM41.9631 90.6757C41.9916 84.4005 36.9098 79.2707 30.645 79.2585C24.5144 79.2463 19.4408 84.3477 19.4164 90.5458C19.392 96.8575 24.4575 101.967 30.7182 101.943C36.9017 101.918 41.9346 96.8738 41.959 90.6757H41.9631Z"
            fill="currentColor"/>
        <path
            d="M63.3756 46.473C53.8219 46.473 44.2682 46.473 34.7145 46.473C33.9705 46.473 33.0924 46.6558 32.5151 46.3309C31.7955 45.9247 30.9215 45.1124 30.8605 44.4138C30.7995 43.703 31.5028 42.7282 32.1452 42.2205C32.6371 41.8306 33.564 41.9199 34.2958 41.9199C53.8097 41.9077 73.3236 41.9077 92.8376 41.9199C93.5043 41.9199 94.3906 41.8103 94.793 42.1718C95.4557 42.7729 96.1956 43.7274 96.1753 44.5153C96.155 45.1611 95.1793 45.9653 94.4434 46.3512C93.8499 46.6639 92.9839 46.4771 92.24 46.4771C82.6172 46.4811 72.9984 46.4771 63.3756 46.4771V46.473Z"
            fill="currentColor"/>
        <path
            d="M63.587 51.0344C73.1407 51.0344 82.6944 51.0344 92.2481 51.0344C92.9921 51.0344 93.858 50.8435 94.4516 51.1522C95.1874 51.5381 96.1021 52.3057 96.1875 53.0003C96.2729 53.707 95.5858 54.6777 94.9719 55.2463C94.5695 55.62 93.6995 55.5753 93.0368 55.5753C73.3887 55.5916 53.7365 55.5916 34.0884 55.5753C33.3607 55.5753 32.4135 55.6038 31.9663 55.1895C31.3646 54.633 30.8117 53.6258 30.8808 52.8744C30.9377 52.2407 31.824 51.4975 32.5192 51.1603C33.129 50.8639 33.9787 51.0344 34.7226 51.0344C44.3454 51.0304 53.9642 51.0344 63.587 51.0344Z"
            fill="currentColor"/>
        <path
            d="M94.8215 60.1041C93.6466 61.6515 92.8782 62.8538 91.9066 63.8611C91.4716 64.3119 90.626 64.5637 89.9633 64.5678C71.2625 64.6043 52.5576 64.5962 33.8567 64.5962C33.5193 64.5962 33.1737 64.6165 32.8403 64.5678C31.5272 64.3728 30.7182 63.6661 30.7548 62.277C30.7914 60.888 31.6004 60.1569 32.9542 60.1325C35.3243 60.0878 37.6985 60.1081 40.0686 60.1081C57.3507 60.1081 74.6286 60.1081 91.9107 60.1081H94.8215V60.1041Z"
            fill="currentColor"/>
        <path
            d="M88.1298 69.0882C87.0322 70.725 86.3655 71.907 85.4955 72.9183C85.1377 73.3367 84.349 73.5804 83.7555 73.5804C70.2177 73.6007 56.6799 73.5804 43.1421 73.5438C42.5485 73.5438 41.9225 73.4666 41.3696 73.2636C38.101 72.0816 34.8527 70.8509 31.5923 69.6365C32.0638 69.5025 32.8322 69.0923 33.6006 69.0923C50.1955 69.0638 66.7946 69.0801 83.3896 69.0882C84.784 69.0882 86.1785 69.0882 88.1298 69.0882Z"
            fill="currentColor"/>
        <path
            d="M46.9636 78.2309H81.796C80.991 81.8457 79.9625 82.7271 76.637 82.7271C68.5753 82.7271 60.5095 82.654 52.4478 82.7758C50.3826 82.8083 48.9434 82.4346 48.236 80.3389C48.0124 79.6687 47.5002 79.1001 46.9636 78.2268V78.2309Z"
            fill="currentColor"/>
        <path
            d="M77.0842 87.4265C76.4621 88.7222 75.9946 89.9082 75.336 90.9804C75.084 91.3907 74.4051 91.7684 73.9213 91.7725C66.5588 91.8131 59.1964 91.7928 51.8339 91.7725C51.6469 91.7725 51.4558 91.6628 51.2119 91.5897C51.0981 90.2534 50.9842 88.9253 50.8542 87.4265H77.0882H77.0842Z"
            fill="currentColor"/>
        <path
            d="M33.2306 124.956C32.4338 125.557 31.7061 126.487 30.8198 126.686C29.4173 127.003 28.5025 126.016 28.466 124.623C28.4253 123.226 29.3319 122.202 30.706 122.397C31.6004 122.527 32.3769 123.461 33.2103 124.038L33.2347 124.956H33.2306Z"
            fill="currentColor"/>
        <path
            d="M33.2062 116.057C32.3728 116.634 31.5882 117.584 30.6979 117.702C29.34 117.881 28.4172 116.861 28.466 115.456C28.5147 114.063 29.4254 113.076 30.832 113.397C31.7183 113.6 32.4419 114.534 33.2387 115.139L33.2103 116.057H33.2062Z"
            fill="currentColor"/>
    </g>
    <defs>
        <clipPath id="clip0_258_346">
            <rect width="136" height="145" fill="white"/>
        </clipPath>
    </defs>
</svg>
