<svg width="10" height="10" viewBox="0 0 10 10" xmlns="http://www.w3.org/2000/svg">
    <path
        d="M5.25878 5.05124H5.71452C6.3445 5.05124 6.85608 4.53966 6.85608 3.90968C6.85608 3.27971 6.3445 2.76813 5.71452 2.76813C5.08453 2.76813 4.57295 3.27971 4.57295 3.90968V4.30732L4.56178 4.36319C4.49922 4.70722 4.23115 4.97976 3.88712 5.05124H3.93179C3.04715 5.05124 2.32779 5.75272 2.28982 6.62621V6.5994L2.27865 6.65525C2.2161 6.99927 1.94356 7.26735 1.59729 7.33661H1.14155C0.511581 7.33661 0 7.84819 0 8.47817C0 9.10816 0.511581 9.61974 1.14155 9.61974C1.77154 9.61974 2.28312 9.10816 2.28312 8.47817V8.08053L2.29429 8.02468C2.35685 7.68063 2.62045 7.40362 2.96672 7.33438H2.94438C3.84467 7.32321 4.57072 6.59269 4.57072 5.69017V5.79292L4.58189 5.73708C4.64443 5.39305 4.91251 5.1205 5.25655 5.04902L5.25878 5.05124Z"
        fill="currentColor"/>
    <path
        d="M7.65405 0.337896L7.37256 0.619382L7.32789 0.650645C7.0397 0.849477 6.65545 0.853948 6.36504 0.65736L6.39855 0.690868C5.75516 0.0474855 4.71414 0.0474855 4.07074 0.690868L4.14447 0.617139L4.09979 0.648418C3.81161 0.84725 3.42735 0.851704 3.13694 0.655116L2.81525 0.333425C2.37069 -0.111142 1.64688 -0.111142 1.20231 0.333425C0.757759 0.777992 0.757759 1.5018 1.20231 1.94637C1.64688 2.39092 2.37069 2.39092 2.81525 1.94637L3.09672 1.66488L3.14141 1.6336C3.4296 1.43479 3.81383 1.43032 4.10426 1.6269L4.07074 1.5934C4.71189 2.23455 5.75294 2.23455 6.39407 1.5934L6.32036 1.66711L6.36504 1.63585C6.65322 1.43701 7.03747 1.43254 7.32789 1.62913L7.93329 2.23455L7.96457 2.27923C8.1634 2.56741 8.16786 2.95165 7.97127 3.24207L8.00477 3.20857C7.36364 3.84971 7.36139 4.89298 8.00255 5.53413L7.92882 5.4604L7.9601 5.5051C8.15893 5.79328 8.1634 6.17752 7.9668 6.46794L7.6451 6.78963C7.20055 7.23418 7.20055 7.95799 7.6451 8.40256C8.08967 8.84713 8.81348 8.84713 9.25805 8.40256C9.70261 7.95799 9.7026 7.23418 9.25805 6.78963L8.97656 6.50815L8.94528 6.46347C8.74647 6.17529 8.742 5.79104 8.93858 5.50063L8.90508 5.53413C9.54846 4.89075 9.54846 3.84971 8.90508 3.20632L8.97879 3.28005L8.94753 3.23538C8.74869 2.94719 8.74422 2.56294 8.94081 2.27253L9.26252 1.95082C9.70931 1.50403 9.70707 0.782463 9.26252 0.337896C8.81795 -0.106671 8.09414 -0.106671 7.64958 0.337896H7.65405Z"
        fill="currentColor"/>
</svg>
