<svg width="63" height="63" viewBox="0 0 63 63" fill="none" xmlns="http://www.w3.org/2000/svg">
    <mask id="mask0_1_50" style="mask-type:luminance" maskUnits="userSpaceOnUse" x="0" y="7" width="63" height="49">
        <path d="M63 7H0V56H63V7Z" fill="white"/>
    </mask>
    <g mask="url(#mask0_1_50)">
        <path
            d="M1.00018 30.0889C0.983917 30.4848 1.0753 30.8776 1.2644 31.2247C1.45349 31.5719 1.73308 31.86 2.07277 32.0577L26.1461 46.2085C27.7366 47.1446 29.5461 47.6327 31.3865 47.622C33.2268 47.6113 35.0307 47.1023 36.6104 46.1478L61.4518 31.1514C61.7929 30.9521 62.0732 30.6617 62.2619 30.312C62.4506 29.9623 62.5403 29.5668 62.5212 29.169C62.5022 28.7712 62.3751 28.3863 62.1539 28.0567C61.9327 27.727 61.6259 27.4654 61.2673 27.3003L59.092 26.2595L37.5843 39.2351C35.7058 40.3691 33.5612 40.974 31.3732 40.987C29.1852 40.9999 27.0337 40.4205 25.1422 39.3088L4.43249 27.1269L2.21865 28.2067C1.86469 28.3778 1.56393 28.6438 1.3491 28.9756C1.13426 29.3075 1.01358 29.6925 1.00018 30.0889Z"
            fill="black"/>
        <path
            d="M1.00017 37.8169C0.98099 38.2133 1.07112 38.6073 1.26051 38.955C1.4499 39.3026 1.73111 39.5903 2.07277 39.7858L26.1418 53.9366C27.7388 54.8553 29.5467 55.3333 31.3842 55.3226C33.2216 55.312 35.024 54.813 36.6104 53.8759L61.4517 38.8751C61.7918 38.6755 62.071 38.3852 62.2589 38.036C62.4468 37.6868 62.5361 37.2921 62.5171 36.895C62.498 36.498 62.3714 36.1139 62.1509 35.7847C61.9305 35.4555 61.6248 35.1939 61.2673 35.0284L58.6201 33.7621L36.9879 46.8113C35.2946 47.8379 33.3602 48.3874 31.3857 48.4026C29.4112 48.4179 27.4687 47.8984 25.76 46.8981L4.90442 34.6208L2.21864 35.9218C1.86278 36.0939 1.56077 36.3618 1.3458 36.6962C1.13083 37.0306 1.01124 37.4183 1.00017 37.8169Z"
            fill="black"/>
        <path
            d="M35.7951 18.6008L24.5971 20.1751C24.4564 20.1988 24.3262 20.2654 24.224 20.3661C24.1218 20.4667 24.0525 20.5966 24.0254 20.7382C23.9983 20.8798 24.0148 21.0264 24.0725 21.1583C24.1302 21.2902 24.2264 21.4011 24.3483 21.4761L32.3756 26.1251C32.4574 26.1727 32.5478 26.2031 32.6416 26.2145C32.7353 26.2259 32.8303 26.2179 32.9209 26.1912C33.0115 26.1644 33.0958 26.1194 33.1687 26.0589C33.2416 25.9983 33.3017 25.9235 33.3452 25.8389L36.5115 19.6243C36.5667 19.5168 36.5935 19.3968 36.5896 19.2757C36.5856 19.1547 36.551 19.0367 36.489 18.9331C36.427 18.8295 36.3397 18.7437 36.2354 18.684C36.1312 18.6243 36.0135 18.5927 35.8937 18.5922H35.7951"
            fill="black"/>
        <path
            d="M35.7951 18.6008L24.5971 20.1751C24.4564 20.1988 24.3262 20.2654 24.224 20.3661C24.1218 20.4667 24.0525 20.5966 24.0254 20.7382C23.9983 20.8798 24.0148 21.0264 24.0725 21.1583C24.1302 21.2902 24.2264 21.4011 24.3483 21.4761L32.3756 26.1251C32.4574 26.1727 32.5478 26.2031 32.6416 26.2145C32.7353 26.2259 32.8303 26.2179 32.9209 26.1912C33.0115 26.1644 33.0958 26.1194 33.1687 26.0589C33.2416 25.9983 33.3017 25.9235 33.3452 25.8389L36.5115 19.6243C36.5667 19.5168 36.5935 19.3968 36.5896 19.2757C36.5856 19.1547 36.551 19.0367 36.489 18.9331C36.427 18.8295 36.3397 18.7437 36.2354 18.684C36.1312 18.6243 36.0135 18.5927 35.8937 18.5922H35.7951"
            fill="black"/>
        <mask id="mask1_1_50" style="mask-type:luminance" maskUnits="userSpaceOnUse" x="24" y="18" width="13"
              height="9">
            <path
                d="M35.7951 18.6008L24.5971 20.1751C24.4564 20.1988 24.3262 20.2654 24.224 20.3661C24.1218 20.4667 24.0525 20.5966 24.0254 20.7382C23.9983 20.8798 24.0148 21.0264 24.0725 21.1583C24.1302 21.2902 24.2264 21.4011 24.3483 21.4761L32.3756 26.1251C32.4574 26.1727 32.5478 26.2031 32.6416 26.2145C32.7353 26.2259 32.8303 26.2179 32.9209 26.1912C33.0115 26.1644 33.0958 26.1194 33.1687 26.0589C33.2416 25.9983 33.3017 25.9235 33.3452 25.8389L36.5115 19.6243C36.5667 19.5168 36.5935 19.3968 36.5896 19.2757C36.5856 19.1547 36.551 19.0367 36.489 18.9331C36.427 18.8295 36.3397 18.7437 36.2354 18.684C36.1312 18.6243 36.0135 18.5927 35.8937 18.5922H35.7951"
                fill="white"/>
        </mask>
        <g mask="url(#mask1_1_50)">
            <path d="M36.7604 18.5922H23.7605V26.3246H36.7604V18.5922Z" fill="black"/>
        </g>
        <path
            d="M35.7951 18.6008L24.5971 20.1751C24.4564 20.1988 24.3262 20.2654 24.224 20.3661C24.1218 20.4667 24.0525 20.5966 24.0254 20.7382C23.9983 20.8798 24.0148 21.0264 24.0725 21.1583C24.1302 21.2902 24.2264 21.4011 24.3483 21.4761L32.3756 26.1251C32.4574 26.1727 32.5478 26.2031 32.6416 26.2145C32.7353 26.2259 32.8303 26.2179 32.9209 26.1912C33.0115 26.1644 33.0958 26.1194 33.1687 26.0589C33.2416 25.9983 33.3017 25.9235 33.3452 25.8389L36.5115 19.6243C36.5667 19.5168 36.5935 19.3968 36.5896 19.2757C36.5856 19.1547 36.551 19.0367 36.489 18.9331C36.427 18.8295 36.3397 18.7437 36.2354 18.684C36.1312 18.6243 36.0135 18.5927 35.8937 18.5922H35.7951"
            fill="black"/>
        <path
            d="M61.2413 20.0927L35.2115 7.65055C34.3083 7.21793 33.3206 6.99569 32.3212 7.00019C31.3217 7.00469 30.336 7.23583 29.4367 7.67657L2.21843 20.999C1.86295 21.1683 1.5603 21.433 1.34351 21.7643C1.12671 22.0956 1.0041 22.4807 0.989043 22.8776C0.973992 23.2745 1.06708 23.6679 1.25816 24.015C1.44923 24.3621 1.73094 24.6495 2.07256 24.8457L25.5281 38.6583C27.3003 39.7016 29.3167 40.2458 31.3675 40.2344C33.4184 40.2229 35.4287 39.6562 37.1894 38.5932L61.4258 23.961C61.7659 23.7614 62.0451 23.4711 62.233 23.1219C62.4209 22.7727 62.5101 22.378 62.4911 21.981C62.4721 21.5839 62.3454 21.1998 62.125 20.8706C61.9046 20.5414 61.5989 20.2798 61.2413 20.1143V20.0927ZM42.8398 28.7878C35.9109 32.4697 24.9532 32.6389 18.3846 29.1651C11.816 25.6914 12.0735 19.8845 19.0196 16.1983C25.9657 12.512 36.9062 12.3429 43.4748 15.821C48.3959 18.423 49.4814 22.3261 46.817 25.6567C49.0394 27.9422 51.3048 27.8251 51.3048 27.8251C51.3048 27.8251 46.1906 29.3299 42.8398 28.7878Z"
            fill="black"/>
    </g>
</svg>
