<svg width="63" height="49" viewBox="0 0 63 49" fill="none" xmlns="http://www.w3.org/2000/svg">
    <g clip-path="url(#clip0_234_158)">
        <path
            d="M1.00018 23.0889C0.983917 23.4848 1.0753 23.8776 1.2644 24.2247C1.45349 24.5719 1.73308 24.86 2.07277 25.0577L26.1461 39.2085C27.7366 40.1446 29.5461 40.6327 31.3865 40.622C33.2268 40.6113 35.0307 40.1023 36.6104 39.1478L61.4518 24.1514C61.7929 23.9521 62.0732 23.6617 62.2619 23.312C62.4506 22.9623 62.5403 22.5668 62.5212 22.169C62.5022 21.7712 62.3751 21.3863 62.1539 21.0567C61.9327 20.727 61.6259 20.4654 61.2673 20.3003L59.092 19.2595L37.5843 32.2351C35.7058 33.3691 33.5612 33.974 31.3732 33.987C29.1852 33.9999 27.0337 33.4205 25.1422 32.3088L4.43249 20.1269L2.21865 21.2067C1.86469 21.3778 1.56393 21.6438 1.3491 21.9756C1.13426 22.3075 1.01358 22.6925 1.00018 23.0889Z"
            fill="currentColor"/>
        <path
            d="M1.00017 30.8169C0.98099 31.2133 1.07112 31.6073 1.26051 31.955C1.4499 32.3026 1.73111 32.5903 2.07277 32.7858L26.1418 46.9366C27.7388 47.8553 29.5467 48.3333 31.3842 48.3226C33.2216 48.312 35.024 47.813 36.6104 46.8759L61.4517 31.8751C61.7918 31.6755 62.071 31.3852 62.2589 31.036C62.4468 30.6868 62.5361 30.2921 62.5171 29.895C62.498 29.498 62.3714 29.1139 62.1509 28.7847C61.9305 28.4555 61.6248 28.1939 61.2673 28.0284L58.6201 26.7621L36.9879 39.8113C35.2946 40.8379 33.3602 41.3874 31.3857 41.4026C29.4112 41.4179 27.4687 40.8984 25.76 39.8981L4.90442 27.6208L2.21864 28.9218C1.86278 29.0939 1.56077 29.3618 1.3458 29.6962C1.13083 30.0306 1.01124 30.4183 1.00017 30.8169Z"
            fill="currentColor"/>
        <path
            d="M35.7951 11.6008L24.5971 13.1751C24.4564 13.1988 24.3262 13.2654 24.224 13.3661C24.1218 13.4667 24.0525 13.5966 24.0254 13.7382C23.9983 13.8798 24.0148 14.0264 24.0725 14.1583C24.1302 14.2902 24.2264 14.4011 24.3483 14.4761L32.3756 19.1251C32.4574 19.1727 32.5478 19.2031 32.6416 19.2145C32.7353 19.2259 32.8303 19.2179 32.9209 19.1912C33.0115 19.1644 33.0958 19.1194 33.1687 19.0589C33.2416 18.9983 33.3017 18.9235 33.3452 18.8389L36.5115 12.6243C36.5667 12.5168 36.5935 12.3968 36.5896 12.2757C36.5856 12.1547 36.551 12.0367 36.489 11.9331C36.427 11.8295 36.3397 11.7437 36.2354 11.684C36.1312 11.6243 36.0135 11.5927 35.8937 11.5922H35.7951"
            fill="currentColor"/>
        <path
            d="M35.7951 11.6008L24.5971 13.1751C24.4564 13.1988 24.3262 13.2654 24.224 13.3661C24.1218 13.4667 24.0525 13.5966 24.0254 13.7382C23.9983 13.8798 24.0148 14.0264 24.0725 14.1583C24.1302 14.2902 24.2264 14.4011 24.3483 14.4761L32.3756 19.1251C32.4574 19.1727 32.5478 19.2031 32.6416 19.2145C32.7353 19.2259 32.8303 19.2179 32.9209 19.1912C33.0115 19.1644 33.0958 19.1194 33.1687 19.0589C33.2416 18.9983 33.3017 18.9235 33.3452 18.8389L36.5115 12.6243C36.5667 12.5168 36.5935 12.3968 36.5896 12.2757C36.5856 12.1547 36.551 12.0367 36.489 11.9331C36.427 11.8295 36.3397 11.7437 36.2354 11.684C36.1312 11.6243 36.0135 11.5927 35.8937 11.5922H35.7951"
            fill="currentColor"/>
        <mask id="mask0_234_158" style="mask-type:luminance" maskUnits="userSpaceOnUse" x="24" y="11" width="13"
              height="9">
            <path
                d="M35.7951 11.6008L24.5971 13.1751C24.4564 13.1988 24.3262 13.2654 24.224 13.3661C24.1218 13.4667 24.0525 13.5966 24.0254 13.7382C23.9983 13.8798 24.0148 14.0264 24.0725 14.1583C24.1302 14.2902 24.2264 14.4011 24.3483 14.4761L32.3756 19.1251C32.4574 19.1727 32.5478 19.2031 32.6416 19.2145C32.7353 19.2259 32.8303 19.2179 32.9209 19.1912C33.0115 19.1644 33.0958 19.1194 33.1687 19.0589C33.2416 18.9983 33.3017 18.9235 33.3452 18.8389L36.5115 12.6243C36.5667 12.5168 36.5935 12.3968 36.5896 12.2757C36.5856 12.1547 36.551 12.0367 36.489 11.9331C36.427 11.8295 36.3397 11.7437 36.2354 11.684C36.1312 11.6243 36.0135 11.5927 35.8937 11.5922H35.7951"
                fill="white"/>
        </mask>
        <g mask="url(#mask0_234_158)">
            <path d="M36.7604 11.5922H23.7605V19.3246H36.7604V11.5922Z" fill="currentColor"/>
        </g>
        <path
            d="M35.7951 11.6008L24.5971 13.1751C24.4564 13.1988 24.3262 13.2654 24.224 13.3661C24.1218 13.4667 24.0525 13.5966 24.0254 13.7382C23.9983 13.8798 24.0148 14.0264 24.0725 14.1583C24.1302 14.2902 24.2264 14.4011 24.3483 14.4761L32.3756 19.1251C32.4574 19.1727 32.5478 19.2031 32.6416 19.2145C32.7353 19.2259 32.8303 19.2179 32.9209 19.1912C33.0115 19.1644 33.0958 19.1194 33.1687 19.0589C33.2416 18.9983 33.3017 18.9235 33.3452 18.8389L36.5115 12.6243C36.5667 12.5168 36.5935 12.3968 36.5896 12.2757C36.5856 12.1547 36.551 12.0367 36.489 11.9331C36.427 11.8295 36.3397 11.7437 36.2354 11.684C36.1312 11.6243 36.0135 11.5927 35.8937 11.5922H35.7951"
            fill="currentColor"/>
        <path
            d="M61.2413 13.0927L35.2115 0.650547C34.3083 0.217931 33.3206 -0.00431419 32.3212 0.000189166C31.3217 0.00469252 30.336 0.23583 29.4367 0.676568L2.21843 13.999C1.86295 14.1683 1.5603 14.433 1.34351 14.7643C1.12671 15.0956 1.0041 15.4807 0.989044 15.8776C0.973993 16.2745 1.06708 16.6679 1.25816 17.015C1.44923 17.3621 1.73094 17.6495 2.07256 17.8457L25.5281 31.6583C27.3003 32.7016 29.3167 33.2458 31.3675 33.2344C33.4184 33.2229 35.4287 32.6562 37.1894 31.5932L61.4258 16.961C61.7659 16.7614 62.0451 16.4711 62.233 16.1219C62.4209 15.7727 62.5101 15.378 62.4911 14.981C62.4721 14.5839 62.3454 14.1998 62.125 13.8706C61.9046 13.5414 61.5989 13.2798 61.2413 13.1143V13.0927ZM42.8398 21.7878C35.9109 25.4697 24.9532 25.6389 18.3846 22.1651C11.816 18.6914 12.0735 12.8845 19.0196 9.19827C25.9657 5.51204 36.9062 5.3429 43.4748 8.82097C48.3959 11.423 49.4814 15.3261 46.817 18.6567C49.0394 20.9422 51.3048 20.8251 51.3048 20.8251C51.3048 20.8251 46.1906 22.3299 42.8398 21.7878Z"
            fill="currentColor"/>
    </g>
    <defs>
        <clipPath id="clip0_234_158">
            <rect width="63" height="49" fill="white"/>
        </clipPath>
    </defs>
</svg>
