<svg width="189" height="95" viewBox="0 0 189 95" fill="none" xmlns="http://www.w3.org/2000/svg">
    <path
        d="M0.0625 95.0002V1.90927H19.517L53.8807 61.0002H54.608V1.90927H74.2443V95.0002H55.1534L20.4261 35.9093H19.6989V95.0002H0.0625ZM87.3352 68.4547V57.182H127.881V68.4547H87.3352ZM107.517 49.9093C102.911 49.9093 98.8958 48.8638 95.4716 46.7729C92.0777 44.682 89.4413 41.879 87.5625 38.3638C85.714 34.8487 84.7898 30.9396 84.7898 26.6365V24.0911C84.7898 19.8487 85.714 15.9699 87.5625 12.4547C89.4413 8.90927 92.0777 6.09109 95.4716 4.00018C98.8958 1.87897 102.911 0.818359 107.517 0.818359C112.184 0.818359 116.214 1.87897 119.608 4.00018C123.002 6.09109 125.623 8.90927 127.472 12.4547C129.32 15.9699 130.244 19.8487 130.244 24.0911V26.6365C130.244 30.879 129.335 34.7729 127.517 38.3184C125.699 41.8335 123.093 44.6517 119.699 46.7729C116.305 48.8638 112.244 49.9093 107.517 49.9093ZM107.517 37.182C109.972 37.182 111.941 36.2275 113.426 34.3184C114.941 32.4093 115.699 29.8487 115.699 26.6365V24.0911C115.699 20.8487 114.956 18.3184 113.472 16.5002C112.017 14.6517 110.032 13.7275 107.517 13.7275C105.032 13.7275 103.078 14.6517 101.653 16.5002C100.229 18.3184 99.5171 20.8487 99.5171 24.0911V26.6365C99.5171 29.8487 100.229 32.4093 101.653 34.3184C103.108 36.2275 105.063 37.182 107.517 37.182Z"
        fill="#F1F4FA"/>
    <path d="M188.006 1.90927V95.0002H162.733V25.182H162.188L141.824 37.3638V15.9093L164.733 1.90927H188.006Z"
          fill="#F1F4FA"/>
</svg>
