<svg width="214" height="95" viewBox="0 0 214 95" fill="none" xmlns="http://www.w3.org/2000/svg">
    <path
        d="M0.0625 94.9999V1.90896H19.517L53.8807 60.9999H54.608V1.90896H74.2443V94.9999H55.1534L20.4261 35.909H19.6989V94.9999H0.0625ZM87.3352 68.4544V57.1817H127.881V68.4544H87.3352ZM107.517 49.909C102.911 49.909 98.8958 48.8635 95.4716 46.7726C92.0777 44.6817 89.4413 41.8787 87.5625 38.3635C85.714 34.8484 84.7898 30.9393 84.7898 26.6362V24.0908C84.7898 19.8484 85.714 15.9696 87.5625 12.4544C89.4413 8.90896 92.0777 6.09078 95.4716 3.99987C98.8958 1.87865 102.911 0.818047 107.517 0.818047C112.184 0.818047 116.214 1.87865 119.608 3.99987C123.002 6.09078 125.623 8.90896 127.472 12.4544C129.32 15.9696 130.244 19.8484 130.244 24.0908V26.6362C130.244 30.8787 129.335 34.7726 127.517 38.3181C125.699 41.8332 123.093 44.6514 119.699 46.7726C116.305 48.8635 112.244 49.909 107.517 49.909ZM107.517 37.1817C109.972 37.1817 111.941 36.2271 113.426 34.3181C114.941 32.409 115.699 29.8484 115.699 26.6362V24.0908C115.699 20.8484 114.956 18.3181 113.472 16.4999C112.017 14.6514 110.032 13.7271 107.517 13.7271C105.032 13.7271 103.078 14.6514 101.653 16.4999C100.229 18.3181 99.5171 20.8484 99.5171 24.0908V26.6362C99.5171 29.8484 100.229 32.409 101.653 34.3181C103.108 36.2271 105.063 37.1817 107.517 37.1817Z"
        fill="#F1F4FA"/>
    <path
        d="M142.369 94.9999V76.8181L177.097 48.0908C179.4 46.1817 181.369 44.3938 183.006 42.7271C184.672 41.0302 185.945 39.2877 186.824 37.4999C187.733 35.712 188.188 33.7271 188.188 31.5453C188.188 29.1514 187.672 27.1059 186.642 25.409C185.642 23.712 184.248 22.409 182.46 21.4999C180.672 20.5605 178.612 20.0908 176.278 20.0908C173.945 20.0908 171.884 20.5605 170.097 21.4999C168.339 22.4393 166.975 23.818 166.006 25.6362C165.036 27.4544 164.551 29.6665 164.551 32.2726H140.551C140.551 25.7271 142.021 20.0908 144.96 15.3635C147.9 10.6362 152.051 6.99987 157.415 4.45441C162.778 1.90896 169.066 0.63623 176.278 0.63623C183.733 0.63623 190.187 1.8332 195.642 4.22714C201.127 6.59078 205.354 9.92411 208.324 14.2271C211.324 18.5302 212.824 23.5756 212.824 29.3635C212.824 32.9393 212.081 36.4999 210.597 40.0453C209.112 43.5605 206.445 47.4544 202.597 51.7271C198.748 55.9999 193.278 61.0908 186.188 66.9999L177.46 74.2726V74.8181H213.824V94.9999H142.369Z"
        fill="#F1F4FA"/>
</svg>
