<svg width="218" height="97" viewBox="0 0 218 97" fill="none" xmlns="http://www.w3.org/2000/svg">
    <path
        d="M0.25 94.9999V1.90896H19.7045L54.0682 60.9999H54.7955V1.90896H74.4318V94.9999H55.3409L20.6136 35.909H19.8864V94.9999H0.25ZM87.5227 68.4544V57.1817H128.068V68.4544H87.5227ZM107.705 49.909C103.098 49.909 99.0833 48.8635 95.6591 46.7726C92.2652 44.6817 89.6288 41.8787 87.75 38.3635C85.9015 34.8484 84.9773 30.9393 84.9773 26.6362V24.0908C84.9773 19.8484 85.9015 15.9696 87.75 12.4544C89.6288 8.90896 92.2652 6.09078 95.6591 3.99987C99.0833 1.87865 103.098 0.818047 107.705 0.818047C112.371 0.818047 116.402 1.87865 119.795 3.99987C123.189 6.09078 125.811 8.90896 127.659 12.4544C129.508 15.9696 130.432 19.8484 130.432 24.0908V26.6362C130.432 30.8787 129.523 34.7726 127.705 38.3181C125.886 41.8332 123.28 44.6514 119.886 46.7726C116.492 48.8635 112.432 49.909 107.705 49.909ZM107.705 37.1817C110.159 37.1817 112.129 36.2271 113.614 34.3181C115.129 32.409 115.886 29.8484 115.886 26.6362V24.0908C115.886 20.8484 115.144 18.3181 113.659 16.4999C112.205 14.6514 110.22 13.7271 107.705 13.7271C105.22 13.7271 103.265 14.6514 101.841 16.4999C100.417 18.3181 99.7046 20.8484 99.7046 24.0908V26.6362C99.7046 29.8484 100.417 32.409 101.841 34.3181C103.295 36.2271 105.25 37.1817 107.705 37.1817Z"
        fill="#F1F4FA"/>
    <path
        d="M178.92 96.2726C171.587 96.2726 165.072 95.015 159.375 92.4999C153.708 89.9544 149.254 86.4544 146.011 81.9999C142.769 77.5453 141.133 72.4241 141.102 66.6362H166.557C166.587 68.4241 167.133 70.0302 168.193 71.4544C169.284 72.8484 170.769 73.9393 172.648 74.7271C174.527 75.515 176.678 75.909 179.102 75.909C181.436 75.909 183.496 75.4999 185.284 74.6817C187.072 73.8332 188.466 72.6665 189.466 71.1817C190.466 69.6968 190.951 67.9999 190.92 66.0908C190.951 64.212 190.375 62.5453 189.193 61.0908C188.042 59.6362 186.42 58.4999 184.33 57.6817C182.239 56.8635 179.83 56.4544 177.102 56.4544H167.648V38.9999H177.102C179.617 38.9999 181.83 38.5908 183.739 37.7726C185.678 36.9544 187.178 35.8181 188.239 34.3635C189.33 32.909 189.86 31.2423 189.83 29.3635C189.86 27.5453 189.42 25.9393 188.511 24.5453C187.602 23.1514 186.33 22.0605 184.693 21.2726C183.087 20.4847 181.223 20.0908 179.102 20.0908C176.799 20.0908 174.739 20.4999 172.92 21.318C171.133 22.1362 169.723 23.2726 168.693 24.7271C167.663 26.1817 167.133 27.8484 167.102 29.7271H142.92C142.951 24.0302 144.511 18.9999 147.602 14.6362C150.723 10.2726 154.996 6.84835 160.42 4.3635C165.845 1.87865 172.072 0.63623 179.102 0.63623C185.981 0.63623 192.057 1.8029 197.33 4.13623C202.633 6.46956 206.769 9.68169 209.739 13.7726C212.739 17.8332 214.223 22.4847 214.193 27.7271C214.254 32.9393 212.466 37.212 208.83 40.5453C205.223 43.8787 200.648 45.8484 195.102 46.4544V47.1817C202.617 47.9999 208.269 50.3029 212.057 54.0908C215.845 57.8484 217.708 62.5756 217.648 68.2726C217.678 73.7271 216.042 78.5605 212.739 82.7726C209.466 86.9847 204.905 90.2877 199.057 92.6817C193.239 95.0756 186.527 96.2726 178.92 96.2726Z"
        fill="#F1F4FA"/>
</svg>
