<svg width="223" height="95" viewBox="0 0 223 95" fill="none" xmlns="http://www.w3.org/2000/svg">
    <path
        d="M0.5 95.0002V1.90927H19.9545L54.3182 61.0002H55.0455V1.90927H74.6818V95.0002H55.5909L20.8636 35.9093H20.1364V95.0002H0.5ZM87.7727 68.4547V57.182H128.318V68.4547H87.7727ZM107.955 49.9093C103.348 49.9093 99.3333 48.8638 95.9091 46.7729C92.5152 44.682 89.8788 41.879 88 38.3638C86.1515 34.8487 85.2273 30.9396 85.2273 26.6365V24.0911C85.2273 19.8487 86.1515 15.9699 88 12.4547C89.8788 8.90927 92.5152 6.09109 95.9091 4.00018C99.3333 1.87897 103.348 0.818359 107.955 0.818359C112.621 0.818359 116.652 1.87897 120.045 4.00018C123.439 6.09109 126.061 8.90927 127.909 12.4547C129.758 15.9699 130.682 19.8487 130.682 24.0911V26.6365C130.682 30.879 129.773 34.7729 127.955 38.3184C126.136 41.8335 123.53 44.6517 120.136 46.7729C116.742 48.8638 112.682 49.9093 107.955 49.9093ZM107.955 37.182C110.409 37.182 112.379 36.2275 113.864 34.3184C115.379 32.4093 116.136 29.8487 116.136 26.6365V24.0911C116.136 20.8487 115.394 18.3184 113.909 16.5002C112.455 14.6517 110.47 13.7275 107.955 13.7275C105.47 13.7275 103.515 14.6517 102.091 16.5002C100.667 18.3184 99.9546 20.8487 99.9546 24.0911V26.6365C99.9546 29.8487 100.667 32.4093 102.091 34.3184C103.545 36.2275 105.5 37.182 107.955 37.182Z"
        fill="#F1F4FA"/>
    <path
        d="M141.898 80.4547V60.8184L179.352 1.90927H197.17V28.0911H186.989L166.807 60.0911V60.8184H222.08V80.4547H141.898ZM187.17 95.0002V74.4547L187.716 65.9093V1.90927H211.352V95.0002H187.17Z"
        fill="#F1F4FA"/>
</svg>
