<svg viewBox="0 0 375 2300" fill="none" xmlns="http://www.w3.org/2000/svg">
    <path d="M39 26V2131" stroke="url(#paint0_linear_636_2)" stroke-width="4" stroke-miterlimit="10"/>
    <path
        d="M39 553C43.4183 553 47 549.418 47 545C47 540.582 43.4183 537 39 537C34.5817 537 31 540.582 31 545C31 549.418 34.5817 553 39 553Z"
        fill="white" stroke="url(#paint1_linear_636_2)" stroke-width="4" stroke-miterlimit="10"/>
    <text fill="#183B59" xml:space="preserve" style="white-space: pre" font-family="Inter" font-size="26"
          font-weight="800" letter-spacing="0em"><tspan x="58" y="553.955">2022</tspan></text>
    <text fill="#183B59" xml:space="preserve" style="white-space: pre" font-family="Inter" font-size="42"
          font-weight="800" letter-spacing="0em"><tspan x="58" y="614.773">6 542&#10;</tspan></text>
    <text fill="#183B59" xml:space="preserve" style="white-space: pre" font-family="Inter" font-size="21"
          letter-spacing="0em"><tspan x="58" y="639.773">&#x426;&#x418;&#x424;&#x420;&#x41e;&#x412;&#x42b;&#x425;&#13;&#10;</tspan>
        <tspan x="58" y="664.773">&#x423;&#x420;&#x41e;&#x41a;&#x410;</tspan></text>
    <text fill="#183B59" xml:space="preserve" style="white-space: pre" font-family="Inter" font-size="42"
          font-weight="800" letter-spacing="0em"><tspan x="58" y="1504.77">38 553&#13;&#10;</tspan></text>
    <text fill="#183B59" xml:space="preserve" style="white-space: pre" font-family="Inter" font-size="21"
          letter-spacing="0em"><tspan x="58" y="1529.77">&#x42d;&#x41b;&#x415;&#x41a;&#x422;&#x420;&#x41e;&#x41d;&#x41d;&#x42b;&#x425;&#13;&#10;</tspan>
        <tspan x="58" y="1554.77">&#x41e;&#x411;&#x420;&#x410;&#x417;&#x41e;&#x412;&#x410;&#x422;&#x415;&#x41b;&#x42c;&#x41d;&#x42b;&#x425;&#13;&#10;</tspan>
        <tspan x="58" y="1579.77">&#x41c;&#x410;&#x422;&#x415;&#x420;&#x418;&#x410;&#x41b;&#x410;</tspan></text>
    <text fill="#183B59" xml:space="preserve" style="white-space: pre" font-family="Inter" font-size="17"
          font-weight="bold" letter-spacing="0em"><tspan x="61" y="699.682">&#x421;&#x420;&#x415;&#x414;&#x41d;&#x415;&#x415; &#x41e;&#x411;&#x429;&#x415;&#x415;&#13;&#x41e;&#x411;&#x420;&#x410;&#x417;&#x41e;&#x412;&#x410;&#x41d;&#x418;&#x415;&#10;</tspan>
        <tspan x="61" y="921.682">&#x41e;&#x421;&#x41d;&#x41e;&#x412;&#x41d;&#x41e;&#x415; &#x41e;&#x411;&#x429;&#x415;&#x415; &#13;</tspan>
        <tspan x="61"
               y="942.682">&#x41e;&#x411;&#x420;&#x410;&#x417;&#x41e;&#x412;&#x410;&#x41d;&#x418;&#x415;&#10;</tspan>
        <tspan x="61" y="1188.68">&#x41d;&#x410;&#x427;&#x410;&#x41b;&#x42c;&#x41d;&#x41e;&#x415; &#x41e;&#x411;&#x429;&#x415;&#x415; &#13;</tspan>
        <tspan x="61"
               y="1209.68">&#x41e;&#x411;&#x420;&#x410;&#x417;&#x41e;&#x412;&#x410;&#x41d;&#x418;&#x415;&#10;</tspan></text>
    <text fill="#183B59" xml:space="preserve" style="white-space: pre" font-family="Inter" font-size="17"
          letter-spacing="0em"><tspan x="61" y="726.682">10 &#x2013; 11 &#x43a;&#x43b;&#x430;&#x441;&#x441;&#x44b;&#10;</tspan>
        <tspan x="61" y="969.682">5 &#x2013; 9 &#x43a;&#x43b;&#x430;&#x441;&#x441;&#x44b;&#10;</tspan>
        <tspan x="61" y="1236.68">3 &#x2013; 4 &#x43a;&#x43b;&#x430;&#x441;&#x441;&#x44b;&#10;</tspan></text>
    <text fill="#183B59" xml:space="preserve" style="white-space: pre" font-family="Inter" font-size="15"
          letter-spacing="0em"><tspan x="61" y="750.682">&#10;</tspan>
        <tspan x="61" y="774.682">&#x420;&#x443;&#x441;&#x441;&#x43a;&#x438;&#x439; &#x44f;&#x437;&#x44b;&#x43a;&#13;&#10;</tspan>
        <tspan x="61" y="798.682">&#x424;&#x438;&#x437;&#x438;&#x43a;&#x430;&#13;&#10;</tspan>
        <tspan x="61" y="822.682">&#x425;&#x438;&#x43c;&#x438;&#x44f;&#13;&#10;</tspan>
        <tspan x="61" y="846.682">&#x411;&#x438;&#x43e;&#x43b;&#x43e;&#x433;&#x438;&#x44f;&#13;&#10;</tspan>
        <tspan x="61" y="870.682">&#x41e;&#x431;&#x449;&#x435;&#x441;&#x442;&#x432;&#x43e;&#x437;&#x43d;&#x430;&#x43d;&#x438;&#x435;&#10;</tspan>
        <tspan x="61" y="894.682">&#10;</tspan>
        <tspan x="61" y="993.682">&#10;</tspan>
        <tspan x="61"
               y="1017.68">&#x41b;&#x438;&#x442;&#x435;&#x440;&#x430;&#x442;&#x443;&#x440;&#x430;&#13;&#10;</tspan>
        <tspan x="61" y="1041.68">&#x41e;&#x431;&#x449;&#x435;&#x441;&#x442;&#x432;&#x43e;&#x437;&#x43d;&#x430;&#x43d;&#x438;&#x435;&#13;&#10;</tspan>
        <tspan x="61" y="1065.68">&#x413;&#x435;&#x43e;&#x433;&#x440;&#x430;&#x444;&#x438;&#x44f;&#13;&#10;</tspan>
        <tspan x="61" y="1089.68">&#x41e;&#x411;&#x416;&#13;&#10;</tspan>
        <tspan x="61" y="1113.68">&#x41c;&#x443;&#x437;&#x44b;&#x43a;&#x430;&#13;&#10;</tspan>
        <tspan x="61" y="1137.68">&#x422;&#x435;&#x445;&#x43d;&#x43e;&#x43b;&#x43e;&#x433;&#x438;&#x44f;&#10;</tspan>
        <tspan x="61" y="1161.68">&#10;</tspan>
        <tspan x="61" y="1260.68">&#10;</tspan>
        <tspan x="61" y="1284.68">&#x420;&#x443;&#x441;&#x441;&#x43a;&#x438;&#x439; &#x44f;&#x437;&#x44b;&#x43a;&#13;&#10;</tspan>
        <tspan x="61"
               y="1308.68">&#x41c;&#x430;&#x442;&#x435;&#x43c;&#x430;&#x442;&#x438;&#x43a;&#x430;&#13;&#10;</tspan>
        <tspan x="61" y="1332.68">&#x41e;&#x43a;&#x440;&#x443;&#x436;&#x430;&#x44e;&#x449;&#x438;&#x439; &#x43c;&#x438;&#x440;&#13;&#10;</tspan>
        <tspan x="61" y="1356.68">&#x410;&#x43d;&#x433;&#x43b;&#x438;&#x439;&#x441;&#x43a;&#x438;&#x439; &#x44f;&#x437;&#x44b;&#x43a;&#13;&#10;</tspan>
        <tspan x="61" y="1380.68">&#x41b;&#x438;&#x442;&#x435;&#x440;&#x430;&#x442;&#x443;&#x440;&#x43d;&#x43e;&#x435; &#x447;&#x442;&#x435;&#x43d;&#x438;&#x435;&#13;&#10;</tspan>
        <tspan x="61" y="1404.68">&#x418;&#x417;&#x41e;&#13;&#10;</tspan>
        <tspan x="61" y="1428.68">&#x41c;&#x443;&#x437;&#x44b;&#x43a;&#x430;</tspan></text>
    <text fill="#183B59" xml:space="preserve" style="white-space: pre" font-family="Inter" font-size="15"
          letter-spacing="0em"><tspan x="130" y="1638.45">&#x434;&#x438;&#x430;&#x433;&#x43d;&#x43e;&#x441;&#x442;&#x438;&#x43a;&#x430;&#13;&#10;</tspan>
        <tspan x="130" y="1675.45">&#x433;&#x430;&#x43b;&#x435;&#x440;&#x435;&#x439; &#x438;&#x437;&#x43e;&#x431;&#x440;&#x430;&#x436;&#x435;&#x43d;&#x438;&#x439;&#13;&#10;</tspan>
        <tspan x="130" y="1712.45">&#x43e;&#x431;&#x443;&#x447;&#x430;&#x44e;&#x449;&#x438;&#x445; &#x432;&#x438;&#x434;&#x435;&#x43e;&#x443;&#x440;&#x43e;&#x43a;&#x43e;&#x432;&#13;&#10;</tspan>
        <tspan x="130" y="1749.45">&#x43a;&#x435;&#x439;&#x441;&#x43e;&#x432; &#x43f;&#x43e; &#x440;&#x430;&#x431;&#x43e;&#x442;&#x435; &#x441; </tspan>
        <tspan x="130" y="1767.45">&#x438;&#x43d;&#x444;&#x43e;&#x440;&#x43c;&#x430;&#x446;&#x438;&#x435;&#x439;&#13;&#10;</tspan>
        <tspan x="130" y="1804.45">&#x434;&#x438;&#x43d;&#x430;&#x43c;&#x438;&#x447;&#x435;&#x441;&#x43a;&#x438;&#x445; &#x438;&#x43d;&#x444;&#x43e;&#x433;&#x440;&#x430;&#x444;&#x438;&#x43a;&#x438;,                           </tspan>
        <tspan x="130" y="1822.45">3D-&#x433;&#x440;&#x430;&#x444;&#x438;&#x43a;&#x438;&#13;&#10;</tspan>
        <tspan x="130" y="1859.45">&#x442;&#x435;&#x441;&#x442;&#x430; &#x432; &#x444;&#x43e;&#x440;&#x43c;&#x430;&#x442;&#x435; &#x413;&#x418;&#x410;&#13;&#10;</tspan>
        <tspan x="130" y="1896.45">&#x447;&#x435;&#x43a;-&#x43b;&#x438;&#x441;&#x442;&#x430;&#13;&#10;</tspan>
        <tspan x="130" y="1933.45">&#x430;&#x443;&#x434;&#x438;&#x43e;&#x444;&#x430;&#x439;&#x43b;&#x43e;&#x432;&#13;&#10;</tspan>
        <tspan x="130" y="1970.45">&#x43f;&#x440;&#x43e;&#x435;&#x43a;&#x442;&#x43e;&#x432;&#13;&#10;</tspan>
        <tspan x="130" y="2007.45">&#x43f;&#x440;&#x430;&#x43a;&#x442;&#x438;&#x447;&#x435;&#x441;&#x43a;&#x438;&#x445; &#x440;&#x430;&#x431;&#x43e;&#x442;&#13;&#10;</tspan>
        <tspan x="130" y="2044.45">&#x430;&#x43d;&#x438;&#x43c;&#x430;&#x446;&#x438;&#x439;&#13;&#10;</tspan>
        <tspan x="130" y="2081.45">&#x43c;&#x438;&#x43d;&#x438;-&#x438;&#x433;&#x440;&#13;&#10;</tspan></text>
    <text fill="#183B59" xml:space="preserve" style="white-space: pre" font-family="Inter" font-size="17"
          font-weight="bold" letter-spacing="0em"><tspan x="58" y="1640.68">16421 &#10;</tspan>
        <tspan x="58" y="1678.68">6066 &#13;&#10;</tspan>
        <tspan x="58" y="1716.68">5948 &#13;&#10;</tspan>
        <tspan x="58" y="1754.68">3289 &#13;&#10;</tspan></text>
    <path
        d="M39 78C43.4183 78 47 74.4183 47 70C47 65.5817 43.4183 62 39 62C34.5817 62 31 65.5817 31 70C31 74.4183 34.5817 78 39 78Z"
        fill="white" stroke="url(#paint2_linear_636_2)" stroke-width="4" stroke-miterlimit="10"/>
    <text fill="#183B59" xml:space="preserve" style="white-space: pre" font-family="Inter" font-size="26"
          font-weight="800" letter-spacing="0em"><tspan x="58" y="78.9545">2021</tspan></text>
    <text fill="#183B59" xml:space="preserve" style="white-space: pre" font-family="Inter" font-size="42"
          font-weight="800" letter-spacing="0em"><tspan x="58" y="139.773">&#x417; 230&#13;&#10;</tspan></text>
    <text fill="#183B59" xml:space="preserve" style="white-space: pre" font-family="Inter" font-size="21"
          letter-spacing="0em"><tspan x="58" y="164.773">&#x426;&#x418;&#x424;&#x420;&#x41e;&#x412;&#x42b;&#x425;&#13;&#10;</tspan>
        <tspan x="58" y="189.773">&#x423;&#x420;&#x41e;&#x41a;&#x41e;&#x412;</tspan></text>
    <text fill="#183B59" xml:space="preserve" style="white-space: pre" font-family="Inter" font-size="17"
          font-weight="bold" letter-spacing="0em"><tspan x="61" y="224.682">&#x41e;&#x421;&#x41d;&#x41e;&#x412;&#x41d;&#x41e;&#x415; &#x41e;&#x411;&#x429;&#x415;&#x415; &#13;</tspan>
        <tspan x="61"
               y="245.682">&#x41e;&#x411;&#x420;&#x410;&#x417;&#x41e;&#x412;&#x410;&#x41d;&#x418;&#x415;&#10;</tspan></text>
    <text fill="#183B59" xml:space="preserve" style="white-space: pre" font-family="Inter" font-size="17"
          letter-spacing="0em"><tspan x="61" y="272.682">5 &#x2013; 9 &#x43a;&#x43b;&#x430;&#x441;&#x441;&#x44b;&#10;</tspan></text>
    <text fill="#183B59" xml:space="preserve" style="white-space: pre" font-family="Inter" font-size="15"
          letter-spacing="0em"><tspan x="61" y="296.682">&#10;</tspan>
        <tspan x="61" y="320.682">&#x418;&#x43d;&#x444;&#x43e;&#x440;&#x43c;&#x430;&#x442;&#x438;&#x43a;&#x430;&#13;&#10;</tspan>
        <tspan x="61" y="344.682">&#x411;&#x438;&#x43e;&#x43b;&#x43e;&#x433;&#x438;&#x44f;&#13;&#10;</tspan>
        <tspan x="61"
               y="368.682">&#x41c;&#x430;&#x442;&#x435;&#x43c;&#x430;&#x442;&#x438;&#x43a;&#x430;&#13;&#10;</tspan>
        <tspan x="61" y="392.682">&#x420;&#x443;&#x441;&#x441;&#x43a;&#x438;&#x439; &#x44f;&#x437;&#x44b;&#x43a;&#13;&#10;</tspan>
        <tspan x="61" y="416.682">&#x424;&#x438;&#x437;&#x438;&#x43a;&#x430;&#13;&#10;</tspan>
        <tspan x="61" y="440.682">&#x425;&#x438;&#x43c;&#x438;&#x44f;&#13;&#10;</tspan>
        <tspan x="61" y="464.682">&#x418;&#x441;&#x442;&#x43e;&#x440;&#x438;&#x44f;&#13;&#10;</tspan>
        <tspan x="61" y="488.682">&#x410;&#x43d;&#x433;&#x43b;&#x438;&#x439;&#x441;&#x43a;&#x438;&#x439; &#x44f;&#x437;&#x44b;&#x43a;&#13;&#10;</tspan></text>
    <path
        d="M39 2147C43.4183 2147 47 2143.42 47 2139C47 2134.58 43.4183 2131 39 2131C34.5817 2131 31 2134.58 31 2139C31 2143.42 34.5817 2147 39 2147Z"
        fill="white" stroke="url(#paint3_linear_636_2)" stroke-width="4" stroke-miterlimit="10"/>
    <text fill="#183B59" xml:space="preserve" style="white-space: pre" font-family="Inter" font-size="26"
          font-weight="800" letter-spacing="0em"><tspan x="58" y="2147.95">2023</tspan></text>
    <g clip-path="url(#clip0_636_2)">
        <path d="M41 2146H37V2150H41V2146Z" fill="url(#paint4_linear_636_2)"/>
        <path
            d="M41 2211.67H37V2203.96H41V2211.67ZM41 2196.25H37V2188.54H41V2196.25ZM41 2180.83H37V2173.12H41V2180.83ZM41 2165.41H37V2157.7H41V2165.41Z"
            fill="url(#paint5_linear_636_2)"/>
        <path d="M41 2219.38H37V2223.38H41V2219.38Z" fill="url(#paint6_linear_636_2)"/>
        <mask id="mask0_636_2" style="mask-type:luminance" maskUnits="userSpaceOnUse" x="34" y="2219" width="10"
              height="20">
            <path d="M34 2219.97L38.99 2238.62L43.99 2219.97H34Z" fill="white"/>
        </mask>
        <g mask="url(#mask0_636_2)">
            <path d="M37 2219.97H34V2238.62H37V2219.97Z" fill="#2D8399"/>
            <path d="M37.09 2219.97H37V2238.62H37.09V2219.97Z" fill="#2D8399"/>
            <path d="M37.18 2219.97H37.09V2238.62H37.18V2219.97Z" fill="#2D839A"/>
            <path d="M37.26 2219.97H37.17V2238.62H37.26V2219.97Z" fill="#2C829B"/>
            <path d="M37.35 2219.97H37.26V2238.62H37.35V2219.97Z" fill="#2C829C"/>
            <path d="M37.44 2219.97H37.35V2238.62H37.44V2219.97Z" fill="#2B829D"/>
            <path d="M37.5299 2219.97H37.4399V2238.62H37.5299V2219.97Z" fill="#2B829E"/>
            <path d="M37.62 2219.97H37.53V2238.62H37.62V2219.97Z" fill="#2A819F"/>
            <path d="M37.71 2219.97H37.62V2238.62H37.71V2219.97Z" fill="#2A81A0"/>
            <path d="M37.8 2219.97H37.71V2238.62H37.8V2219.97Z" fill="#2981A1"/>
            <path d="M37.89 2219.97H37.8V2238.62H37.89V2219.97Z" fill="#2980A2"/>
            <path d="M37.98 2219.97H37.89V2238.62H37.98V2219.97Z" fill="#2880A3"/>
            <path d="M38.06 2219.97H37.97V2238.62H38.06V2219.97Z" fill="#2880A4"/>
            <path d="M38.1501 2219.97H38.0601V2238.62H38.1501V2219.97Z" fill="#277FA5"/>
            <path d="M38.24 2219.97H38.15V2238.62H38.24V2219.97Z" fill="#277FA6"/>
            <path d="M38.33 2219.97H38.24V2238.62H38.33V2219.97Z" fill="#267FA7"/>
            <path d="M38.42 2219.97H38.33V2238.62H38.42V2219.97Z" fill="#267FA8"/>
            <path d="M38.51 2219.97H38.42V2238.62H38.51V2219.97Z" fill="#257EA9"/>
            <path d="M38.6 2219.97H38.51V2238.62H38.6V2219.97Z" fill="#257EAA"/>
            <path d="M38.69 2219.97H38.6V2238.62H38.69V2219.97Z" fill="#247EAB"/>
            <path d="M38.7799 2219.97H38.6899V2238.62H38.7799V2219.97Z" fill="#247DAC"/>
            <path d="M38.86 2219.97H38.77V2238.62H38.86V2219.97Z" fill="#237DAD"/>
            <path d="M38.95 2219.97H38.86V2238.62H38.95V2219.97Z" fill="#237DAE"/>
            <path d="M39.04 2219.97H38.95V2238.62H39.04V2219.97Z" fill="#237DB0"/>
            <path d="M39.13 2219.97H39.04V2238.62H39.13V2219.97Z" fill="#227CB1"/>
            <path d="M39.22 2219.97H39.13V2238.62H39.22V2219.97Z" fill="#227CB2"/>
            <path d="M39.31 2219.97H39.22V2238.62H39.31V2219.97Z" fill="#217CB3"/>
            <path d="M39.4001 2219.97H39.3101V2238.62H39.4001V2219.97Z" fill="#217BB4"/>
            <path d="M39.49 2219.97H39.4V2238.62H39.49V2219.97Z" fill="#207BB5"/>
            <path d="M39.58 2219.97H39.49V2238.62H39.58V2219.97Z" fill="#207BB6"/>
            <path d="M39.6599 2219.97H39.5699V2238.62H39.6599V2219.97Z" fill="#1F7AB7"/>
            <path d="M39.75 2219.97H39.66V2238.62H39.75V2219.97Z" fill="#1F7AB8"/>
            <path d="M39.84 2219.97H39.75V2238.62H39.84V2219.97Z" fill="#1E7AB9"/>
            <path d="M39.93 2219.97H39.84V2238.62H39.93V2219.97Z" fill="#1E7ABA"/>
            <path d="M40.0201 2219.97H39.9301V2238.62H40.0201V2219.97Z" fill="#1D79BB"/>
            <path d="M40.11 2219.97H40.02V2238.62H40.11V2219.97Z" fill="#1D79BC"/>
            <path d="M40.2 2219.97H40.11V2238.62H40.2V2219.97Z" fill="#1C79BD"/>
            <path d="M40.29 2219.97H40.2V2238.62H40.29V2219.97Z" fill="#1C78BE"/>
            <path d="M40.38 2219.97H40.29V2238.62H40.38V2219.97Z" fill="#1B78BF"/>
            <path d="M40.46 2219.97H40.37V2238.62H40.46V2219.97Z" fill="#1B78C0"/>
            <path d="M40.55 2219.97H40.46V2238.62H40.55V2219.97Z" fill="#1A77C1"/>
            <path d="M40.64 2219.97H40.55V2238.62H40.64V2219.97Z" fill="#1A77C2"/>
            <path d="M40.73 2219.97H40.64V2238.62H40.73V2219.97Z" fill="#1977C3"/>
            <path d="M40.82 2219.97H40.73V2238.62H40.82V2219.97Z" fill="#1977C4"/>
            <path d="M40.9099 2219.97H40.8199V2238.62H40.9099V2219.97Z" fill="#1876C5"/>
            <path d="M41 2219.97H40.91V2238.62H41V2219.97Z" fill="#1876C6"/>
            <path d="M44 2219.97H41V2238.62H44V2219.97Z" fill="#1876C6"/>
        </g>
    </g>
    <text fill="#183B59" xml:space="preserve" style="white-space: pre" font-family="Inter" font-size="17"
          font-weight="bold" letter-spacing="0em"><tspan x="58" y="1858.68">1414 &#13;&#10;</tspan>
        <tspan x="58" y="1896.68">1292 &#13;&#10;</tspan>
        <tspan x="58" y="1934.68">1068 &#13;&#10;</tspan>
        <tspan x="58" y="1972.68">927 &#13;&#10;</tspan>
        <tspan x="58" y="2010.68">636 &#13;&#10;</tspan>
        <tspan x="58" y="2048.68">426 &#13;&#10;</tspan>
        <tspan x="58" y="2086.68">180 &#13;&#10;</tspan></text>
    <defs>
        <linearGradient id="paint0_linear_636_2" x1="0" y1="0" x2="100%" y2="0" gradientUnits="userSpaceOnUse">
            <stop stop-color="#2D8399"/>
            <stop offset="1" stop-color="#1876C6"/>
        </linearGradient>
        <linearGradient id="paint1_linear_636_2" x1="29" y1="545" x2="49" y2="545" gradientUnits="userSpaceOnUse">
            <stop stop-color="#2D8399"/>
            <stop offset="1" stop-color="#1876C6"/>
        </linearGradient>
        <linearGradient id="paint2_linear_636_2" x1="29" y1="70" x2="49" y2="70" gradientUnits="userSpaceOnUse">
            <stop stop-color="#2D8399"/>
            <stop offset="1" stop-color="#1876C6"/>
        </linearGradient>
        <linearGradient id="paint3_linear_636_2" x1="29" y1="2139" x2="49" y2="2139" gradientUnits="userSpaceOnUse">
            <stop stop-color="#2D8399"/>
            <stop offset="1" stop-color="#1876C6"/>
        </linearGradient>
        <linearGradient id="paint4_linear_636_2" x1="37" y1="2148" x2="41" y2="2148" gradientUnits="userSpaceOnUse">
            <stop stop-color="#2D8399"/>
            <stop offset="1" stop-color="#1876C6"/>
        </linearGradient>
        <linearGradient id="paint5_linear_636_2" x1="34" y1="2184.69" x2="35" y2="2184.69"
                        gradientUnits="userSpaceOnUse">
            <stop stop-color="#2D8399"/>
            <stop offset="1" stop-color="#1876C6"/>
        </linearGradient>
        <linearGradient id="paint6_linear_636_2" x1="34" y1="2221.38" x2="35" y2="2221.38"
                        gradientUnits="userSpaceOnUse">
            <stop stop-color="#2D8399"/>
            <stop offset="1" stop-color="#1876C6"/>
        </linearGradient>
        <clipPath id="clip0_636_2">
            <rect width="9.99" height="92.62" fill="white" transform="translate(34 2146)"/>
        </clipPath>
    </defs>
</svg>
