<svg viewBox="0 0 1400 611" fill="none" xmlns="http://www.w3.org/2000/svg">
    <text fill="#183B59" xml:space="preserve" style="white-space: pre" font-family="Inter" font-size="20"
          font-weight="800" letter-spacing="0em"><tspan x="268" y="19.2727">2021</tspan></text>
    <text fill="#183B59" xml:space="preserve" style="white-space: pre" font-family="Inter" font-size="36"
          font-weight="800" letter-spacing="0em"><tspan x="268" y="80.0909">&#x417; 230&#13;&#10;</tspan></text>
    <text fill="#183B59" xml:space="preserve" style="white-space: pre" font-family="Inter" font-size="18"
          letter-spacing="0em"><tspan x="268" y="102.091">&#x426;&#x418;&#x424;&#x420;&#x41e;&#x412;&#x42b;&#x425;&#13;&#x423;&#x420;&#x41e;&#x41a;&#x41e;&#x412;</tspan></text>
    <text fill="#183B59" xml:space="preserve" style="white-space: pre" font-family="Inter" font-size="11"
          letter-spacing="0em"><tspan x="268" y="167.591">&#x418;&#x43d;&#x444;&#x43e;&#x440;&#x43c;&#x430;&#x442;&#x438;&#x43a;&#x430;&#13;&#10;</tspan>
        <tspan x="268" y="185.591">&#x411;&#x438;&#x43e;&#x43b;&#x43e;&#x433;&#x438;&#x44f;&#13;&#10;</tspan>
        <tspan x="268"
               y="203.591">&#x41c;&#x430;&#x442;&#x435;&#x43c;&#x430;&#x442;&#x438;&#x43a;&#x430;&#13;&#10;</tspan>
        <tspan x="268" y="221.591">&#x420;&#x443;&#x441;&#x441;&#x43a;&#x438;&#x439; &#x44f;&#x437;&#x44b;&#x43a;&#13;&#10;</tspan>
        <tspan x="268" y="239.591">&#x424;&#x438;&#x437;&#x438;&#x43a;&#x430;&#13;&#10;</tspan>
        <tspan x="268" y="257.591">&#x425;&#x438;&#x43c;&#x438;&#x44f;&#13;&#10;</tspan>
        <tspan x="268" y="275.591">&#x418;&#x441;&#x442;&#x43e;&#x440;&#x438;&#x44f;&#13;&#10;</tspan>
        <tspan x="268" y="293.591">&#x410;&#x43d;&#x433;&#x43b;&#x438;&#x439;&#x441;&#x43a;&#x438;&#x439; &#x44f;&#x437;&#x44b;&#x43a;</tspan></text>
    <text fill="#183B59" xml:space="preserve" style="white-space: pre" font-family="Inter" font-size="14"
          letter-spacing="0em"><tspan x="268" y="149.591">5 &#x2013; 9 &#x43a;&#x43b;&#x430;&#x441;&#x441;&#x44b;&#10;</tspan></text>
    <text fill="#183B59" xml:space="preserve" style="white-space: pre" font-family="Inter" font-size="14"
          font-weight="bold" letter-spacing="0em"><tspan x="268" y="127.591">&#x41e;&#x421;&#x41d;&#x41e;&#x412;&#x41d;&#x41e;&#x415; &#x41e;&#x411;&#x429;&#x415;&#x415; &#13;&#x41e;&#x411;&#x420;&#x410;&#x417;&#x41e;&#x412;&#x410;&#x41d;&#x418;&#x415;&#10;</tspan></text>
    <text fill="#183B59" xml:space="preserve" style="white-space: pre" font-family="Inter" font-size="20"
          font-weight="800" letter-spacing="0em"><tspan x="592" y="19.2727">2022</tspan></text>
    <text fill="#183B59" xml:space="preserve" style="white-space: pre" font-family="Inter" font-size="36"
          font-weight="800" letter-spacing="0em"><tspan x="592" y="80.0909">6 542&#10;</tspan></text>
    <text fill="#183B59" xml:space="preserve" style="white-space: pre" font-family="Inter" font-size="18"
          letter-spacing="0em"><tspan x="592" y="102.091">&#x426;&#x418;&#x424;&#x420;&#x41e;&#x412;&#x42b;&#x425;&#13;&#x423;&#x420;&#x41e;&#x41a;&#x410;</tspan></text>
    <text fill="#183B59" xml:space="preserve" style="white-space: pre" font-family="Inter" font-size="15"
          letter-spacing="0em"><tspan x="592" y="262.591">&#10;</tspan>
        <tspan x="592" y="437.591">&#10;</tspan></text>
    <text fill="#183B59" xml:space="preserve" style="white-space: pre" font-family="Inter" font-size="14"
          letter-spacing="0em"><tspan x="592" y="149.591">10 &#x2013; 11 &#x43a;&#x43b;&#x430;&#x441;&#x441;&#x44b;&#10;</tspan>
        <tspan x="592" y="306.591">5 &#x2013; 9 &#x43a;&#x43b;&#x430;&#x441;&#x441;&#x44b;&#10;</tspan>
        <tspan x="592" y="481.591">3 &#x2013; 4 &#x43a;&#x43b;&#x430;&#x441;&#x441;&#x44b;&#10;</tspan></text>
    <text fill="#183B59" xml:space="preserve" style="white-space: pre" font-family="Inter" font-size="14"
          font-weight="bold" letter-spacing="0em"><tspan x="592" y="127.591">&#x421;&#x420;&#x415;&#x414;&#x41d;&#x415;&#x415; &#x41e;&#x411;&#x429;&#x415;&#x415;&#13;&#x41e;&#x411;&#x420;&#x410;&#x417;&#x41e;&#x412;&#x410;&#x41d;&#x418;&#x415;&#10;</tspan>
        <tspan x="592" y="284.591">&#x41e;&#x421;&#x41d;&#x41e;&#x412;&#x41d;&#x41e;&#x415; &#x41e;&#x411;&#x429;&#x415;&#x415; &#13;&#x41e;&#x411;&#x420;&#x410;&#x417;&#x41e;&#x412;&#x410;&#x41d;&#x418;&#x415;&#10;</tspan>
        <tspan x="592" y="459.591">&#x41d;&#x410;&#x427;&#x410;&#x41b;&#x42c;&#x41d;&#x41e;&#x415; &#x41e;&#x411;&#x429;&#x415;&#x415; &#13;&#x41e;&#x411;&#x420;&#x410;&#x417;&#x41e;&#x412;&#x410;&#x41d;&#x418;&#x415;&#10;</tspan></text>
    <text fill="#183B59" xml:space="preserve" style="white-space: pre" font-family="Inter" font-size="11"
          letter-spacing="0em"><tspan x="592" y="167.591">&#x420;&#x443;&#x441;&#x441;&#x43a;&#x438;&#x439; &#x44f;&#x437;&#x44b;&#x43a;&#13;&#10;</tspan>
        <tspan x="592" y="185.591">&#x424;&#x438;&#x437;&#x438;&#x43a;&#x430;&#13;&#10;</tspan>
        <tspan x="592" y="203.591">&#x425;&#x438;&#x43c;&#x438;&#x44f;&#13;&#10;</tspan>
        <tspan x="592" y="221.591">&#x411;&#x438;&#x43e;&#x43b;&#x43e;&#x433;&#x438;&#x44f;&#13;&#10;</tspan>
        <tspan x="592" y="239.591">&#x41e;&#x431;&#x449;&#x435;&#x441;&#x442;&#x432;&#x43e;&#x437;&#x43d;&#x430;&#x43d;&#x438;&#x435;&#10;</tspan>
        <tspan x="592"
               y="324.591">&#x41b;&#x438;&#x442;&#x435;&#x440;&#x430;&#x442;&#x443;&#x440;&#x430;&#13;&#10;</tspan>
        <tspan x="592" y="342.591">&#x41e;&#x431;&#x449;&#x435;&#x441;&#x442;&#x432;&#x43e;&#x437;&#x43d;&#x430;&#x43d;&#x438;&#x435;&#13;&#10;</tspan>
        <tspan x="592" y="360.591">&#x413;&#x435;&#x43e;&#x433;&#x440;&#x430;&#x444;&#x438;&#x44f;&#13;&#10;</tspan>
        <tspan x="592" y="378.591">&#x41e;&#x411;&#x416;&#13;&#10;</tspan>
        <tspan x="592" y="396.591">&#x41c;&#x443;&#x437;&#x44b;&#x43a;&#x430;&#13;&#10;</tspan>
        <tspan x="592" y="414.591">&#x422;&#x435;&#x445;&#x43d;&#x43e;&#x43b;&#x43e;&#x433;&#x438;&#x44f;&#10;</tspan>
        <tspan x="592" y="499.591">&#x420;&#x443;&#x441;&#x441;&#x43a;&#x438;&#x439; &#x44f;&#x437;&#x44b;&#x43a;&#13;&#10;</tspan>
        <tspan x="592"
               y="517.591">&#x41c;&#x430;&#x442;&#x435;&#x43c;&#x430;&#x442;&#x438;&#x43a;&#x430;&#13;&#10;</tspan>
        <tspan x="592" y="535.591">&#x41e;&#x43a;&#x440;&#x443;&#x436;&#x430;&#x44e;&#x449;&#x438;&#x439; &#x43c;&#x438;&#x440;&#13;&#10;</tspan>
        <tspan x="592" y="553.591">&#x410;&#x43d;&#x433;&#x43b;&#x438;&#x439;&#x441;&#x43a;&#x438;&#x439; &#x44f;&#x437;&#x44b;&#x43a;&#13;&#10;</tspan>
        <tspan x="592" y="571.591">&#x41b;&#x438;&#x442;&#x435;&#x440;&#x430;&#x442;&#x443;&#x440;&#x43d;&#x43e;&#x435; &#x447;&#x442;&#x435;&#x43d;&#x438;&#x435;&#13;&#10;</tspan>
        <tspan x="592" y="589.591">&#x418;&#x417;&#x41e;&#13;&#10;</tspan>
        <tspan x="592" y="607.591">&#x41c;&#x443;&#x437;&#x44b;&#x43a;&#x430;</tspan></text>
    <text fill="#183B59" xml:space="preserve" style="white-space: pre" font-family="Inter" font-size="36"
          font-weight="800" letter-spacing="0em"><tspan x="909" y="77.0909">38 553&#13;&#10;</tspan></text>
    <text fill="#183B59" xml:space="preserve" style="white-space: pre" font-family="Inter" font-size="18"
          letter-spacing="0em"><tspan x="909" y="99.0909">&#x42d;&#x41b;&#x415;&#x41a;&#x422;&#x420;&#x41e;&#x41d;&#x41d;&#x42b;&#x425;&#13;&#10;</tspan>
        <tspan x="909" y="121.091">&#x41e;&#x411;&#x420;&#x410;&#x417;&#x41e;&#x412;&#x410;&#x422;&#x415;&#x41b;&#x42c;&#x41d;&#x42b;&#x425;&#13;&#10;</tspan>
        <tspan x="909" y="143.091">&#x41c;&#x410;&#x422;&#x415;&#x420;&#x418;&#x410;&#x41b;&#x410;</tspan></text>
    <text fill="#183B59" xml:space="preserve" style="white-space: pre" font-family="Inter" font-size="12"
          font-weight="bold" letter-spacing="0em"><tspan x="909" y="166.864">16421&#10;</tspan>
        <tspan x="909" y="191.864">6066&#10;</tspan>
        <tspan x="909" y="216.864">5948&#10;</tspan>
        <tspan x="909" y="241.864">3289&#10;</tspan>
        <tspan x="909" y="281.864">1803&#10;</tspan>
        <tspan x="909" y="336.864">1414&#10;</tspan>
        <tspan x="909" y="361.864">1292&#10;</tspan>
        <tspan x="909" y="386.864">1068&#10;</tspan>
        <tspan x="909" y="411.864">927&#10;</tspan>
        <tspan x="909" y="436.864">636&#10;</tspan>
        <tspan x="909" y="461.864">426&#10;</tspan>
        <tspan x="909" y="486.864">180</tspan></text>
    <text fill="#183B59" xml:space="preserve" style="white-space: pre" font-family="Inter" font-size="11"
          letter-spacing="0em"><tspan x="961" y="166.5">&#x434;&#x438;&#x430;&#x433;&#x43d;&#x43e;&#x441;&#x442;&#x438;&#x43a;&#x430;&#10;</tspan>
        <tspan x="961" y="191.5">&#x433;&#x430;&#x43b;&#x435;&#x440;&#x435;&#x439; &#x438;&#x437;&#x43e;&#x431;&#x440;&#x430;&#x436;&#x435;&#x43d;&#x438;&#x439;&#10;</tspan>
        <tspan x="961" y="216.5">&#x43e;&#x431;&#x443;&#x447;&#x430;&#x44e;&#x449;&#x438;&#x445; &#x432;&#x438;&#x434;&#x435;&#x43e;&#x443;&#x440;&#x43e;&#x43a;&#x43e;&#x432;&#10;</tspan>
        <tspan x="961" y="241.5">&#x43a;&#x435;&#x439;&#x441;&#x43e;&#x432; &#x43f;&#x43e; &#x440;&#x430;&#x431;&#x43e;&#x442;&#x435; &#x441; </tspan>
        <tspan x="961"
               y="256.5">&#x438;&#x43d;&#x444;&#x43e;&#x440;&#x43c;&#x430;&#x446;&#x438;&#x435;&#x439;&#10;</tspan>
        <tspan x="961"
               y="281.5">&#x434;&#x438;&#x43d;&#x430;&#x43c;&#x438;&#x447;&#x435;&#x441;&#x43a;&#x438;&#x445; </tspan>
        <tspan x="961"
               y="296.5">&#x438;&#x43d;&#x444;&#x43e;&#x433;&#x440;&#x430;&#x444;&#x438;&#x43a;&#x438;,                           </tspan>
        <tspan x="961" y="311.5">3D-&#x433;&#x440;&#x430;&#x444;&#x438;&#x43a;&#x438;&#10;</tspan>
        <tspan x="961" y="336.5">&#x442;&#x435;&#x441;&#x442;&#x430; &#x432; &#x444;&#x43e;&#x440;&#x43c;&#x430;&#x442;&#x435; &#x413;&#x418;&#x410;&#10;</tspan>
        <tspan x="961" y="361.5">&#x447;&#x435;&#x43a;-&#x43b;&#x438;&#x441;&#x442;&#x430;&#10;</tspan>
        <tspan x="961"
               y="386.5">&#x430;&#x443;&#x434;&#x438;&#x43e;&#x444;&#x430;&#x439;&#x43b;&#x43e;&#x432;&#10;</tspan>
        <tspan x="961" y="411.5">&#x43f;&#x440;&#x43e;&#x435;&#x43a;&#x442;&#x43e;&#x432;&#10;</tspan>
        <tspan x="961" y="436.5">&#x43f;&#x440;&#x430;&#x43a;&#x442;&#x438;&#x447;&#x435;&#x441;&#x43a;&#x438;&#x445; &#x440;&#x430;&#x431;&#x43e;&#x442;&#10;</tspan>
        <tspan x="961" y="461.5">&#x430;&#x43d;&#x438;&#x43c;&#x430;&#x446;&#x438;&#x439;&#10;</tspan>
        <tspan x="961" y="486.5">&#x43c;&#x438;&#x43d;&#x438;-&#x438;&#x433;&#x440;</tspan></text>
    <text fill="#183B59" xml:space="preserve" style="white-space: pre" font-family="Inter" font-size="20"
          font-weight="800" letter-spacing="0em"><tspan x="1152" y="19.2727">2023</tspan></text>
    <path d="M1130.4 34.9348H1317.94" stroke="url(#paint0_linear_262_370)" stroke-width="7" stroke-linecap="round"
          stroke-linejoin="round" stroke-dasharray="13 13"/>
    <path d="M1311.45 43.4606L1315.09 34.9348L1311.45 26.4089L1331.65 34.9348L1311.45 43.4606Z"
          fill="url(#paint1_linear_262_370)"/>
    <path d="M0.1875 34.9348H1130.4" stroke="url(#paint2_linear_262_370)" stroke-width="7" stroke-miterlimit="10"/>
    <path
        d="M1130.4 45.5008C1136.24 45.5008 1140.97 40.7702 1140.97 34.9346C1140.97 29.0991 1136.24 24.3684 1130.4 24.3684C1124.56 24.3684 1119.82 29.0991 1119.82 34.9346C1119.82 40.7702 1124.56 45.5008 1130.4 45.5008Z"
        fill="white" stroke="url(#paint3_linear_262_370)" stroke-width="7" stroke-miterlimit="10"/>
    <path d="M244 36L244 297.003" stroke="url(#paint4_linear_262_370)" stroke-miterlimit="10"/>
    <path
        d="M243.875 45.5008C249.714 45.5008 254.448 40.7702 254.448 34.9346C254.448 29.0991 249.714 24.3684 243.875 24.3684C238.036 24.3684 233.302 29.0991 233.302 34.9346C233.302 40.7702 238.036 45.5008 243.875 45.5008Z"
        fill="white" stroke="url(#paint5_linear_262_370)" stroke-width="7" stroke-miterlimit="10"/>
    <path d="M561 33L561 611" stroke="url(#paint6_linear_262_370)" stroke-miterlimit="10"/>
    <path
        d="M560.625 45.5008C566.464 45.5008 571.198 40.7702 571.198 34.9346C571.198 29.0991 566.464 24.3684 560.625 24.3684C554.786 24.3684 550.052 29.0991 550.052 34.9346C550.052 40.7702 554.786 45.5008 560.625 45.5008Z"
        fill="white" stroke="url(#paint7_linear_262_370)" stroke-width="7" stroke-miterlimit="10"/>
    <path
        d="M1180.05 494.382C1180.05 490.229 1177.14 488.48 1173.49 490.593L1111.87 526.081C1110.85 526.664 1110.05 528.048 1110.05 529.214C1110.05 530.38 1110.85 530.817 1111.87 530.235L1173.49 494.747C1175.09 493.799 1176.48 494.601 1176.48 496.496V503.418C1177.65 503.345 1178.89 503.345 1180.12 503.345L1180.05 494.382Z"
        fill="#D3EBFF"/>
    <path
        d="M1111.8 542.622L1173.42 520.178C1177.06 518.065 1179.98 512.964 1179.98 508.811V503.272C1178.74 503.272 1177.57 503.272 1176.33 503.345V510.851C1176.33 512.746 1175.02 515.005 1173.34 515.952L1111.73 538.396C1110.71 538.979 1109.91 540.363 1109.91 541.529C1109.98 542.768 1110.78 543.205 1111.8 542.622Z"
        fill="#D3EBFF"/>
    <path
        d="M1110.42 542.696L1185.45 586.126L1248.96 548.234L1253.99 540.728L1253.48 543.424L1252.09 536.429L1134.26 540.947L1113.48 539.562L1110.42 542.696Z"
        fill="#D3EBFF"/>
    <path d="M1112.9 529.651V538.833L1185.37 580.806L1187.34 571.989L1112.9 529.651Z" fill="white"/>
    <path d="M1253.04 533.441L1178.16 490.156L1110.64 529.433L1110.49 530.38L1185.52 573.738L1253.04 533.441Z"
          fill="#D3EBFF"/>
    <path
        d="M1229.2 555.666L1246.77 545.246C1248.23 544.225 1249.4 542.112 1249.4 540.363V538.979C1249.4 537.886 1248.96 537.157 1248.23 536.938L1213.59 556.176L1185.38 571.406V580.734L1229.2 555.666Z"
        fill="#A3C7DF"/>
    <path
        d="M1187.93 572.281L1113.55 529.287L1111.95 528.34L1110.49 527.538C1110.2 528.048 1109.98 528.704 1109.98 529.214C1109.98 529.797 1110.2 530.161 1110.49 530.38L1185.45 573.738L1187.93 572.281Z"
        fill="#D3EBFF"/>
    <path d="M1184.5 585.543L1185.45 586.126L1185.59 585.762L1185.01 585.325L1184.5 585.543Z" fill="white"/>
    <path d="M1184.5 573.155L1185.45 573.738L1185.23 573.228L1184.5 573.155Z" fill="white"/>
    <path
        d="M1186.76 569.439L1248.38 533.951C1252.02 531.838 1254.94 533.587 1254.94 537.74V539.125C1254.94 543.278 1251.95 548.379 1248.38 550.493L1186.76 585.98C1185.74 586.563 1184.94 586.053 1184.94 584.96C1184.94 583.867 1185.74 582.41 1186.76 581.827L1248.38 546.339C1249.98 545.392 1251.36 543.133 1251.36 541.238V539.853C1251.36 537.959 1250.05 537.23 1248.38 538.105L1186.76 573.592C1185.74 574.175 1184.94 573.665 1184.94 572.572C1185.01 571.406 1185.81 570.022 1186.76 569.439Z"
        fill="#8CB5D7"/>
    <path
        d="M1184.94 584.96C1184.94 583.794 1185.74 582.41 1186.76 581.827L1248.37 546.339C1249.98 545.392 1251.36 543.133 1251.36 541.238V539.853C1251.36 538.615 1250.78 537.886 1249.91 537.74C1250.2 538.105 1250.34 538.615 1250.34 539.27V540.655C1250.34 542.55 1249.03 544.809 1247.35 545.756L1185.74 581.244C1184.72 581.827 1183.92 583.211 1183.92 584.377C1183.92 585.252 1184.35 585.689 1185.01 585.689C1185.01 585.47 1184.94 585.252 1184.94 584.96Z"
        fill="white"/>
    <path
        d="M1185.01 572.572C1185.01 571.406 1185.81 570.022 1186.83 569.439L1248.45 533.951C1249.98 533.076 1251.44 532.858 1252.6 533.295C1251.36 532.275 1249.54 532.202 1247.5 533.441L1185.89 568.929C1184.86 569.512 1184.06 570.896 1184.06 572.062C1184.06 572.936 1184.5 573.374 1185.16 573.374C1185.01 573.082 1185.01 572.864 1185.01 572.572Z"
        fill="white"/>
    <path
        d="M1216.73 504.802C1213.45 506.697 1213.45 509.758 1216.73 511.725L1272.73 544.007C1273.6 544.517 1275.14 544.517 1276.01 544.007C1276.89 543.497 1276.89 542.622 1276.01 542.112L1220.01 509.83C1218.55 508.956 1218.55 507.572 1220.01 506.697L1225.41 503.564C1224.82 502.689 1224.24 501.742 1223.73 500.722L1216.73 504.802Z"
        fill="#D3EBFF"/>
    <path
        d="M1295.99 530.526L1239.99 498.244C1236.71 496.35 1231.31 496.35 1228.03 498.244L1223.66 500.722C1224.17 501.669 1224.75 502.616 1225.33 503.564L1231.24 500.139C1232.7 499.264 1235.1 499.264 1236.64 500.139L1292.64 532.42C1293.51 532.931 1295.04 532.931 1295.92 532.42C1296.86 531.91 1296.86 531.109 1295.99 530.526Z"
        fill="#8CB5D7"/>
    <path
        d="M1296.65 531.546V452.919L1238.02 420.273L1229.78 419.69L1221.83 424.864L1217.02 429.09L1274.11 519.595L1292.78 530.599L1296.65 531.546Z"
        fill="#8CB5D7"/>
    <path d="M1274.92 541.529L1292.49 531.4V455.396L1274.41 463.777L1274.92 541.529Z" fill="#A3C7DF"/>
    <path d="M1214.25 429.673V508.228L1275.79 543.424L1276.59 543.06V464.433L1214.25 429.673Z" fill="#D3EBFF"/>
    <path
        d="M1248.89 430.329L1236.64 423.334C1235.18 422.678 1232.99 422.678 1231.6 423.479L1220.23 430.038C1219.35 430.548 1218.99 431.277 1219.14 431.932L1250.05 450.369L1274.92 465.598L1292.49 455.397L1248.89 430.329Z"
        fill="white"/>
    <path
        d="M1274.41 463.194V541.238V542.914V544.444C1274.99 544.444 1275.5 544.299 1275.94 544.08C1276.37 543.788 1276.59 543.497 1276.59 543.133V464.433L1274.41 463.194Z"
        fill="#8CB5D7"/>
    <path d="M1296.65 453.866V452.919H1296.35L1296.21 453.575L1296.65 453.866Z" fill="white"/>
    <path d="M1276.59 465.453V464.433L1276.3 464.87L1276.59 465.453Z" fill="white"/>
    <path
        d="M1272.66 465.38L1216.66 433.098C1213.37 431.204 1213.37 428.143 1216.66 426.176L1228.03 419.617C1231.31 417.723 1236.71 417.723 1239.99 419.617L1295.99 451.899C1296.86 452.409 1296.86 453.283 1295.99 453.793C1295.11 454.304 1293.58 454.304 1292.71 453.793L1236.71 421.512C1235.25 420.637 1232.84 420.637 1231.31 421.512L1219.94 428.07C1218.48 428.945 1218.48 430.329 1219.94 431.204L1275.94 463.485C1276.81 463.995 1276.81 464.87 1275.94 465.38C1275.06 465.89 1273.6 465.89 1272.66 465.38Z"
        fill="#D3EBFF"/>
    <path
        d="M1295.99 453.793C1295.11 454.303 1293.58 454.303 1292.71 453.793L1236.71 421.512C1235.25 420.637 1232.84 420.637 1231.31 421.512L1219.94 428.07C1218.99 428.653 1218.62 429.455 1218.92 430.11C1219.06 429.746 1219.43 429.382 1219.94 429.09L1231.31 422.532C1232.77 421.658 1235.18 421.658 1236.71 422.532L1292.71 454.814C1293.58 455.324 1295.11 455.324 1295.99 454.814C1296.65 454.449 1296.86 453.866 1296.5 453.356C1296.35 453.502 1296.21 453.648 1295.99 453.793Z"
        fill="white"/>
    <path
        d="M1275.94 465.38C1275.06 465.89 1273.53 465.89 1272.66 465.38L1216.66 433.098C1215.27 432.297 1214.47 431.277 1214.25 430.184C1213.96 431.568 1214.76 433.098 1216.66 434.119L1272.66 466.4C1273.53 466.91 1275.06 466.91 1275.94 466.4C1276.59 466.036 1276.81 465.453 1276.45 464.943C1276.3 465.088 1276.16 465.234 1275.94 465.38Z"
        fill="white"/>
    <path
        d="M1180.05 474.489C1180.05 470.335 1177.14 468.586 1173.49 470.699L1111.87 506.187C1110.85 506.77 1110.05 508.155 1110.05 509.321C1110.05 510.487 1110.85 510.924 1111.87 510.341L1173.49 474.853C1175.09 473.906 1176.48 474.707 1176.48 476.602V483.525C1177.65 483.452 1178.89 483.452 1180.12 483.452L1180.05 474.489Z"
        fill="#B1E1EC"/>
    <path
        d="M1111.8 522.729L1173.42 500.285C1177.06 498.172 1179.98 493.071 1179.98 488.917V483.379C1178.74 483.379 1177.57 483.379 1176.33 483.452V490.957C1176.33 492.852 1175.02 495.111 1173.34 496.058L1111.73 518.502C1110.71 519.085 1109.91 520.47 1109.91 521.636C1109.98 522.802 1110.78 523.312 1111.8 522.729Z"
        fill="#B1E1EC"/>
    <path
        d="M1110.42 522.802L1185.45 566.16L1248.96 528.34L1253.99 520.834L1253.48 523.458L1252.09 516.535L1134.26 520.98L1113.48 519.669L1110.42 522.802Z"
        fill="#B1E1EC"/>
    <path d="M1112.9 509.758V518.94L1185.37 560.84L1187.34 552.096L1112.9 509.758Z" fill="white"/>
    <path d="M1253.04 513.547L1178.16 470.262L1110.64 509.466L1110.49 510.487L1185.52 553.844L1253.04 513.547Z"
          fill="#B1E1EC"/>
    <path
        d="M1229.2 535.773L1246.77 525.352C1248.23 524.332 1249.4 522.219 1249.4 520.47V519.085C1249.4 517.992 1248.96 517.264 1248.23 517.045L1213.59 536.283L1185.38 551.513V560.84L1229.2 535.773Z"
        fill="#A3C7DF"/>
    <path
        d="M1187.93 552.387L1113.55 509.393L1111.95 508.446L1110.49 507.645C1110.2 508.155 1109.98 508.81 1109.98 509.321C1109.98 509.904 1110.2 510.268 1110.49 510.486L1185.45 553.844L1187.93 552.387Z"
        fill="#B1E1EC"/>
    <path d="M1184.5 565.65L1185.45 566.16L1185.59 565.868L1185.01 565.431L1184.5 565.65Z" fill="white"/>
    <path d="M1184.5 553.262L1185.45 553.772L1185.23 553.262H1184.5Z" fill="white"/>
    <path
        d="M1186.76 549.545L1248.38 514.057C1252.02 511.944 1254.94 513.693 1254.94 517.847V519.231C1254.94 523.385 1251.95 528.486 1248.38 530.599L1186.76 566.087C1185.74 566.67 1184.94 566.16 1184.94 565.067C1184.94 563.901 1185.74 562.516 1186.76 561.933L1248.38 526.445C1249.98 525.498 1251.36 523.239 1251.36 521.344V519.96C1251.36 518.065 1250.05 517.337 1248.38 518.211L1186.76 553.699C1185.74 554.282 1184.94 553.772 1184.94 552.679C1185.01 551.513 1185.81 550.128 1186.76 549.545Z"
        fill="#8CB5D7"/>
    <path
        d="M1184.94 565.067C1184.94 563.901 1185.74 562.516 1186.76 561.933L1248.37 526.445C1249.98 525.498 1251.36 523.239 1251.36 521.344V519.96C1251.36 518.721 1250.78 517.992 1249.91 517.847C1250.2 518.211 1250.34 518.721 1250.34 519.377V520.761C1250.34 522.656 1249.03 524.915 1247.35 525.862L1185.74 561.35C1184.72 561.933 1183.92 563.318 1183.92 564.484C1183.92 565.358 1184.35 565.795 1185.01 565.795C1185.01 565.577 1184.94 565.285 1184.94 565.067Z"
        fill="white"/>
    <path
        d="M1185.01 552.679C1185.01 551.513 1185.81 550.128 1186.83 549.545L1248.45 514.057C1249.98 513.183 1251.44 512.964 1252.6 513.401C1251.36 512.381 1249.54 512.308 1247.5 513.547L1185.89 549.035C1184.86 549.618 1184.06 551.003 1184.06 552.168C1184.06 553.043 1184.5 553.48 1185.16 553.48C1185.01 553.189 1185.01 552.897 1185.01 552.679Z"
        fill="white"/>
    <path
        d="M1180.05 454.595C1180.05 450.442 1177.14 448.693 1173.49 450.806L1111.87 486.294C1110.85 486.877 1110.05 488.261 1110.05 489.427C1110.05 490.593 1110.85 491.03 1111.87 490.447L1173.49 454.96C1175.09 454.012 1176.48 454.814 1176.48 456.708V463.631C1177.65 463.558 1178.89 463.558 1180.12 463.558L1180.05 454.595Z"
        fill="#D3EBFF"/>
    <path
        d="M1111.8 502.835L1173.42 480.391C1177.06 478.278 1179.98 473.177 1179.98 469.024V463.485C1178.74 463.485 1177.57 463.485 1176.33 463.558V471.064C1176.33 472.959 1175.02 475.217 1173.34 476.165L1111.73 498.609C1110.71 499.192 1109.91 500.576 1109.91 501.742C1109.98 502.908 1110.78 503.418 1111.8 502.835Z"
        fill="#D3EBFF"/>
    <path
        d="M1110.42 502.908L1185.45 546.266L1248.96 508.447L1253.99 500.941L1253.48 503.564L1252.09 496.642L1134.26 501.087L1113.48 499.775L1110.42 502.908Z"
        fill="#D3EBFF"/>
    <path d="M1112.9 489.792V499.046L1185.37 540.947L1187.34 532.129L1112.9 489.792Z" fill="white"/>
    <path d="M1253.04 493.654L1178.16 450.369L1110.64 489.573L1110.49 490.52L1185.52 533.878L1253.04 493.654Z"
          fill="#D3EBFF"/>
    <path
        d="M1229.2 515.879L1246.77 505.459C1248.23 504.438 1249.4 502.325 1249.4 500.576V499.192C1249.4 498.099 1248.96 497.37 1248.23 497.151L1213.59 516.389L1185.38 531.619V540.946L1229.2 515.879Z"
        fill="#A3C7DF"/>
    <path
        d="M1187.93 532.493L1113.55 489.5L1111.95 488.553L1110.49 487.751C1110.2 488.261 1109.98 488.917 1109.98 489.427C1109.98 490.01 1110.2 490.374 1110.49 490.593L1185.45 533.951L1187.93 532.493Z"
        fill="#D3EBFF"/>
    <path d="M1184.5 545.756L1185.45 546.266L1185.59 545.975L1185.01 545.538L1184.5 545.756Z" fill="white"/>
    <path d="M1184.5 533.368L1185.45 533.878L1185.23 533.368H1184.5Z" fill="white"/>
    <path
        d="M1186.76 529.652L1248.38 494.164C1252.02 492.051 1254.94 493.799 1254.94 497.953V499.338C1254.94 503.491 1251.95 508.592 1248.38 510.705L1186.76 546.193C1185.74 546.776 1184.94 546.266 1184.94 545.173C1184.94 544.08 1185.74 542.623 1186.76 542.04L1248.38 506.552C1249.98 505.604 1251.36 503.345 1251.36 501.451V500.066C1251.36 498.172 1250.05 497.443 1248.38 498.317L1186.76 533.805C1185.74 534.388 1184.94 533.878 1184.94 532.785C1185.01 531.619 1185.81 530.162 1186.76 529.652Z"
        fill="#8CB5D7"/>
    <path
        d="M1184.94 545.1C1184.94 543.934 1185.74 542.55 1186.76 541.967L1248.37 506.479C1249.98 505.532 1251.36 503.273 1251.36 501.378V499.994C1251.36 498.755 1250.78 498.026 1249.91 497.88C1250.2 498.245 1250.34 498.755 1250.34 499.411V500.795C1250.34 502.69 1249.03 504.949 1247.35 505.896L1185.74 541.384C1184.72 541.967 1183.92 543.351 1183.92 544.517C1183.92 545.392 1184.35 545.829 1185.01 545.829C1185.01 545.61 1184.94 545.392 1184.94 545.1Z"
        fill="white"/>
    <path
        d="M1185.01 532.712C1185.01 531.546 1185.81 530.162 1186.83 529.579L1248.45 494.091C1249.98 493.216 1251.44 492.998 1252.6 493.435C1251.36 492.415 1249.54 492.342 1247.5 493.581L1185.89 529.069C1184.86 529.652 1184.06 531.036 1184.06 532.202C1184.06 533.077 1184.5 533.514 1185.16 533.514C1185.01 533.222 1185.01 533.004 1185.01 532.712Z"
        fill="white"/>
    <path
        d="M1221.69 107.368C1221.69 103.214 1218.77 101.465 1215.12 103.579L1153.51 139.066C1152.49 139.649 1151.69 141.034 1151.69 142.2C1151.69 143.366 1152.49 143.803 1153.51 143.22L1215.12 107.732C1216.73 106.785 1218.11 107.586 1218.11 109.481V116.404C1219.28 116.331 1220.52 116.331 1221.76 116.331L1221.69 107.368Z"
        fill="#D3EBFF"/>
    <path
        d="M1153.44 155.608L1215.05 133.164C1218.7 131.051 1221.61 125.95 1221.61 121.796V116.258C1220.37 116.258 1219.21 116.258 1217.97 116.331V123.837C1217.97 125.731 1216.66 127.99 1214.98 128.937L1153.36 151.382C1152.34 151.965 1151.54 153.349 1151.54 154.515C1151.61 155.681 1152.42 156.191 1153.44 155.608Z"
        fill="#D3EBFF"/>
    <path
        d="M1152.05 155.681L1227.08 199.039L1290.59 161.219L1295.62 153.714L1295.11 156.337L1293.73 149.341L1175.9 153.859L1155.11 152.548L1152.05 155.681Z"
        fill="#D3EBFF"/>
    <path d="M1154.53 142.564V151.819L1227.01 193.719L1228.98 184.902L1154.53 142.564Z" fill="white"/>
    <path d="M1294.68 146.426L1219.79 103.141L1152.27 142.346L1152.12 143.293L1227.16 186.651L1294.68 146.426Z"
          fill="#D3EBFF"/>
    <path
        d="M1270.83 168.652L1288.41 158.231C1289.86 157.211 1291.03 155.098 1291.03 153.349V151.964C1291.03 150.871 1290.59 150.143 1289.86 149.924L1255.23 169.162L1227.01 184.392V193.719L1270.83 168.652Z"
        fill="#A3C7DF"/>
    <path
        d="M1229.56 185.266L1155.19 142.273L1153.58 141.326L1152.12 140.524C1151.83 141.034 1151.61 141.69 1151.61 142.2C1151.61 142.783 1151.83 143.147 1152.12 143.366L1227.08 186.724L1229.56 185.266Z"
        fill="#D3EBFF"/>
    <path d="M1226.14 198.529L1227.08 199.039L1227.23 198.747L1226.65 198.31L1226.14 198.529Z" fill="white"/>
    <path d="M1226.14 186.068L1227.08 186.651L1226.86 186.141L1226.14 186.068Z" fill="white"/>
    <path
        d="M1228.4 182.351L1290.01 146.864C1293.66 144.75 1296.57 146.499 1296.57 150.653V152.037C1296.57 156.191 1293.58 161.292 1290.01 163.405L1228.4 198.893C1227.37 199.476 1226.57 198.966 1226.57 197.873C1226.57 196.78 1227.37 195.322 1228.4 194.739L1290.01 159.251C1291.61 158.304 1293 156.045 1293 154.151V152.766C1293 150.871 1291.69 150.143 1290.01 151.017L1228.4 186.505C1227.37 187.088 1226.57 186.578 1226.57 185.485C1226.65 184.392 1227.45 182.934 1228.4 182.351Z"
        fill="#8CB5D7"/>
    <path
        d="M1226.57 197.873C1226.57 196.707 1227.37 195.322 1228.4 194.739L1290.01 159.252C1291.61 158.304 1293 156.045 1293 154.151V152.766C1293 151.527 1292.42 150.799 1291.54 150.653C1291.83 151.017 1291.98 151.527 1291.98 152.183V153.568C1291.98 155.462 1290.67 157.721 1288.99 158.669L1227.37 194.156C1226.35 194.739 1225.55 196.124 1225.55 197.29C1225.55 198.164 1225.99 198.602 1226.65 198.602C1226.65 198.383 1226.57 198.164 1226.57 197.873Z"
        fill="white"/>
    <path
        d="M1226.65 185.485C1226.65 184.319 1227.45 182.934 1228.47 182.352L1290.08 146.864C1291.61 145.989 1293.07 145.771 1294.24 146.208C1293 145.188 1291.18 145.115 1289.14 146.354L1227.52 181.841C1226.5 182.424 1225.7 183.809 1225.7 184.975C1225.7 185.849 1226.14 186.287 1226.79 186.287C1226.65 185.995 1226.65 185.776 1226.65 185.485Z"
        fill="white"/>
    <path
        d="M1221.69 89.7334C1221.69 85.5797 1218.77 83.8308 1215.12 85.9441L1153.51 121.432C1152.49 122.015 1151.69 123.399 1151.69 124.565C1151.69 125.731 1152.49 126.169 1153.51 125.586L1215.12 90.0977C1216.73 89.1504 1218.11 89.952 1218.11 91.8466V98.7693C1219.28 98.6964 1220.52 98.6964 1221.76 98.6964L1221.69 89.7334Z"
        fill="#B1E1EC"/>
    <path
        d="M1153.44 137.974L1215.05 115.529C1218.7 113.416 1221.61 108.315 1221.61 104.162V98.6235C1220.37 98.6235 1219.21 98.6235 1217.97 98.6964V106.202C1217.97 108.097 1216.66 110.356 1214.98 111.303L1153.36 133.747C1152.34 134.33 1151.54 135.715 1151.54 136.88C1151.61 138.119 1152.42 138.556 1153.44 137.974Z"
        fill="#B1E1EC"/>
    <path
        d="M1152.05 138.119L1227.08 181.477L1290.59 143.585L1295.62 136.079L1295.11 138.775L1293.73 131.78L1175.9 136.298L1155.11 134.986L1152.05 138.119Z"
        fill="#B1E1EC"/>
    <path d="M1154.53 125.003V134.257L1227.01 176.158L1228.98 167.34L1154.53 125.003Z" fill="white"/>
    <path d="M1294.68 128.792L1219.79 85.5068L1152.27 124.784L1152.12 125.731L1227.16 169.089L1294.68 128.792Z"
          fill="#B1E1EC"/>
    <path
        d="M1270.83 151.09L1288.41 140.67C1289.86 139.65 1291.03 137.536 1291.03 135.787V134.403C1291.03 133.31 1290.59 132.581 1289.86 132.363L1255.23 151.6L1227.01 166.83V176.158L1270.83 151.09Z"
        fill="#A3C7DF"/>
    <path
        d="M1229.56 167.632L1155.19 124.638L1153.58 123.691L1152.12 122.889C1151.83 123.399 1151.61 124.055 1151.61 124.565C1151.61 125.148 1151.83 125.513 1152.12 125.731L1227.08 169.089L1229.56 167.632Z"
        fill="#B1E1EC"/>
    <path d="M1226.14 180.894L1227.08 181.477L1227.23 181.186L1226.65 180.676L1226.14 180.894Z" fill="white"/>
    <path d="M1226.14 168.506L1227.08 169.089L1226.86 168.579L1226.14 168.506Z" fill="white"/>
    <path
        d="M1228.4 164.79L1290.08 129.302C1293.73 127.189 1296.65 128.938 1296.65 133.091V134.476C1296.65 138.629 1293.66 143.73 1290.08 145.844L1228.47 181.331C1227.45 181.914 1226.65 181.404 1226.65 180.311C1226.65 179.145 1227.45 177.761 1228.47 177.178L1290.08 141.69C1291.69 140.743 1293.07 138.484 1293.07 136.589V135.204C1293.07 133.31 1291.76 132.581 1290.08 133.456L1228.47 168.943C1227.45 169.526 1226.65 169.016 1226.65 167.923C1226.65 166.83 1227.45 165.373 1228.4 164.79Z"
        fill="#8CB5D7"/>
    <path
        d="M1226.57 180.311C1226.57 179.145 1227.38 177.761 1228.4 177.178L1290.08 141.69C1291.69 140.742 1293.07 138.483 1293.07 136.589V135.204C1293.07 133.966 1292.49 133.237 1291.61 133.091C1291.91 133.455 1292.05 133.965 1292.05 134.621V136.006C1292.05 137.901 1290.74 140.159 1289.06 141.107L1227.45 176.595C1226.43 177.178 1225.62 178.562 1225.62 179.728C1225.62 180.603 1226.06 181.113 1226.72 181.04C1226.65 180.821 1226.57 180.603 1226.57 180.311Z"
        fill="white"/>
    <path
        d="M1226.65 167.923C1226.65 166.757 1227.45 165.373 1228.47 164.79L1290.08 129.302C1291.61 128.427 1293.07 128.209 1294.24 128.646C1293 127.626 1291.18 127.553 1289.14 128.792L1227.52 164.28C1226.5 164.863 1225.7 166.247 1225.7 167.413C1225.7 168.288 1226.14 168.725 1226.79 168.725C1226.65 168.433 1226.65 168.215 1226.65 167.923Z"
        fill="white"/>
    <path
        d="M413.042 419.836C413.042 415.682 410.125 413.933 406.479 416.047L344.865 451.535C343.844 452.117 343.042 453.502 343.042 454.668C343.042 455.834 343.844 456.271 344.865 455.688L406.479 420.2C408.083 419.253 409.469 420.054 409.469 421.949V428.872C410.635 428.799 411.875 428.799 413.115 428.799L413.042 419.836Z"
        fill="#D3EBFF"/>
    <path
        d="M344.792 468.076L406.406 445.632C410.052 443.519 412.969 438.418 412.969 434.264V428.726C411.729 428.726 410.562 428.726 409.323 428.799V436.305C409.323 438.199 408.01 440.458 406.333 441.405L344.719 463.85C343.698 464.433 342.896 465.817 342.896 466.983C342.969 468.222 343.771 468.659 344.792 468.076Z"
        fill="#D3EBFF"/>
    <path
        d="M343.406 468.222L418.438 511.58L481.948 473.687L486.979 466.182L486.469 468.878L485.083 461.882L367.25 466.4L346.469 465.016L343.406 468.222Z"
        fill="#D3EBFF"/>
    <path d="M345.885 455.105V464.36L418.365 506.26L420.333 497.443L345.885 455.105Z" fill="white"/>
    <path d="M486.031 458.894L411.146 415.609L343.625 454.886L343.479 455.834L418.51 499.192L486.031 458.894Z"
          fill="#D3EBFF"/>
    <path
        d="M462.187 481.193L479.76 470.772C481.219 469.752 482.385 467.639 482.385 465.89V464.505C482.385 463.412 481.948 462.683 481.219 462.465L446.583 481.703L418.365 496.933V506.26L462.187 481.193Z"
        fill="#A3C7DF"/>
    <path
        d="M420.917 497.734L346.542 454.741L344.937 453.793L343.479 452.992C343.187 453.502 342.969 454.158 342.969 454.668C342.969 455.251 343.187 455.615 343.479 455.834L418.437 499.191L420.917 497.734Z"
        fill="#D3EBFF"/>
    <path d="M417.49 510.997L418.438 511.58L418.583 511.288L418 510.778L417.49 510.997Z" fill="white"/>
    <path d="M417.49 498.609L418.51 499.192L418.219 498.682L417.49 498.609Z" fill="white"/>
    <path
        d="M419.75 494.892L481.438 459.405C485.083 457.291 488 459.04 488 463.194V464.578C488 468.732 485.01 473.833 481.438 475.946L419.823 511.434C418.802 512.017 418 511.507 418 510.414C418 509.248 418.802 507.863 419.823 507.28L481.438 471.792C483.042 470.845 484.427 468.586 484.427 466.692V465.307C484.427 463.412 483.115 462.684 481.438 463.558L419.823 499.046C418.802 499.629 418 499.119 418 498.026C418 496.86 418.802 495.475 419.75 494.892Z"
        fill="#8CB5D7"/>
    <path
        d="M417.927 510.414C417.927 509.248 418.729 507.863 419.75 507.28L481.438 471.793C483.042 470.845 484.427 468.586 484.427 466.692V465.307C484.427 464.068 483.844 463.34 482.969 463.194C483.26 463.558 483.406 464.068 483.406 464.724V466.109C483.406 468.003 482.094 470.262 480.417 471.21L418.802 506.697C417.781 507.28 416.979 508.665 416.979 509.831C416.979 510.705 417.417 511.143 418.073 511.143C418 510.924 417.927 510.705 417.927 510.414Z"
        fill="white"/>
    <path
        d="M418 498.026C418 496.86 418.802 495.475 419.823 494.892L481.437 459.404C482.969 458.53 484.427 458.311 485.594 458.749C484.354 457.728 482.531 457.656 480.49 458.894L418.875 494.382C417.854 494.965 417.052 496.35 417.052 497.516C417.052 498.39 417.49 498.827 418.146 498.827C418 498.536 418 498.317 418 498.026Z"
        fill="white"/>
    <path
        d="M291.271 465.744C287.99 467.639 287.99 470.7 291.271 472.667L347.271 504.949C348.146 505.459 349.677 505.459 350.552 504.949C351.427 504.438 351.427 503.564 350.552 503.054L294.552 470.772C293.094 469.898 293.094 468.513 294.552 467.639L299.948 464.506C299.365 463.631 298.781 462.684 298.271 461.664L291.271 465.744Z"
        fill="#B1E1EC"/>
    <path
        d="M370.531 491.468L314.531 459.186C311.25 457.291 305.854 457.291 302.573 459.186L298.198 461.664C298.708 462.611 299.292 463.558 299.875 464.506L305.781 461.081C307.24 460.206 309.646 460.206 311.177 461.081L367.177 493.362C368.052 493.872 369.583 493.872 370.458 493.362C371.406 492.852 371.406 491.978 370.531 491.468Z"
        fill="#63B2D5"/>
    <path
        d="M371.187 492.488V413.861L312.562 381.142L304.323 380.632L296.448 385.733L291.562 390.032L348.656 480.537L367.323 491.541L371.187 492.488Z"
        fill="#8CB5D7"/>
    <path d="M349.531 502.398L367.031 492.342V416.338L348.948 424.718L349.531 502.398Z" fill="#A3C7DF"/>
    <path d="M288.792 390.615V469.096L350.333 504.293L351.208 504.001V425.374L288.792 390.615Z" fill="#B1E1EC"/>
    <path
        d="M323.427 391.271L311.177 384.275C309.719 383.62 307.531 383.619 306.146 384.421L294.771 390.979C293.896 391.489 293.531 392.218 293.677 392.874L324.594 411.31L349.458 426.54L367.031 416.338L323.427 391.271Z"
        fill="white"/>
    <path
        d="M348.948 424.135V502.179V503.855V505.386C349.531 505.386 350.042 505.24 350.479 505.021C350.917 504.73 351.135 504.438 351.135 504.074V425.374L348.948 424.135Z"
        fill="#8CB5D7"/>
    <path d="M371.188 414.808V413.861H370.896L370.823 414.516L371.188 414.808Z" fill="white"/>
    <path d="M351.208 426.394V425.374L350.844 425.811L351.208 426.394Z" fill="white"/>
    <path
        d="M347.198 426.321L291.198 394.04C287.916 392.145 287.916 389.085 291.198 387.117L302.573 380.559C305.854 378.664 311.25 378.664 314.531 380.559L370.531 412.84C371.406 413.351 371.406 414.225 370.531 414.735C369.656 415.245 368.125 415.245 367.25 414.735L311.25 382.454C309.791 381.579 307.385 381.579 305.854 382.454L294.479 389.012C293.021 389.886 293.021 391.271 294.479 392.145L350.479 424.427C351.354 424.937 351.354 425.811 350.479 426.321C349.604 426.832 348.146 426.832 347.198 426.321Z"
        fill="#B1E1EC"/>
    <path
        d="M370.531 414.735C369.656 415.245 368.125 415.245 367.25 414.735L311.25 382.453C309.792 381.579 307.385 381.579 305.854 382.453L294.479 389.012C293.531 389.595 293.167 390.396 293.458 391.052C293.604 390.688 293.969 390.323 294.479 390.032L305.854 383.474C307.312 382.599 309.719 382.599 311.25 383.474L367.25 415.755C368.125 416.265 369.656 416.265 370.531 415.755C371.187 415.391 371.406 414.808 371.042 414.298C370.896 414.443 370.75 414.589 370.531 414.735Z"
        fill="white"/>
    <path
        d="M350.479 426.321C349.604 426.831 348.073 426.831 347.198 426.321L291.198 394.04C289.813 393.238 289.01 392.218 288.792 391.125C288.5 392.51 289.302 394.04 291.198 395.06L347.198 427.342C348.073 427.852 349.604 427.852 350.479 427.342C351.135 426.977 351.354 426.394 350.99 425.884C350.917 426.03 350.698 426.176 350.479 426.321Z"
        fill="white"/>
    <path
        d="M267.938 480.828C264.656 482.723 264.656 485.784 267.938 487.751L323.937 520.033C324.812 520.543 326.344 520.543 327.219 520.033C328.094 519.522 328.094 518.648 327.219 518.138L271.219 485.856C269.76 484.982 269.76 483.597 271.219 482.723L276.615 479.59C276.031 478.715 275.448 477.768 274.937 476.748L267.938 480.828Z"
        fill="#D3EBFF"/>
    <path
        d="M347.198 506.552L291.198 474.27C287.917 472.375 282.521 472.375 279.24 474.27L274.865 476.748C275.375 477.695 275.958 478.642 276.542 479.59L282.448 476.165C283.906 475.29 286.313 475.29 287.844 476.165L343.844 508.446C344.719 508.956 346.25 508.956 347.125 508.446C348.146 507.936 348.146 507.062 347.198 506.552Z"
        fill="#8CB5D7"/>
    <path
        d="M347.854 507.572V428.872L289.229 396.226L281.062 395.716L273.115 400.817L268.229 405.043L325.396 495.621L344.062 506.625L347.854 507.572Z"
        fill="#8CB5D7"/>
    <path d="M326.198 517.482L343.698 507.353V431.35L325.615 439.73L326.198 517.482Z" fill="#A3C7DF"/>
    <path d="M265.458 405.626V484.18L327.073 519.377L327.875 519.085V440.385L265.458 405.626Z" fill="#D3EBFF"/>
    <path
        d="M300.094 406.282L287.844 399.287C286.385 398.631 284.198 398.631 282.813 399.432L271.438 405.991C270.562 406.501 270.198 407.229 270.344 407.885L301.26 426.321L326.125 441.551L343.698 431.35L300.094 406.282Z"
        fill="white"/>
    <path
        d="M325.615 439.146V517.191V518.867V520.397C326.198 520.397 326.708 520.251 327.146 520.033C327.583 519.741 327.802 519.45 327.802 519.085V440.385L325.615 439.146Z"
        fill="#8CB5D7"/>
    <path d="M347.854 429.892V428.872H347.562L347.49 429.601L347.854 429.892Z" fill="white"/>
    <path d="M327.875 441.406V440.458L327.583 440.823L327.875 441.406Z" fill="white"/>
    <path
        d="M323.937 441.333L267.937 409.051C264.656 407.157 264.656 404.096 267.937 402.128L279.312 395.57C282.594 393.676 287.989 393.676 291.271 395.57L347.271 427.852C348.146 428.362 348.146 429.236 347.271 429.746C346.396 430.256 344.864 430.256 343.989 429.746L287.989 397.465C286.531 396.59 284.125 396.59 282.594 397.465L271.219 404.023C269.76 404.898 269.76 406.282 271.219 407.157L327.219 439.438C328.094 439.948 328.094 440.823 327.219 441.333C326.344 441.843 324.812 441.843 323.937 441.333Z"
        fill="#D3EBFF"/>
    <path
        d="M347.198 429.819C346.323 430.329 344.792 430.329 343.917 429.819L287.99 397.465C286.531 396.59 284.125 396.59 282.594 397.465L271.219 404.023C270.271 404.606 269.906 405.408 270.198 406.063C270.344 405.699 270.708 405.335 271.219 405.043L282.594 398.485C284.052 397.61 286.458 397.61 287.99 398.485L343.99 430.766C344.865 431.277 346.396 431.277 347.271 430.766C347.927 430.402 348.146 429.819 347.781 429.309C347.562 429.528 347.417 429.673 347.198 429.819Z"
        fill="white"/>
    <path
        d="M327.219 441.333C326.344 441.843 324.812 441.843 323.937 441.333L267.937 409.051C266.552 408.249 265.75 407.229 265.531 406.136C265.24 407.521 266.042 409.051 267.937 410.071L323.937 442.353C324.812 442.863 326.344 442.863 327.219 442.353C327.875 441.988 328.094 441.405 327.729 440.895C327.583 441.041 327.437 441.187 327.219 441.333Z"
        fill="white"/>
    <path
        d="M244.896 496.569C241.615 498.463 241.615 501.524 244.896 503.491L300.896 535.773C301.771 536.283 303.302 536.283 304.177 535.773C305.052 535.263 305.052 534.388 304.177 533.878L248.177 501.597C246.719 500.722 246.719 499.338 248.177 498.463L253.573 495.33C252.99 494.455 252.406 493.508 251.896 492.488L244.896 496.569Z"
        fill="#B1E1EC"/>
    <path
        d="M324.156 522.292L268.229 490.01C264.948 488.116 259.552 488.116 256.271 490.01L251.896 492.488C252.406 493.435 252.99 494.383 253.573 495.33L259.479 491.905C260.937 491.03 263.344 491.03 264.875 491.905L320.875 524.187C321.75 524.697 323.281 524.697 324.156 524.187C325.104 523.676 325.104 522.802 324.156 522.292Z"
        fill="#63B2D5"/>
    <path
        d="M324.885 523.312V444.685L266.187 411.966L258.021 411.456L250.073 416.557L245.188 420.856L302.354 511.361L321.021 522.365L324.885 523.312Z"
        fill="#8CB5D7"/>
    <path d="M303.156 533.222L320.729 523.166V447.163L302.646 455.543L303.156 533.222Z" fill="#A3C7DF"/>
    <path d="M242.49 421.439V499.993L304.031 535.19L304.833 534.825V456.198L242.49 421.439Z" fill="#B1E1EC"/>
    <path
        d="M277.052 422.095L264.802 415.1C263.344 414.444 261.156 414.444 259.771 415.245L248.396 421.804C247.521 422.314 247.156 423.042 247.302 423.698L278.219 442.134L303.083 457.364L320.656 447.162L277.052 422.095Z"
        fill="white"/>
    <path
        d="M302.646 454.959V533.004V534.68V536.21C303.229 536.21 303.74 536.064 304.177 535.846C304.615 535.554 304.833 535.263 304.833 534.898V456.198L302.646 454.959Z"
        fill="#8CB5D7"/>
    <path d="M324.885 445.632V444.685H324.521L324.448 445.341L324.885 445.632Z" fill="white"/>
    <path d="M304.833 457.218V456.198L304.542 456.635L304.833 457.218Z" fill="white"/>
    <path
        d="M300.896 457.146L244.896 424.864C241.614 422.97 241.614 419.909 244.896 417.941L256.271 411.383C259.552 409.489 264.948 409.489 268.229 411.383L324.229 443.665C325.104 444.175 325.104 445.049 324.229 445.559C323.354 446.069 321.823 446.069 320.948 445.559L264.948 413.278C263.489 412.403 261.083 412.403 259.552 413.278L248.177 419.836C246.719 420.711 246.719 422.095 248.177 422.97L304.177 455.251C305.052 455.761 305.052 456.636 304.177 457.146C303.229 457.656 301.771 457.656 300.896 457.146Z"
        fill="#B1E1EC"/>
    <path
        d="M324.156 445.559C323.281 446.069 321.75 446.069 320.875 445.559L264.875 413.278C263.417 412.403 261.01 412.403 259.479 413.278L248.104 419.836C247.156 420.419 246.792 421.221 247.083 421.876C247.229 421.512 247.594 421.148 248.104 420.856L259.479 414.298C260.937 413.423 263.344 413.423 264.875 414.298L320.875 446.579C321.75 447.09 323.281 447.09 324.156 446.579C324.812 446.215 325.031 445.632 324.667 445.122C324.594 445.268 324.375 445.413 324.156 445.559Z"
        fill="white"/>
    <path
        d="M304.177 457.146C303.302 457.656 301.771 457.656 300.896 457.146L244.896 424.864C243.51 424.062 242.708 423.042 242.49 421.949C242.198 423.334 243 424.864 244.896 425.884L300.896 458.166C301.771 458.676 303.302 458.676 304.177 458.166C304.833 457.801 305.052 457.218 304.688 456.708C304.542 456.854 304.396 457 304.177 457.146Z"
        fill="white"/>
    <defs>
        <linearGradient id="paint0_linear_262_370" x1="0" y1="0" x2="100%" y2="0"
                        gradientUnits="userSpaceOnUse">
            <stop stop-color="#2D8399"/>
            <stop offset="1" stop-color="#1876C6"/>
        </linearGradient>
        <linearGradient id="paint1_linear_262_370" x1="1127.84" y1="34.9348" x2="1334.2" y2="34.9348"
                        gradientUnits="userSpaceOnUse">
            <stop stop-color="#2D8399"/>
            <stop offset="1" stop-color="#1876C6"/>
        </linearGradient>
        <linearGradient id="paint2_linear_262_370" x1="0.1875" y1="35.4348" x2="1130.4" y2="35.4348"
                        gradientUnits="userSpaceOnUse">
            <stop stop-color="#2D8399"/>
            <stop offset="1" stop-color="#1876C6"/>
        </linearGradient>
        <linearGradient id="paint3_linear_262_370" x1="1117.27" y1="34.9346" x2="1143.52" y2="34.9346"
                        gradientUnits="userSpaceOnUse">
            <stop stop-color="#2D8399"/>
            <stop offset="1" stop-color="#1876C6"/>
        </linearGradient>
        <linearGradient id="paint4_linear_262_370" x1="0" y1="0" x2="100%" y2="0"
                        gradientUnits="userSpaceOnUse">
            <stop stop-color="#2D8399"/>
            <stop offset="1" stop-color="#1876C6"/>
        </linearGradient>
        <linearGradient id="paint5_linear_262_370" x1="230.786" y1="34.9346" x2="257.036" y2="34.9346"
                        gradientUnits="userSpaceOnUse">
            <stop stop-color="#2D8399"/>
            <stop offset="1" stop-color="#1876C6"/>
        </linearGradient>
        <linearGradient id="paint6_linear_262_370" x1="561" y1="322" x2="562" y2="322" gradientUnits="userSpaceOnUse">
            <stop stop-color="#2D8399"/>
            <stop offset="1" stop-color="#1876C6"/>
        </linearGradient>
        <linearGradient id="paint7_linear_262_370" x1="547.511" y1="34.9346" x2="573.761" y2="34.9346"
                        gradientUnits="userSpaceOnUse">
            <stop stop-color="#2D8399"/>
            <stop offset="1" stop-color="#1876C6"/>
        </linearGradient>
    </defs>
</svg>
