<svg width="122" height="100" viewBox="0 0 122 100" fill="none" xmlns="http://www.w3.org/2000/svg">
<path d="M1.3718 99.899L120.839 32.6839C121.165 32.526 121.365 32.1944 121.365 31.8365L121.476 1.25262C121.476 0.731572 121.055 0.30526 120.528 0.299997L36.9083 0C36.5188 0 36.1714 0.23684 36.0241 0.594731L0.0718133 98.6937C-0.254499 99.5043 0.592861 100.283 1.3718 99.899Z" fill="white"/>
<path d="M120.523 0.994727C120.665 0.994727 120.776 1.11051 120.776 1.24736L120.665 31.8313C120.665 31.9313 120.613 32.0155 120.523 32.0576L120.507 32.0681L120.492 32.0786L1.05075 99.2779C1.01391 99.2937 0.982334 99.299 0.945493 99.299C0.866546 99.299 0.782336 99.2516 0.734969 99.1779C0.661285 99.0727 0.698127 98.9779 0.719179 98.9253L36.6714 0.857886C36.7136 0.757887 36.803 0.69473 36.9083 0.69473L120.523 0.994727ZM120.523 0.299997L36.9083 0C36.5188 0 36.1714 0.23684 36.0241 0.594731L0.0718174 98.6937C-0.191338 99.3569 0.319183 99.999 0.945493 99.999C1.0876 99.999 1.2297 99.9674 1.3718 99.899L120.839 32.6839C121.16 32.526 121.365 32.1944 121.365 31.8365L121.476 1.25262C121.476 0.731571 121.055 0.30526 120.528 0.299997" fill="#7AC0E2"/>
<path d="M34.7294 25.0522L0.0928625 98.641C-0.265029 99.4094 0.477069 100.225 1.27706 99.941L109.244 61.0782C109.618 60.9414 109.871 60.5887 109.876 60.1887L109.997 25.7207C109.997 25.1943 109.571 24.768 109.05 24.768L35.5925 24.5049C35.2241 24.5049 34.8872 24.7154 34.7294 25.0522Z" fill="#7AC0E2"/>
<path d="M39.724 30.4891H38.0293L38.0451 26.4154H36.5556L36.524 35.9048H38.0135L38.0293 31.8417H39.724L39.7082 35.9153H41.2293L41.2608 26.4259H39.7398M102.66 26.647H101.171L101.139 36.1364H102.629L102.66 26.647ZM43.724 26.4365L42.1714 35.9259H43.5398L43.8029 34.2101H45.6345L45.8871 35.9416H47.3924L45.9082 26.447H43.724V26.4365ZM44.0029 32.9101L44.7398 28.1101L45.4397 32.9154H44.0029V32.9101ZM56.6186 30.3838L56.066 32.4733L56.087 26.4628H54.7554L54.7239 35.9522H56.2554L57.5186 31.6101L58.1344 29.2786L58.108 35.9627H59.4501L59.4817 26.4733H57.8396L56.6081 30.3785L56.6186 30.3838ZM80.292 33.6469L80.4762 27.9101H81.7815L81.7499 36.0522H83.2657L83.2973 26.5628L79.0815 26.547L78.8131 33.7206C78.7815 34.6048 78.5657 34.6943 77.8868 34.6943V36.0522H78.1131C79.6026 36.0574 80.2289 35.3838 80.292 33.6469ZM100.292 33.7732V32.5364C100.302 31.0154 99.5708 30.1838 98.0813 30.1785H97.3761L97.3866 26.6102H95.8919L95.8603 36.0995H98.0603C99.5497 36.1153 100.287 35.289 100.292 33.768M97.3708 31.5312H98.0761C98.5497 31.5312 98.8076 31.7522 98.8076 32.4312V33.8522C98.8024 34.5311 98.5392 34.7469 98.0655 34.7469H97.3603L97.3708 31.5312ZM88.913 33.7259V32.489C88.9235 30.968 88.1919 30.1364 86.7025 30.1312H85.9972L86.0078 26.5628H84.5183L84.4867 36.0522H86.6867C88.1762 36.068 88.913 35.2416 88.9183 33.7206M85.9972 31.4838H86.7025C87.1762 31.4838 87.4341 31.7048 87.4288 32.3838V33.8048C87.4235 34.4838 87.1656 34.6995 86.692 34.6995H85.9867L85.9972 31.4838ZM91.4761 32.0048H93.1708L93.1551 36.0785H94.6761L94.7077 26.5891H93.1866L93.1708 30.6522H91.4761L91.4919 26.5786H90.0024L89.9709 36.068H91.4603L91.4761 32.0048ZM53.087 26.4417H51.5713L51.5397 34.5732H49.8397L49.8713 26.4312H48.3818L48.3502 35.9206L52.2555 35.9364V37.21H53.7028L53.7133 34.6101H53.0607L53.0923 26.4417H53.087ZM75.6079 36.0153H77.1131L75.6289 26.5207H73.4447L71.8921 35.9995H73.2658L73.5289 34.2838H75.3605L75.6131 36.0153H75.6079ZM73.7184 32.9996L74.4552 28.1996L75.1552 33.0048H73.7184V32.9996ZM107.934 27.9891V26.6312L103.871 26.6154L103.839 36.1101L107.908 36.1258V34.768L105.334 34.7574L105.344 31.9785H107.392V30.6312H105.344L105.355 27.9786L107.934 27.9891ZM62.8711 26.3628C61.408 26.3628 60.6027 27.2207 60.5975 28.7417L60.5817 33.6785C60.5764 35.1943 61.3712 36.068 62.8396 36.0732C64.308 36.0785 65.108 35.2101 65.1132 33.6943L65.129 28.7575C65.1343 27.2365 64.3396 26.3681 62.8711 26.3628ZM63.6185 33.7838C63.6185 34.4627 63.3185 34.7153 62.8396 34.7153C62.3606 34.7153 62.0659 34.4574 62.0712 33.7785L62.0869 28.6522C62.0869 27.9733 62.3869 27.7154 62.8659 27.7154C63.3448 27.7154 63.6396 27.9786 63.6343 28.6575L63.6185 33.7838ZM67.7237 31.9154H69.4237L69.4079 35.989H70.9237L70.9553 26.4996H69.4395L69.4237 30.5627H67.7237L67.7395 26.4891H66.2501L66.2185 35.9785H67.7079L67.7237 31.9154ZM88.6288 39.3153V37.9627L84.5657 37.9469L84.5341 47.4415L88.6025 47.4573V46.0994L86.0288 46.0889L86.0393 43.31H88.0867V41.9626H86.0446L86.0551 39.3048L88.634 39.3153H88.6288ZM93.0761 47.4731H94.6077L92.5498 42.21L94.6393 37.9837H93.1498L91.1814 42.11L91.1972 37.9732H89.7077L89.6761 47.4626H91.1656L91.1761 44.5521L91.6393 43.6889L93.0761 47.4784V47.4731ZM98.4287 47.4942L98.4603 39.3521H100.018V38.0048L95.4129 37.989V39.3416H96.9708L96.9392 47.4889H98.4287V47.4942ZM105.365 45.1784V43.9468C105.376 42.4258 104.644 41.5942 103.155 41.589H102.45L102.46 38.0206H100.965L100.934 47.5099H103.134C104.623 47.5257 105.36 46.6994 105.365 45.1784ZM102.444 42.9468H103.15C103.623 42.9468 103.881 43.1679 103.876 43.8468V45.2679C103.871 45.9468 103.608 46.1626 103.134 46.1626H102.429L102.439 42.9468H102.444ZM77.9973 41.5153V40.2837C78.0078 38.7627 77.2763 37.9311 75.7868 37.9258H73.5868L73.5552 47.4152H75.0447L75.0552 43.8521H75.7605C77.2499 43.8573 77.9868 43.0363 77.992 41.5153M75.071 39.2784H75.7763C76.25 39.2784 76.5079 39.5048 76.5026 40.1784V41.6047C76.4973 42.2837 76.2394 42.4995 75.7605 42.4995H75.0552L75.0658 39.2784H75.071ZM67.65 47.3942H69.1395L69.1711 39.2574H70.8658L70.8342 47.4047H72.3553L72.3868 37.9153L67.6764 37.8995L67.6448 47.3942H67.65ZM106.208 47.531H107.697L107.729 38.0416H106.239L106.208 47.531ZM81.1815 37.8364C79.7183 37.8364 78.9131 38.6942 78.9078 40.2153L78.892 45.1521C78.8868 46.6731 79.6815 47.5415 81.1499 47.5468C82.6131 47.5468 83.4183 46.6889 83.4236 45.1679L83.4394 40.2311C83.4446 38.71 82.6499 37.8416 81.1815 37.8364ZM81.9288 45.2573C81.9288 45.9363 81.6236 46.1942 81.1499 46.1889C80.6762 46.1836 80.3762 45.9258 80.3815 45.2468L80.3973 40.1205C80.3973 39.4416 80.6973 39.189 81.1762 39.189C81.6552 39.189 81.9499 39.4521 81.9446 40.1258L81.9288 45.2521V45.2573ZM104.818 53.3415L104.265 55.4309L104.287 49.4205H102.955L102.923 58.9098H104.455L105.718 54.5625L106.334 52.2309L106.308 58.9204H107.655L107.686 49.431H106.044L104.813 53.3415H104.818ZM82.7815 49.231C81.3183 49.231 80.5131 50.0941 80.5078 51.6099L80.492 56.5467C80.4868 58.0677 81.2815 58.9361 82.7499 58.9414C84.2183 58.9467 85.0183 58.0835 85.0236 56.5625L85.0393 51.6257C85.0446 50.1099 84.2499 49.2362 82.7815 49.231ZM83.5288 56.652C83.5288 57.3309 83.2236 57.5888 82.7499 57.5888C82.2762 57.5888 81.9762 57.3256 81.9815 56.6467L81.9973 51.5204C81.9973 50.8415 82.2973 50.5889 82.7762 50.5889C83.2551 50.5889 83.5499 50.8468 83.5446 51.5257L83.5288 56.652ZM77.3815 49.3205H75.1816L75.15 58.8098H76.6394L76.65 55.2467H77.3552C78.8447 55.252 79.5815 54.4309 79.5868 52.9099V51.6731C79.5973 50.1573 78.8657 49.3257 77.3763 49.3205M78.0973 52.9994C78.0973 53.6783 77.8394 53.8941 77.3605 53.8941H76.6552L76.6657 50.6783H77.371C77.8447 50.6783 78.1026 50.8994 78.0973 51.5783V52.9994ZM88.2972 49.252C86.8341 49.252 86.0709 50.1152 86.0656 51.631L86.0499 56.5677C86.0446 58.0888 86.8025 58.9572 88.2656 58.9625C89.7288 58.9677 90.4919 58.1046 90.4972 56.5835V55.3204H89.0919V56.673C89.0867 57.3519 88.7867 57.5941 88.313 57.5941C87.8393 57.5941 87.5446 57.3467 87.5446 56.6677L87.5604 51.5415C87.5604 50.8625 87.8604 50.6099 88.334 50.6099C88.8077 50.6099 89.1077 50.8678 89.1025 51.5467V52.5625H90.513V51.6467C90.5235 50.131 89.7656 49.2573 88.3025 49.252M93.7603 49.2731C92.2972 49.2731 91.534 50.1362 91.5288 51.652L91.513 56.5888C91.5077 58.1098 92.2603 58.9782 93.7287 58.9835C95.1971 58.9888 95.955 58.1256 95.9603 56.6046V55.3414H94.555V56.6941C94.5498 57.373 94.2445 57.6151 93.7761 57.6151C93.3077 57.6151 93.0024 57.3677 93.0077 56.6888L93.0235 51.5625C93.0235 50.8836 93.3235 50.631 93.8024 50.631C94.2814 50.631 94.5761 50.8889 94.5708 51.5678V52.5836H95.9761V51.6678C95.9866 50.152 95.2287 49.2783 93.7603 49.2731ZM98.9076 53.3204L98.355 55.4099L98.376 49.3994H97.0445L97.0129 58.8888H98.5445L99.8076 54.5414L100.429 52.2099L100.402 58.8993H101.744L101.776 49.4099H100.134L98.8971 53.3204H98.9076Z" fill="white"/>
<path d="M53.1292 13.5839C53.1292 14.1944 53.0186 14.7312 52.8081 15.1891C52.5976 15.647 52.2923 15.9996 51.8976 16.2418C51.5081 16.4891 51.0555 16.6102 50.545 16.6049C50.0345 16.5996 49.5924 16.4786 49.1976 16.2312C48.8029 15.9839 48.5029 15.6312 48.2871 15.1786C48.0766 14.7207 47.9661 14.1944 47.9661 13.5997V13.247C47.9661 12.6418 48.0766 12.105 48.2924 11.6418C48.5082 11.1786 48.8134 10.826 49.2029 10.5787C49.5976 10.3313 50.045 10.2102 50.5503 10.2155C51.0555 10.2208 51.5081 10.3418 51.8976 10.5839C52.2871 10.826 52.5871 11.1786 52.8029 11.6365C53.0134 12.0944 53.1186 12.626 53.1186 13.2365M52.0397 13.2523C52.0397 12.5628 51.9134 12.0365 51.6555 11.6681C51.3976 11.2997 51.0292 11.1155 50.5503 11.1102C50.0713 11.105 49.7187 11.2892 49.4555 11.6576C49.1924 12.0207 49.0555 12.5365 49.045 13.2102V13.5681C49.045 14.2523 49.1713 14.7839 49.4345 15.1576C49.6976 15.5312 50.066 15.7207 50.5397 15.7207C51.0134 15.7207 51.3871 15.5418 51.645 15.1786C51.9029 14.8155 52.0344 14.2839 52.0397 13.5839V13.2576V13.2523Z" fill="#7AC0E2"/>
<path d="M58.1396 11.1999L55.2765 11.1894V12.6946H56.5449C57.0028 12.6999 57.3975 12.7788 57.7344 12.9367C58.0712 13.0946 58.3291 13.3157 58.5028 13.6051C58.6817 13.8946 58.7659 14.2262 58.7659 14.6051C58.7659 15.1841 58.5659 15.6525 58.1712 15.9999C57.7765 16.3472 57.2344 16.5262 56.5554 16.5314L54.1765 16.5209L54.1976 10.3052L58.1396 10.321M55.266 13.563V15.6683H56.5239C56.887 15.6735 57.1712 15.5788 57.3765 15.3788C57.5817 15.1841 57.6817 14.9209 57.6817 14.5946C57.6817 14.2683 57.587 14.0315 57.387 13.8525C57.187 13.6683 56.9133 13.5736 56.5607 13.5683H55.2607L55.266 13.563Z" fill="#7AC0E2"/>
<path d="M60.7396 14.2527L60.7291 16.5579H59.6501L59.6712 10.3369L62.0501 10.3474C62.7449 10.3474 63.2975 10.5316 63.7027 10.8948C64.1133 11.258 64.3133 11.7369 64.3133 12.3316C64.3133 12.9264 64.108 13.4158 63.708 13.7527C63.308 14.0895 62.7449 14.2579 62.0238 14.2527M60.7396 13.379H62.0396C62.4238 13.3843 62.7185 13.2948 62.9185 13.1158C63.1185 12.9369 63.2238 12.6737 63.2238 12.3369C63.2238 12.0001 63.1238 11.7316 62.9185 11.5316C62.7133 11.3316 62.4291 11.2264 62.0764 11.2211H60.7449V13.3843L60.7396 13.379Z" fill="#7AC0E2"/>
<path d="M68.2974 15.1368L65.8869 15.1263L65.3764 16.5736H64.2554L66.6238 10.3579H67.5922L69.9237 16.5894H68.7974M66.1922 14.2579H67.9922L67.1027 11.6789L66.1922 14.2579Z" fill="#7AC0E2"/>
<path d="M73.8026 12.0786C73.8026 11.7997 73.6974 11.5786 73.4868 11.4102C73.2763 11.2418 72.9921 11.1628 72.629 11.1576C72.3184 11.1576 72.0605 11.2365 71.8553 11.3997C71.65 11.5628 71.5395 11.7734 71.5395 12.0313H70.4658C70.4658 11.6892 70.5605 11.3892 70.75 11.126C70.9395 10.8628 71.1974 10.6576 71.529 10.5102C71.8605 10.3629 72.229 10.2944 72.629 10.2944C73.3447 10.2944 73.8921 10.4523 74.2868 10.7629C74.6816 11.0734 74.8763 11.5102 74.871 12.0681C74.871 12.3523 74.7816 12.6102 74.6131 12.8418C74.4395 13.0786 74.2026 13.2628 73.8921 13.3997C74.2395 13.5207 74.5026 13.7049 74.6868 13.947C74.871 14.1891 74.9605 14.4944 74.9605 14.8523C74.9605 15.4102 74.7447 15.8523 74.3131 16.1838C73.8816 16.5154 73.3184 16.6733 72.6026 16.6681C72.1658 16.6681 71.7711 16.5891 71.4132 16.4312C71.0605 16.2733 70.7921 16.0575 70.6184 15.7891C70.4395 15.5207 70.3553 15.2102 70.3553 14.8575H71.429C71.429 15.126 71.5395 15.3523 71.7605 15.5417C71.9816 15.726 72.2658 15.8207 72.6026 15.8207C72.9816 15.8207 73.2921 15.7312 73.5237 15.5523C73.7553 15.3733 73.871 15.1418 73.871 14.8523C73.871 14.4997 73.771 14.247 73.571 14.0891C73.3658 13.9312 73.071 13.8523 72.6763 13.847H71.9447V12.9891H72.6395C73.4026 12.9891 73.7868 12.6891 73.7868 12.0681" fill="#7AC0E2"/>
<path d="M80.9605 13.684C80.9605 14.2945 80.8499 14.8313 80.6394 15.2892C80.4289 15.7471 80.1289 16.0997 79.7342 16.3418C79.3394 16.5892 78.8921 16.7103 78.3815 16.705C77.871 16.6997 77.4289 16.5787 77.0342 16.3313C76.6394 16.084 76.3394 15.7313 76.1237 15.2787C75.9131 14.8208 75.8079 14.2945 75.8026 13.6998V13.3471C75.8026 12.7419 75.9131 12.205 76.1289 11.7419C76.35 11.2787 76.65 10.9261 77.0447 10.6787C77.4394 10.4314 77.8868 10.3103 78.3921 10.3156C78.8973 10.3209 79.3447 10.4419 79.7394 10.684C80.1289 10.9261 80.4289 11.2787 80.6447 11.7366C80.8552 12.1945 80.9605 12.7261 80.9657 13.3366M79.8815 13.3524C79.8815 12.6629 79.7552 12.1366 79.4973 11.7682C79.2394 11.3998 78.871 11.2156 78.3921 11.2103C77.9131 11.2051 77.5605 11.3893 77.2973 11.7577C77.0342 12.1208 76.8973 12.6366 76.8868 13.3103V13.6682C76.8868 14.3524 77.0131 14.884 77.2763 15.2576C77.5394 15.6313 77.9079 15.8208 78.3815 15.8208C78.8552 15.8208 79.2289 15.6419 79.4868 15.2787C79.7447 14.9155 79.8763 14.384 79.8763 13.684V13.3577L79.8815 13.3524Z" fill="#7AC0E2"/>
<path d="M82.0183 16.6313L82.0394 10.4155H84.1709C84.8762 10.4261 85.4077 10.5682 85.7762 10.8524C86.1446 11.1366 86.3235 11.5576 86.3235 12.1155C86.3235 12.3997 86.2446 12.6576 86.092 12.8839C85.9341 13.1102 85.713 13.2892 85.413 13.4102C85.7499 13.505 86.0077 13.6734 86.192 13.926C86.3762 14.1786 86.4656 14.4839 86.4656 14.8313C86.4656 15.4155 86.2762 15.8628 85.9025 16.1786C85.5288 16.4891 84.992 16.6418 84.292 16.6418M83.1183 13.0366H84.1762C84.513 13.0366 84.7762 12.9681 84.9657 12.8155C85.1551 12.6629 85.2499 12.4471 85.2551 12.1681C85.2551 11.8629 85.1709 11.6418 84.992 11.4997C84.8183 11.3629 84.5446 11.2945 84.1762 11.2945H83.1288V13.0366H83.1183ZM83.1078 13.8313V15.7734H84.2972C84.6341 15.7786 84.9025 15.6944 85.092 15.526C85.2814 15.3576 85.3814 15.126 85.3814 14.826C85.3814 14.1786 85.0551 13.8471 84.392 13.8313H83.1025H83.1078Z" fill="#7AC0E2"/>
<path d="M90.992 15.2159L88.5814 15.2054L88.0709 16.6527H86.9499L89.3183 10.437H90.2867L92.6182 16.6685H91.4919M88.8867 14.337H90.6867L89.7972 11.7581L88.8867 14.337Z" fill="#7AC0E2"/>
<path d="M98.3445 16.6895H97.2656L97.2761 13.9264L94.4972 13.9211L94.4867 16.679L93.4077 16.6737L93.4288 10.458H94.5077L94.4972 13.0475L97.2814 13.058L97.2919 10.4685L98.3656 10.4738" fill="#7AC0E2"/>
<path d="M103.423 10.4948H104.508L104.487 16.7158L103.402 16.7105L103.418 12.279L100.676 16.7L99.5919 16.6947L99.6182 10.479L100.697 10.4843L100.681 14.9158" fill="#7AC0E2"/>
<path d="M109.397 13.9579L106.844 13.9473L106.834 15.8578L109.818 15.8684V16.7315L105.75 16.721L105.776 10.5L109.808 10.5158V11.3895L106.85 11.3789L106.844 13.0947L109.397 13.1" fill="#7AC0E2"/>
</svg>
