<svg width="40" height="40" viewBox="0 0 40 40" fill="none" xmlns="http://www.w3.org/2000/svg">
<g opacity="0.5">
<path d="M0.218753 2.84554H5.83334C5.90625 2.84554 6.05209 2.91851 6.05209 3.06443C6.05209 3.1374 5.97917 3.28333 5.83334 3.28333H0.218753C0.145836 3.28333 1.90735e-06 3.21036 1.90735e-06 3.06443C1.90735e-06 2.99147 0.145836 2.84554 0.218753 2.84554Z" fill="#1876C7"/>
<path d="M3.20866 0.218891V5.83704C3.20866 5.91 3.13569 6.05593 2.98975 6.05593C2.91677 6.05593 2.77083 5.98296 2.77083 5.83704V0.218891C2.77083 0.145928 2.8438 0 2.98975 0C3.13569 0.072963 3.20866 0.145928 3.20866 0.218891Z" fill="#1876C7"/>
</g>
</svg>
