<svg width="1400" height="209" viewBox="0 0 1400 209" fill="none" xmlns="http://www.w3.org/2000/svg">
    <path fill-rule="evenodd" clip-rule="evenodd"
          d="M0 208.19C38.1437 208.126 87.6714 200.774 157.085 190.47L158.229 190.3C232.5 179.262 276.831 165.223 316.24 152.743C351.851 141.466 383.444 131.461 429.479 126.093C515.125 116.102 557.569 133.017 601.72 150.613C640.115 165.915 679.801 181.731 750.313 180.815C858.877 179.377 924 139.763 992.542 98.0701C1063.17 55.1101 1137.42 9.94248 1266.56 2.05564C1327.13 -1.655 1368.14 4.78434 1399.74 9.74588C1399.82 9.75974 1399.91 9.77359 1400 9.78745V210H0V208.19Z"
          fill="white"/>
</svg>
