<svg viewBox="0 0 1400 787" fill="none" xmlns="http://www.w3.org/2000/svg" preserveAspectRatio="xMidYMid slice">
    <g clip-path="url(#clip0_311_3)">
        <path d="M1400 0H0V787H1400V0Z" fill="#EFF3FF"/>
        <mask id="mask0_311_3" style="mask-type:luminance" maskUnits="userSpaceOnUse" x="0" y="0" width="1400"
              height="787">
            <path d="M1400 0H0V787H1400V0Z" fill="white"/>
        </mask>
        <g mask="url(#mask0_311_3)">
            <g opacity="0.45">
                <path
                    d="M936.833 89.1204C920.136 90.7964 907.958 105.953 909.635 122.859C911.313 139.838 926.188 152.226 942.813 150.55C959.51 148.874 971.688 133.717 970.011 116.811C968.479 100.852 955.281 88.9746 939.823 88.9746C938.875 88.9746 937.854 89.0475 936.833 89.1204Z"
                    fill="#D3EBFF"/>
                <path
                    d="M816.302 140.202C811.927 140.639 808.792 144.574 809.229 149.02C809.667 153.465 813.531 156.671 817.906 156.234C822.281 155.797 825.417 151.862 824.979 147.416C824.542 143.263 821.115 140.129 817.104 140.129C816.812 140.202 816.521 140.202 816.302 140.202Z"
                    fill="#D3EBFF"/>
                <path
                    d="M188.781 229.396C175.51 230.707 165.885 242.731 167.198 256.212C168.51 269.693 180.323 279.531 193.521 278.146C206.792 276.834 216.417 264.811 215.104 251.33C213.865 238.65 203.365 229.25 191.188 229.25C190.385 229.25 189.583 229.323 188.781 229.396Z"
                    fill="#D3EBFF"/>
                <path
                    d="M530.688 466.516C526.313 466.953 523.177 470.888 523.615 475.333C524.052 479.778 527.917 482.984 532.292 482.547C536.667 482.11 539.802 478.175 539.365 473.73C538.927 469.576 535.5 466.443 531.49 466.443C531.271 466.516 530.979 466.516 530.688 466.516Z"
                    fill="#D3EBFF"/>
                <path
                    d="M730.479 -29.3668C704.229 -26.7435 685.052 -2.91489 687.677 23.8285C690.302 50.572 713.708 70.0284 739.958 67.405C766.208 64.7817 785.385 40.9531 782.76 14.2096C780.281 -10.8578 759.5 -29.5854 735.292 -29.5854C733.687 -29.5854 732.083 -29.5126 730.479 -29.3668Z"
                    fill="#D3EBFF"/>
                <path
                    d="M1373.39 633.316C1324.24 638.271 1288.36 682.795 1293.32 732.784C1298.21 782.773 1341.96 819.209 1391.1 814.253C1440.25 809.298 1476.13 764.774 1471.17 714.785C1466.57 667.857 1427.71 632.806 1382.35 632.806C1379.36 632.879 1376.38 633.025 1373.39 633.316Z"
                    fill="#D3EBFF"/>
                <path
                    d="M409.062 130.219C396.594 130.219 384.635 125.92 374.792 117.904C363.271 108.504 356.125 95.023 354.667 80.0845C351.677 49.5518 373.698 22.2983 403.74 19.2378C405.563 19.0192 407.385 18.9463 409.208 18.9463C422.771 18.9463 435.75 24.0472 445.813 33.3018C455.948 42.5563 462.292 55.3086 463.604 69.0811C466.594 99.6138 444.573 126.867 414.531 129.928C412.781 130.074 410.958 130.219 409.062 130.219ZM409.281 29.0753C407.823 29.0753 406.292 29.1481 404.833 29.2939C380.333 31.7715 362.323 54.1427 364.802 79.1372C365.969 91.3794 371.875 102.383 381.281 110.107C390.469 117.613 401.917 121.111 413.656 119.945C438.156 117.467 456.167 95.0958 453.688 70.1013C451.354 46.7099 432.25 29.0753 409.281 29.0753Z"
                    fill="#D3EBFF"/>
                <path
                    d="M-18.5938 401.297C-47.7604 404.212 -68.9792 430.664 -66.1354 460.322C-63.2187 489.98 -37.2604 511.623 -8.16666 508.635C21 505.72 42.2188 479.268 39.375 449.61C36.6771 421.773 13.6354 401.005 -13.3437 401.005C-15.0937 401.005 -16.8438 401.078 -18.5938 401.297Z"
                    fill="#D3EBFF"/>
                <path
                    d="M158.521 465.496C150.719 466.297 145.031 473.22 145.76 481.017C146.563 488.814 153.49 494.498 161.292 493.769C169.094 492.968 174.781 486.045 174.052 478.248C173.323 470.888 167.125 465.423 159.906 465.423C159.469 465.423 158.958 465.496 158.521 465.496Z"
                    fill="#D3EBFF"/>
                <path
                    d="M559.271 889.529C511.073 889.529 471.844 849.596 471.844 800.554C471.844 751.512 511.073 711.579 559.271 711.579C607.469 711.579 646.698 751.512 646.698 800.554C646.625 849.668 607.469 889.529 559.271 889.529ZM559.271 737.885C525.292 737.885 497.656 766.013 497.656 800.554C497.656 835.094 525.292 863.222 559.271 863.222C593.25 863.222 620.885 835.094 620.885 800.554C620.885 766.013 593.25 737.885 559.271 737.885Z"
                    fill="#D3EBFF"/>
                <path
                    d="M161.948 69.8101C161.948 69.8829 161.948 70.0287 161.948 70.1015C161.948 72.7249 161.875 75.3482 161.656 77.9715L150.208 77.17C150.354 74.8381 150.427 72.5063 150.427 70.1015C150.427 70.0287 150.427 69.9558 150.427 69.8101H161.948Z"
                    fill="#D3EBFF"/>
                <path
                    d="M160.854 54.1426C161.219 56.693 161.51 59.3164 161.656 61.9397L150.208 62.7413C150.063 60.4094 149.771 58.0776 149.479 55.7457L160.854 54.1426Z"
                    fill="#D3EBFF"/>
                <path
                    d="M157.573 38.7671C158.302 41.2447 158.885 43.7951 159.469 46.4185L148.24 48.8232C147.729 46.4913 147.219 44.2324 146.562 41.9734L157.573 38.7671Z"
                    fill="#D3EBFF"/>
                <path
                    d="M152.323 24.0474C153.344 26.4521 154.365 28.8568 155.24 31.3344L144.448 35.3423C143.646 33.1562 142.771 30.97 141.823 28.8568L152.323 24.0474Z"
                    fill="#D3EBFF"/>
                <path
                    d="M145.031 10.2017C146.417 12.3878 147.656 14.6468 148.896 16.9786L138.76 22.5168C137.667 20.4764 136.5 18.436 135.26 16.4685L145.031 10.2017Z"
                    fill="#D3EBFF"/>
                <path
                    d="M135.917 -2.47754C137.594 -0.510039 139.198 1.6032 140.656 3.71644L131.396 10.6391C130.01 8.7445 128.625 6.92274 127.094 5.10098L135.917 -2.47754Z"
                    fill="#D3EBFF"/>
                <path
                    d="M-3.9375 167.602C-6.19792 166.29 -8.38542 164.906 -10.5 163.448L-4.08333 153.756C-2.1875 155.068 -0.218751 156.307 1.75 157.473L-3.9375 167.602Z"
                    fill="#D3EBFF"/>
                <path
                    d="M9.91667 174.524C7.51042 173.504 5.17708 172.484 2.84375 171.318L7.875 160.825C9.91666 161.845 12.0312 162.792 14.2187 163.667L9.91667 174.524Z"
                    fill="#D3EBFF"/>
                <path
                    d="M24.6458 179.334C22.1667 178.678 19.6875 177.949 17.2083 177.148L20.7812 165.999C22.9687 166.727 25.1562 167.383 27.4167 167.893L24.6458 179.334Z"
                    fill="#D3EBFF"/>
                <path
                    d="M39.8125 182.03C37.2604 181.739 34.7083 181.375 32.1562 180.937L34.125 169.424C36.3854 169.788 38.6458 170.153 40.9792 170.371L39.8125 182.03Z"
                    fill="#D3EBFF"/>
                <path
                    d="M55.2708 182.54C53.9583 182.613 52.6458 182.613 51.3333 182.613C50.0938 182.613 48.7812 182.613 47.5417 182.54L47.9062 170.881C49 170.954 50.1667 170.954 51.3333 170.954C52.5 170.954 53.6667 170.954 54.8333 170.881L55.2708 182.54Z"
                    fill="#D3EBFF"/>
                <path
                    d="M70.5833 180.937C68.0312 181.375 65.4792 181.739 62.9271 182.03L61.7604 170.371C64.0937 170.153 66.3542 169.788 68.6146 169.424L70.5833 180.937Z"
                    fill="#D3EBFF"/>
                <path
                    d="M85.5313 177.148C83.125 177.949 80.6458 178.678 78.0938 179.334L75.3229 167.966C77.5833 167.383 79.7708 166.727 81.9583 165.999L85.5313 177.148Z"
                    fill="#D3EBFF"/>
                <path
                    d="M99.8229 171.245C97.4896 172.411 95.1562 173.431 92.75 174.452L88.4479 163.594C90.5625 162.719 92.6771 161.772 94.7917 160.752L99.8229 171.245Z"
                    fill="#D3EBFF"/>
                <path
                    d="M113.167 163.375C111.052 164.833 108.865 166.217 106.604 167.529L100.844 157.4C102.813 156.234 104.781 154.995 106.677 153.684L113.167 163.375Z"
                    fill="#D3EBFF"/>
                <path
                    d="M125.344 153.684C123.448 155.433 121.479 157.109 119.437 158.712L112.365 149.53C114.187 148.073 115.937 146.542 117.687 145.012L125.344 153.684Z"
                    fill="#D3EBFF"/>
                <path
                    d="M136.063 142.389C134.385 144.429 132.708 146.324 130.885 148.219L122.646 140.13C124.25 138.454 125.781 136.705 127.313 134.883L136.063 142.389Z"
                    fill="#D3EBFF"/>
                <path
                    d="M145.177 129.709C143.792 131.968 142.333 134.081 140.875 136.195L131.615 129.345C133 127.45 134.24 125.483 135.479 123.515L145.177 129.709Z"
                    fill="#D3EBFF"/>
                <path
                    d="M152.396 115.864C151.375 118.269 150.208 120.601 148.969 122.932L138.833 117.467C139.927 115.427 140.948 113.314 141.896 111.127L152.396 115.864Z"
                    fill="#D3EBFF"/>
                <path
                    d="M157.719 101.071C156.99 103.622 156.187 106.099 155.312 108.577L144.521 104.569C145.323 102.383 146.052 100.124 146.635 97.8647L157.719 101.071Z"
                    fill="#D3EBFF"/>
                <path
                    d="M160.854 85.6954C160.49 88.3188 160.052 90.8692 159.542 93.4197L148.312 91.015C148.823 88.756 149.187 86.4241 149.479 84.0923L160.854 85.6954Z"
                    fill="#D3EBFF"/>
                <path
                    d="M1370.83 468.557C1370.83 468.63 1370.83 468.702 1370.83 468.702C1370.83 470.306 1370.76 471.982 1370.69 473.585L1363.54 473.075C1363.61 471.617 1363.69 470.16 1363.69 468.702C1363.69 468.63 1363.69 468.63 1363.69 468.557H1370.83Z"
                    fill="#D3EBFF"/>
                <path
                    d="M1370.18 458.865C1370.4 460.468 1370.54 462.071 1370.69 463.674L1363.54 464.184C1363.47 462.727 1363.32 461.269 1363.1 459.812L1370.18 458.865Z"
                    fill="#D3EBFF"/>
                <path
                    d="M1368.14 449.319C1368.57 450.849 1368.94 452.452 1369.3 454.055L1362.3 455.586C1362.01 454.128 1361.65 452.744 1361.28 451.359L1368.14 449.319Z"
                    fill="#D3EBFF"/>
                <path
                    d="M1364.85 440.21C1365.51 441.667 1366.09 443.198 1366.68 444.728L1359.97 447.206C1359.46 445.821 1358.95 444.509 1358.36 443.198L1364.85 440.21Z"
                    fill="#D3EBFF"/>
                <path
                    d="M1360.33 431.611C1361.21 432.996 1362.01 434.38 1362.74 435.838L1356.47 439.263C1355.81 437.951 1355.08 436.712 1354.28 435.473L1360.33 431.611Z"
                    fill="#D3EBFF"/>
                <path
                    d="M1354.72 423.814C1355.74 425.053 1356.76 426.364 1357.71 427.676L1351.95 431.975C1351.07 430.81 1350.2 429.644 1349.32 428.551L1354.72 423.814Z"
                    fill="#D3EBFF"/>
                <path
                    d="M1348.01 416.818C1349.18 417.911 1350.34 419.004 1351.44 420.17L1346.33 425.198C1345.31 424.178 1344.29 423.158 1343.27 422.138L1348.01 416.818Z"
                    fill="#D3EBFF"/>
                <path
                    d="M1340.5 410.771C1341.81 411.645 1343.12 412.665 1344.36 413.612L1339.99 419.296C1338.9 418.422 1337.73 417.547 1336.49 416.746L1340.5 410.771Z"
                    fill="#D3EBFF"/>
                <path
                    d="M1332.19 405.961C1333.65 406.69 1335.03 407.418 1336.42 408.22L1332.84 414.487C1331.6 413.758 1330.36 413.102 1329.05 412.446L1332.19 405.961Z"
                    fill="#D3EBFF"/>
                <path
                    d="M1323.29 402.317C1324.82 402.827 1326.35 403.338 1327.81 403.993L1325.19 410.697C1323.88 410.187 1322.49 409.677 1321.18 409.24L1323.29 402.317Z"
                    fill="#D3EBFF"/>
                <path
                    d="M1313.96 399.985C1315.56 400.277 1317.09 400.568 1318.63 401.006L1316.95 408.074C1315.56 407.71 1314.18 407.418 1312.72 407.199L1313.96 399.985Z"
                    fill="#D3EBFF"/>
                <path
                    d="M1304.48 398.965C1306.08 399.038 1307.69 399.111 1309.22 399.257L1308.49 406.471C1307.1 406.325 1305.65 406.252 1304.19 406.18L1304.48 398.965Z"
                    fill="#D3EBFF"/>
                <path
                    d="M1294.93 399.33C1296.53 399.184 1298.06 399.038 1299.67 398.965L1299.96 406.18C1298.5 406.252 1297.11 406.325 1295.66 406.471L1294.93 399.33Z"
                    fill="#D3EBFF"/>
                <path
                    d="M1285.52 401.006C1287.05 400.641 1288.66 400.277 1290.19 399.985L1291.43 407.127C1290.04 407.345 1288.58 407.71 1287.2 408.001L1285.52 401.006Z"
                    fill="#D3EBFF"/>
                <path
                    d="M1276.41 404.066C1277.86 403.483 1279.4 402.9 1280.93 402.39L1283.11 409.313C1281.73 409.75 1280.42 410.26 1279.1 410.843L1276.41 404.066Z"
                    fill="#D3EBFF"/>
                <path
                    d="M1267.8 408.366C1269.19 407.564 1270.57 406.762 1272.03 406.034L1275.17 412.519C1273.85 413.175 1272.61 413.831 1271.38 414.56L1267.8 408.366Z"
                    fill="#D3EBFF"/>
                <path
                    d="M1259.85 413.831C1261.09 412.811 1262.41 411.863 1263.72 410.989L1267.73 416.964C1266.56 417.766 1265.4 418.64 1264.23 419.515L1259.85 413.831Z"
                    fill="#D3EBFF"/>
                <path
                    d="M1252.78 420.316C1253.88 419.15 1255.04 417.985 1256.21 416.964L1261.02 422.357C1259.93 423.304 1258.91 424.324 1257.96 425.417L1252.78 420.316Z"
                    fill="#D3EBFF"/>
                <path
                    d="M1246.66 427.822C1247.6 426.51 1248.55 425.199 1249.57 423.96L1255.04 428.624C1254.09 429.717 1253.22 430.883 1252.42 432.049L1246.66 427.822Z"
                    fill="#D3EBFF"/>
                <path
                    d="M1241.55 436.057C1242.28 434.599 1243.08 433.215 1243.96 431.83L1250.01 435.692C1249.28 436.931 1248.55 438.17 1247.9 439.481L1241.55 436.057Z"
                    fill="#D3EBFF"/>
                <path
                    d="M1237.69 444.947C1238.2 443.416 1238.85 441.886 1239.51 440.429L1246 443.344C1245.42 444.655 1244.91 446.04 1244.4 447.424L1237.69 444.947Z"
                    fill="#D3EBFF"/>
                <path
                    d="M1235.06 454.347C1235.43 452.744 1235.79 451.141 1236.23 449.61L1243.08 451.578C1242.72 452.962 1242.35 454.347 1242.06 455.804L1235.06 454.347Z"
                    fill="#D3EBFF"/>
                <path
                    d="M1233.75 463.966C1233.82 462.363 1234.04 460.687 1234.26 459.156L1241.33 460.176C1241.11 461.634 1240.97 463.091 1240.9 464.549L1233.75 463.966Z"
                    fill="#D3EBFF"/>
                <path
                    d="M1233.75 473.73C1233.6 472.127 1233.6 470.524 1233.6 468.848H1240.75C1240.75 470.306 1240.82 471.763 1240.9 473.22L1233.75 473.73Z"
                    fill="#D3EBFF"/>
                <path
                    d="M1235.06 483.349C1234.7 481.746 1234.48 480.143 1234.26 478.54L1241.33 477.52C1241.55 478.977 1241.77 480.434 1242.06 481.819L1235.06 483.349Z"
                    fill="#D3EBFF"/>
                <path
                    d="M1237.76 492.749C1237.25 491.219 1236.74 489.689 1236.3 488.086L1243.16 486.118C1243.52 487.503 1244.03 488.887 1244.47 490.272L1237.76 492.749Z"
                    fill="#D3EBFF"/>
                <path
                    d="M1241.63 501.567C1240.9 500.11 1240.17 498.652 1239.51 497.195L1246 494.207C1246.58 495.519 1247.24 496.83 1247.9 498.142L1241.63 501.567Z"
                    fill="#D3EBFF"/>
                <path
                    d="M1246.73 509.874C1245.78 508.562 1244.91 507.251 1244.03 505.866L1250.08 502.004C1250.81 503.243 1251.61 504.409 1252.49 505.647L1246.73 509.874Z"
                    fill="#D3EBFF"/>
                <path
                    d="M1252.85 517.307C1251.76 516.141 1250.67 514.902 1249.65 513.663L1255.11 509C1256.06 510.093 1257.01 511.186 1257.96 512.206L1252.85 517.307Z"
                    fill="#D3EBFF"/>
                <path
                    d="M1260 523.792C1258.76 522.772 1257.52 521.752 1256.35 520.659L1261.09 515.267C1262.19 516.214 1263.28 517.161 1264.38 518.109L1260 523.792Z"
                    fill="#D3EBFF"/>
                <path
                    d="M1267.95 529.258C1266.56 528.456 1265.18 527.582 1263.86 526.707L1267.88 520.732C1269.04 521.534 1270.28 522.335 1271.52 523.064L1267.95 529.258Z"
                    fill="#D3EBFF"/>
                <path
                    d="M1276.55 533.557C1275.09 532.974 1273.64 532.318 1272.18 531.589L1275.31 525.104C1276.63 525.76 1277.94 526.343 1279.25 526.853L1276.55 533.557Z"
                    fill="#D3EBFF"/>
                <path
                    d="M1285.67 536.544C1284.14 536.18 1282.6 535.67 1281.07 535.233L1283.26 528.31C1284.65 528.747 1285.96 529.184 1287.42 529.476L1285.67 536.544Z"
                    fill="#D3EBFF"/>
                <path
                    d="M1295.07 538.22C1293.47 538.075 1291.86 537.856 1290.33 537.565L1291.57 530.423C1292.96 530.642 1294.42 530.861 1295.8 531.006L1295.07 538.22Z"
                    fill="#D3EBFF"/>
                <path
                    d="M1304.63 538.512C1303.82 538.512 1303.02 538.585 1302.22 538.585C1301.42 538.585 1300.61 538.585 1299.89 538.512L1300.1 531.298C1300.83 531.298 1301.49 531.298 1302.22 531.298C1302.95 531.298 1303.68 531.298 1304.41 531.225L1304.63 538.512Z"
                    fill="#D3EBFF"/>
                <path
                    d="M1314.18 537.492C1312.65 537.783 1311.04 538.002 1309.44 538.148L1308.71 530.934C1310.17 530.788 1311.55 530.569 1312.94 530.351L1314.18 537.492Z"
                    fill="#D3EBFF"/>
                <path
                    d="M1323.44 535.16C1321.91 535.67 1320.38 536.107 1318.84 536.472L1317.09 529.403C1318.48 529.039 1319.86 528.675 1321.25 528.165L1323.44 535.16Z"
                    fill="#D3EBFF"/>
                <path
                    d="M1332.33 531.517C1330.88 532.245 1329.42 532.901 1327.96 533.484L1325.26 526.78C1326.57 526.197 1327.89 525.614 1329.2 525.031L1332.33 531.517Z"
                    fill="#D3EBFF"/>
                <path
                    d="M1340.57 526.634C1339.26 527.509 1337.88 528.383 1336.49 529.185L1332.92 522.918C1334.16 522.189 1335.4 521.388 1336.56 520.586L1340.57 526.634Z"
                    fill="#D3EBFF"/>
                <path
                    d="M1348.16 520.659C1346.99 521.752 1345.75 522.772 1344.51 523.792L1340.14 518.109C1341.23 517.234 1342.32 516.287 1343.42 515.267L1348.16 520.659Z"
                    fill="#D3EBFF"/>
                <path
                    d="M1354.79 513.663C1353.77 514.902 1352.68 516.141 1351.58 517.307L1346.48 512.279C1347.5 511.258 1348.45 510.165 1349.32 509L1354.79 513.663Z"
                    fill="#D3EBFF"/>
                <path
                    d="M1360.41 505.793C1359.53 507.178 1358.66 508.49 1357.71 509.801L1351.95 505.502C1352.82 504.336 1353.63 503.097 1354.35 501.858L1360.41 505.793Z"
                    fill="#D3EBFF"/>
                <path
                    d="M1364.93 497.122C1364.27 498.579 1363.54 500.037 1362.81 501.494L1356.54 498.069C1357.2 496.758 1357.85 495.446 1358.44 494.134L1364.93 497.122Z"
                    fill="#D3EBFF"/>
                <path
                    d="M1368.21 488.013C1367.77 489.616 1367.26 491.146 1366.75 492.677L1360.04 490.199C1360.55 488.814 1360.99 487.43 1361.35 486.045L1368.21 488.013Z"
                    fill="#D3EBFF"/>
                <path
                    d="M1370.18 478.467C1369.96 480.07 1369.67 481.673 1369.38 483.276L1362.38 481.746C1362.67 480.362 1362.89 478.904 1363.1 477.447L1370.18 478.467Z"
                    fill="#D3EBFF"/>
                <path
                    d="M1354.35 -235.153C1253.44 -224.951 1179.79 -133.499 1189.85 -30.8242C1199.84 71.7773 1289.82 146.761 1390.67 136.559C1491.58 126.357 1565.23 34.9048 1555.17 -67.7695C1545.76 -164.104 1465.92 -236.1 1372.73 -236.1C1366.68 -236.1 1360.48 -235.809 1354.35 -235.153Z"
                    fill="#D3EBFF"/>
            </g>
        </g>
    </g>
    <defs>
        <clipPath id="clip0_311_3">
            <rect width="1400" height="787" fill="white"/>
        </clipPath>
    </defs>
</svg>
