<svg viewBox="0 0 1400 787" fill="none" xmlns="http://www.w3.org/2000/svg">
    <g class="words__icons" x-ref="icons">
        <g id="icon">
            <path id="Vector"
                  d="M196.219 192.961C210.152 192.961 221.448 181.64 221.448 167.675C221.448 153.71 210.152 142.389 196.219 142.389C182.285 142.389 170.99 153.71 170.99 167.675C170.99 181.64 182.285 192.961 196.219 192.961Z"
                  fill="#D3EBFF"/>
            <path id="Vector_2"
                  d="M200.521 145.231C202.271 139.692 203.948 134.227 205.698 128.689C205.042 128.835 204.458 128.981 203.875 129.126C201.542 129.709 199.281 130.365 196.948 130.948C196.656 131.021 196.583 131.167 196.583 131.458C196.583 141.223 196.583 151.06 196.583 160.825C196.583 160.971 196.583 161.044 196.583 161.262C197.896 161.262 199.281 161.262 200.594 161.262C201.542 161.262 202.417 161.262 203.365 161.262C204.458 161.262 205.333 162.209 205.406 163.23C205.479 164.541 204.531 165.489 203.51 165.634C203.219 165.634 202.927 165.707 202.708 165.707C197.094 165.707 191.406 165.707 185.792 165.707C184.552 165.707 183.677 165.124 183.385 164.031C183.021 162.72 184.042 161.335 185.354 161.262C187.469 161.262 189.656 161.262 191.771 161.262C191.917 161.262 191.99 161.262 192.135 161.262C192.135 151.643 192.135 141.951 192.135 132.26C189 133.061 185.938 133.863 182.802 134.737C183.167 135.976 183.531 137.215 183.969 138.381C185.135 142.024 186.229 145.668 187.396 149.311C187.615 150.04 187.906 150.769 188.052 151.57C188.125 151.935 188.271 152.08 188.708 152.153C189.51 152.226 189.948 152.882 189.875 153.611C189.875 153.829 189.729 154.121 189.583 154.267C188.125 156.598 186.083 158.129 183.385 158.639C180.25 159.295 177.406 158.493 175.073 156.38C174.417 155.724 173.833 154.995 173.25 154.267C172.594 153.392 173.104 152.299 174.198 152.153C174.635 152.08 174.708 151.935 174.854 151.57C176.24 147.125 177.552 142.68 178.937 138.235C179.302 136.996 179.667 135.757 180.104 134.592C180.469 133.499 181.344 132.843 182.438 132.551C185.646 131.677 188.854 130.875 192.062 130.074C192.135 130.074 192.135 130.074 192.208 130.001C192.208 129.855 192.208 129.709 192.208 129.491C192.208 128.252 192.208 126.94 192.281 125.701C192.354 124.608 193.302 123.734 194.396 123.734C195.781 123.734 196.583 124.754 196.583 125.701C196.583 126.576 196.583 127.377 196.656 128.252C196.656 128.398 196.656 128.616 196.656 128.835C197.094 128.689 197.531 128.616 197.969 128.543C200.594 127.887 203.146 127.159 205.771 126.503C207.229 126.139 208.542 126.867 209.052 128.325C209.781 130.511 210.365 132.697 211.021 134.81C212.042 138.235 213.063 141.66 214.156 145.085C214.156 145.158 214.375 145.304 214.521 145.304C215.76 145.449 216.271 146.542 215.615 147.562C213.938 150.186 211.604 151.789 208.542 152.08C204.823 152.445 201.833 151.06 199.573 148C199.427 147.781 199.281 147.635 199.208 147.417C198.698 146.469 199.281 145.376 200.375 145.304C200.302 145.231 200.375 145.231 200.521 145.231ZM202.854 145.231C205.844 145.231 208.833 145.231 211.823 145.231C210.365 140.421 208.833 135.685 207.375 130.875C205.771 135.685 204.313 140.494 202.854 145.231ZM176.896 152.008C179.885 152.008 182.802 152.008 185.792 152.008C184.333 147.198 182.802 142.462 181.344 137.652C179.885 142.534 178.354 147.271 176.896 152.008Z"
                  fill="url(#paint0_linear_311_3)"/>
        </g>
        <g id="icon_2">
            <path id="Vector_3"
                  d="M840.51 106.318C854.444 106.318 865.74 95.0296 865.74 81.1048C865.74 67.1799 854.444 55.8916 840.51 55.8916C826.577 55.8916 815.281 67.1799 815.281 81.1048C815.281 95.0296 826.577 106.318 840.51 106.318Z"
                  fill="#D3EBFF"/>
            <path id="Vector_4"
                  d="M861.583 47.4385L833.656 92.7639H889.51L861.583 47.4385ZM878.719 84.9667C879.156 83.9465 879.74 83.145 880.396 82.7077L885.063 90.2863H878.208C877.917 88.4645 878.063 86.497 878.719 84.9667ZM879.083 80.5945C877.99 81.3232 877.042 82.4891 876.385 84.0194C875.656 85.8412 875.365 88.173 875.656 90.2863H847.729C848.021 88.173 847.729 85.8412 847 84.0194C846.344 82.4891 845.396 81.2503 844.229 80.5216L861.656 52.2479L879.083 80.5945ZM842.844 82.6349C843.5 83.0721 844.156 83.8737 844.594 84.8938C845.25 86.4241 845.396 88.3916 845.104 90.2134H838.104L842.844 82.6349Z"
                  fill="url(#paint1_linear_311_3)"/>
        </g>
        <g id="icon_3">
            <path id="Vector_5"
                  d="M1186.79 189.026C1200.73 189.026 1212.02 177.705 1212.02 163.74C1212.02 149.775 1200.73 138.454 1186.79 138.454C1172.86 138.454 1161.56 149.775 1161.56 163.74C1161.56 177.705 1172.86 189.026 1186.79 189.026Z"
                  fill="#D3EBFF"/>
            <g id="Group">
                <path id="Vector_6" d="M1174.91 128.543L1175.93 131.677H1173.89L1174.91 128.543Z"
                      fill="url(#paint2_linear_311_3)"/>
                <path id="Vector_7"
                      d="M1201.16 143.7C1201.45 143.409 1201.74 143.117 1202.03 142.826C1204.29 140.276 1205.9 137.215 1206.62 133.863C1206.99 132.406 1207.14 130.875 1207.14 129.345C1207.14 118.123 1198.02 109.014 1186.72 109.014C1175.49 109.014 1166.37 118.123 1166.37 129.345C1166.37 140.567 1175.49 149.676 1186.72 149.676C1188.61 149.676 1190.44 149.384 1192.26 148.874C1192.7 148.729 1193.14 148.583 1193.5 148.437C1193.72 148.364 1193.94 148.218 1194.16 148.218C1194.37 148.218 1194.37 148.291 1194.52 148.51C1195.03 149.239 1195.69 149.822 1196.42 150.405C1197.44 151.133 1198.53 151.789 1199.7 152.153C1200.86 152.518 1202.18 152.664 1203.42 152.372C1202.91 152.226 1202.54 151.862 1202.18 151.498C1201.08 150.113 1200.43 148.437 1200.28 146.688C1200.21 145.959 1200.14 144.866 1200.5 144.211C1200.72 143.992 1200.94 143.919 1201.16 143.7ZM1177.02 134.883L1176.44 132.989H1173.45L1172.86 134.883H1171.04L1173.89 126.722H1176.15L1178.99 134.883H1177.02ZM1192.99 132.187H1181.76V130.802H1192.99V132.187ZM1199.55 131.968L1198.02 134.883H1196.12L1197.87 131.677H1197.8C1197.36 131.458 1197 131.167 1196.78 130.802C1196.56 130.438 1196.42 129.928 1196.42 129.418C1196.42 128.908 1196.56 128.398 1196.78 128.033C1197 127.596 1197.36 127.305 1197.8 127.086C1198.24 126.867 1198.75 126.722 1199.41 126.722H1202.61V134.883H1200.86V131.968H1199.55ZM1200.86 128.106H1199.7C1199.33 128.106 1199.11 128.179 1198.9 128.252C1198.68 128.325 1198.53 128.471 1198.39 128.689C1198.24 128.908 1198.24 129.126 1198.24 129.345C1198.24 129.636 1198.31 129.855 1198.39 130.001C1198.53 130.147 1198.68 130.292 1198.9 130.438C1199.11 130.511 1199.41 130.584 1199.7 130.584H1200.86V128.106Z"
                      fill="url(#paint3_linear_311_3)"/>
                <path id="Vector_8" d="M1189.64 128.471H1184.6V130.292H1189.64V128.471Z"
                      fill="url(#paint4_linear_311_3)"/>
            </g>
        </g>
        <g id="icon_4">
            <path id="Vector_9"
                  d="M538.271 278.438C552.205 278.438 563.5 267.149 563.5 253.224C563.5 239.3 552.205 228.011 538.271 228.011C524.337 228.011 513.042 239.3 513.042 253.224C513.042 267.149 524.337 278.438 538.271 278.438Z"
                  fill="#D3EBFF"/>
            <path id="Vector_10"
                  d="M541.917 237.12C541.042 237.703 540.312 238.504 539.729 239.306V233.549C546.802 232.602 552.271 226.554 552.271 219.267C552.271 211.324 545.781 204.838 537.833 204.838C529.885 204.838 523.396 211.324 523.396 219.267C523.396 226.699 529.01 232.821 536.229 233.622V240.326C535.5 239.16 534.479 237.994 533.167 237.193C529.448 234.788 524.563 235.59 524.563 235.59C524.563 235.59 525.729 240.399 529.448 242.804C531.708 244.334 534.479 244.553 536.229 244.553V250.528C536.229 251.475 537.031 252.277 537.979 252.277C538.927 252.277 539.729 251.475 539.729 250.528V244.698C541.479 244.626 543.812 244.188 545.854 242.804C549.5 240.253 550.448 235.371 550.448 235.371C550.448 235.371 545.562 234.569 541.917 237.12ZM530.979 219.194C530.979 215.405 534.042 212.271 537.906 212.271C541.698 212.271 544.833 215.405 544.833 219.194C544.833 222.983 541.771 226.117 537.906 226.117C534.042 226.117 530.979 222.983 530.979 219.194Z"
                  fill="url(#paint5_linear_311_3)"/>
        </g>
        <g id="icon_5">
            <path id="Vector_11"
                  d="M152.687 404.576C166.621 404.576 177.917 393.255 177.917 379.29C177.917 365.325 166.621 354.004 152.687 354.004C138.754 354.004 127.458 365.325 127.458 379.29C127.458 393.255 138.754 404.576 152.687 404.576Z"
                  fill="#D3EBFF"/>
            <g id="Group_2">
                <path id="Vector_12"
                      d="M137.156 382.934C135.042 382.934 133.365 381.258 133.365 379.144V351.599C133.365 349.486 135.042 347.81 137.156 347.81C139.271 347.81 140.948 349.486 140.948 351.599V379.144C140.875 381.258 139.198 382.934 137.156 382.934Z"
                      fill="url(#paint6_linear_311_3)"/>
                <path id="Vector_13"
                      d="M152.177 382.934C150.063 382.934 148.385 381.258 148.385 379.144V351.599C148.385 349.486 150.063 347.81 152.177 347.81C154.292 347.81 155.969 349.486 155.969 351.599V379.144C155.969 381.258 154.292 382.934 152.177 382.934Z"
                      fill="url(#paint7_linear_311_3)"/>
                <path id="Vector_14"
                      d="M167.708 382.934C165.594 382.934 163.917 381.258 163.917 379.144V351.599C163.917 349.486 165.594 347.81 167.708 347.81C169.823 347.81 171.5 349.486 171.5 351.599V379.144C171.5 381.258 169.823 382.934 167.708 382.934Z"
                      fill="url(#paint8_linear_311_3)"/>
                <path id="Vector_15"
                      d="M122.354 339.066C122.354 336.952 124.031 335.276 126.146 335.276H179.302C181.417 335.276 183.094 336.952 183.094 339.066C183.094 341.179 181.417 342.855 179.302 342.855H126.146C124.031 342.855 122.354 341.106 122.354 339.066Z"
                      fill="url(#paint9_linear_311_3)"/>
            </g>
        </g>
        <g id="icon_6">
            <path id="Vector_16"
                  d="M965.052 365.226C978.986 365.226 990.281 353.905 990.281 339.94C990.281 325.975 978.986 314.654 965.052 314.654C951.118 314.654 939.823 325.975 939.823 339.94C939.823 353.905 951.118 365.226 965.052 365.226Z"
                  fill="#D3EBFF"/>
            <path id="Vector_17"
                  d="M984.01 341.179L976.281 327.771L969.281 315.601V306.784H970.302C970.958 306.784 971.542 306.201 971.542 305.545V304.088C971.542 303.432 970.958 302.849 970.302 302.849H969.281H960.896H959.875C959.219 302.849 958.635 303.432 958.635 304.088V305.545C958.635 306.201 959.219 306.784 959.875 306.784H960.896V315.601L953.896 327.771L946.167 341.179C944.635 343.875 946.531 347.154 949.667 347.154H965.198H980.729C983.646 347.154 985.542 343.875 984.01 341.179Z"
                  fill="url(#paint10_linear_311_3)"/>
        </g>
        <g id="icon_7">
            <path id="Vector_18"
                  d="M222.688 605.116C236.621 605.116 247.917 593.827 247.917 579.903C247.917 565.978 236.621 554.689 222.688 554.689C208.754 554.689 197.458 565.978 197.458 579.903C197.458 593.827 208.754 605.116 222.688 605.116Z"
                  fill="#D3EBFF"/>
            <path id="Vector_19"
                  d="M240.333 540.844C239.969 538.804 238 537.419 235.958 537.856L208.323 543.03C206.281 543.394 204.896 545.362 205.333 547.402C205.698 549.443 207.667 550.827 209.708 550.39L212.042 549.953V571.158C211.531 571.012 211.094 570.939 210.51 570.939C207.74 570.939 205.479 573.198 205.479 575.967C205.479 578.737 207.74 580.995 210.51 580.995C213.281 580.995 215.542 578.737 215.542 575.967C215.542 575.603 215.542 575.312 215.469 574.947H215.542V549.297L230.125 546.601V566.057C229.833 565.984 229.469 565.984 229.104 565.984C226.333 565.984 224.073 568.243 224.073 571.012C224.073 573.781 226.333 576.04 229.104 576.04C231.875 576.04 234.135 573.781 234.135 571.012C234.135 570.211 233.917 569.482 233.625 568.826V545.945L237.344 545.216C239.385 544.852 240.771 542.884 240.333 540.844Z"
                  fill="url(#paint11_linear_311_3)"/>
        </g>
        <g id="icon_8">
            <path id="Vector_20"
                  d="M297.135 741.164C311.069 741.164 322.365 729.843 322.365 715.878C322.365 701.913 311.069 690.592 297.135 690.592C283.202 690.592 271.906 701.913 271.906 715.878C271.906 729.843 283.202 741.164 297.135 741.164Z"
                  fill="#D3EBFF"/>
            <path id="Vector_21"
                  d="M276.865 687.167C279.781 687.167 279.708 687.167 280.802 684.471C281.167 683.597 281.458 682.722 281.969 681.994C282.625 681.046 282.406 680.318 281.604 679.589C280.656 678.787 279.854 677.84 278.979 676.966C278.177 676.237 278.177 675.581 278.979 674.78C279.854 673.978 280.583 673.103 281.458 672.302C282.333 671.427 282.844 671.427 283.719 672.375C284.667 673.322 285.615 674.197 286.49 675.144C287.073 675.8 287.656 675.8 288.458 675.435C289.844 674.78 291.375 674.197 292.833 673.614C293.563 673.322 293.927 672.958 293.854 672.229C293.854 670.845 293.854 669.46 293.854 668.075C293.854 667.055 294.365 666.472 295.385 666.545C296.552 666.545 297.792 666.545 298.958 666.545C299.979 666.545 300.417 667.055 300.417 668.075C300.417 669.46 300.417 670.845 300.417 672.229C300.417 673.031 300.781 673.468 301.51 673.686C302.969 674.197 304.354 674.78 305.74 675.435C306.542 675.873 307.125 675.8 307.781 675.144C308.656 674.197 309.677 673.322 310.552 672.375C311.281 671.646 311.938 671.573 312.74 672.302C313.615 673.176 314.49 674.051 315.365 674.925C316.021 675.581 316.021 676.237 315.365 676.82C314.344 677.767 313.396 678.787 312.375 679.735C311.719 680.391 311.719 680.973 312.083 681.775C312.74 683.087 313.323 684.471 313.833 685.929C314.125 686.803 314.563 687.167 315.51 687.095C316.823 687.022 318.135 687.095 319.448 687.095C320.615 687.095 321.052 687.532 321.052 688.698C321.052 689.791 321.052 690.957 321.052 692.05C321.052 693.289 320.688 693.653 319.448 693.653C318.063 693.653 316.75 693.653 315.365 693.653C314.563 693.653 314.125 693.944 313.833 694.746C313.323 696.203 312.667 697.661 312.01 699.118C311.646 699.847 311.646 700.43 312.302 701.013C313.323 701.96 314.271 702.98 315.292 703.928C316.021 704.656 316.021 705.312 315.292 706.041C314.417 706.842 313.615 707.717 312.74 708.591C312.01 709.393 311.281 709.32 310.552 708.518C309.677 707.571 308.656 706.697 307.781 705.749C307.125 705.094 306.542 705.021 305.74 705.458C304.354 706.114 302.896 706.697 301.51 707.207C300.708 707.498 300.344 707.863 300.417 708.664C300.49 710.049 300.417 711.433 300.417 712.818C300.417 713.838 299.979 714.348 298.958 714.348C297.719 714.348 296.479 714.348 295.24 714.348C294.292 714.348 293.854 713.838 293.781 712.891C293.781 711.506 293.708 710.122 293.781 708.737C293.781 707.863 293.49 707.425 292.615 707.207C291.229 706.77 289.771 706.187 288.458 705.531C287.583 705.094 287 705.166 286.344 705.822C285.469 706.77 284.594 707.644 283.646 708.518C282.771 709.393 282.26 709.393 281.385 708.591C280.51 707.79 279.708 706.915 278.833 706.041C278.177 705.385 278.177 704.729 278.833 704.073C279.854 703.126 280.802 702.106 281.823 701.159C282.479 700.576 282.479 699.993 282.115 699.191C281.458 697.807 280.875 696.422 280.365 694.965C280.073 694.09 279.635 693.799 278.76 693.799C277.375 693.872 276.063 693.799 274.677 693.799C273.583 693.799 273.146 693.289 273.146 692.268C273.146 691.102 273.146 689.937 273.146 688.771C273.146 687.678 273.656 687.167 274.677 687.167C275.406 687.167 276.135 687.167 276.865 687.167ZM297.135 701.304C303.115 701.304 307.927 696.495 307.927 690.519C307.927 684.544 303.115 679.735 297.135 679.735C291.083 679.735 286.271 684.544 286.271 690.592C286.271 696.568 291.156 701.304 297.135 701.304Z"
                  fill="url(#paint12_linear_311_3)"/>
        </g>
        <g id="icon_9">
            <path id="Vector_22"
                  d="M503.781 686.001C517.715 686.001 529.01 674.68 529.01 660.715C529.01 646.75 517.715 635.429 503.781 635.429C489.848 635.429 478.552 646.75 478.552 660.715C478.552 674.68 489.848 686.001 503.781 686.001Z"
                  fill="#D3EBFF"/>
            <g id="Group_3">
                <path id="Vector_23"
                      d="M502.833 666.909C502.177 666.909 501.667 666.399 501.667 665.743V656.999C501.667 656.343 502.177 655.833 502.833 655.833C503.49 655.833 504 656.343 504 656.999V665.743C504 666.399 503.49 666.909 502.833 666.909Z"
                      fill="url(#paint13_linear_311_3)"/>
                <path id="Vector_24"
                      d="M507.5 627.414C506.479 628.58 505.75 629.964 505.094 631.422C505.313 630.911 505.312 630.183 505.385 629.6C505.531 629.017 505.677 628.361 505.823 627.778C506.406 625.592 507.354 623.479 508.667 621.657C508.885 621.293 509.25 620.782 509.615 620.491C509.25 617.795 509.177 614.953 510.052 612.694C500.938 613.058 496.781 624.936 496.781 628.798V653.866C496.781 657.728 503.781 660.861 503.781 660.861C503.781 660.861 503.854 660.861 504 660.788V634.701C504 634.045 504.51 633.535 505.167 633.535C505.823 633.535 506.333 634.045 506.333 634.701V659.477C508.375 658.165 510.854 656.125 510.854 653.793V628.725C510.854 627.705 510.635 626.466 510.417 625.009C509.25 625.665 508.302 626.466 507.5 627.414Z"
                      fill="url(#paint14_linear_311_3)"/>
            </g>
        </g>
        <g id="icon_10">
            <path id="Vector_25"
                  d="M846.635 735.918C860.569 735.918 871.865 724.597 871.865 710.632C871.865 696.667 860.569 685.346 846.635 685.346C832.702 685.346 821.406 696.667 821.406 710.632C821.406 724.597 832.702 735.918 846.635 735.918Z"
                  fill="#D3EBFF"/>
            <path id="Vector_26"
                  d="M876.75 669.606H823.594C821.479 669.606 819.802 671.282 819.802 673.395C819.802 675.508 821.479 677.184 823.594 677.184H833L820.021 695.985C819.51 695.839 818.927 695.766 818.344 695.766C815.281 695.766 812.802 698.244 812.802 701.305C812.802 704.365 815.281 706.843 818.344 706.843C821.406 706.843 823.885 704.365 823.885 701.305C823.885 699.92 823.375 698.681 822.5 697.661L836.646 677.184H846.927V704.511C844.594 705.167 842.917 707.28 842.917 709.83C842.917 712.891 845.396 715.369 848.458 715.369C851.521 715.369 854 712.891 854 709.83C854 707.28 852.323 705.167 849.99 704.511V677.184H862.021V704.511C859.687 705.167 858.01 707.28 858.01 709.83C858.01 712.891 860.49 715.369 863.552 715.369C866.615 715.369 869.094 712.891 869.094 709.83C869.094 707.28 867.417 705.167 865.083 704.511V677.184H876.896C879.01 677.184 880.688 675.508 880.688 673.395C880.469 671.282 878.792 669.606 876.75 669.606Z"
                  fill="url(#paint15_linear_311_3)"/>
        </g>
        <g id="icon_11">
            <path id="Vector_27"
                  d="M1282.39 643.882C1296.32 643.882 1307.61 632.561 1307.61 618.596C1307.61 604.631 1296.32 593.31 1282.39 593.31C1268.45 593.31 1257.16 604.631 1257.16 618.596C1257.16 632.561 1268.45 643.882 1282.39 643.882Z"
                  fill="#D3EBFF"/>
            <path id="Vector_28"
                  d="M1282.39 579.465C1272.32 579.465 1264.16 587.626 1264.16 597.682C1264.16 607.739 1282.39 626.831 1282.39 626.831C1282.39 626.831 1300.61 607.739 1300.61 597.682C1300.61 587.699 1292.45 579.465 1282.39 579.465ZM1282.39 604.532C1278.23 604.532 1274.87 601.18 1274.87 597.027C1274.87 592.873 1278.23 589.521 1282.39 589.521C1286.54 589.521 1289.9 592.873 1289.9 597.027C1289.9 601.18 1286.54 604.532 1282.39 604.532Z"
                  fill="url(#paint16_linear_311_3)"/>
        </g>
    </g>
    <g class="words__heading">
        <text fill="#183B59" xml:space="preserve" style="white-space: pre" font-family="Inter" font-size="45"
              font-weight="bold" letter-spacing="0em"><tspan x="577.374" y="374.364">&#x411;&#x438;&#x431;&#x43b;&#x438;&#x43e;&#x442;&#x435;&#x43a;&#x430;&#10;</tspan></text>
        <text fill="#183B59" xml:space="preserve" style="white-space: pre" font-family="Inter" font-size="25"
              letter-spacing="0em"><tspan x="530.066" y="404.364">&#x446;&#x438;&#x444;&#x440;&#x43e;&#x432;&#x43e;&#x433;&#x43e; &#x43e;&#x431;&#x440;&#x430;&#x437;&#x43e;&#x432;&#x430;&#x442;&#x435;&#x43b;&#x44c;&#x43d;&#x43e;&#x433;&#x43e;&#10;</tspan>
            <tspan x="657.667" y="434.364">&#x43a;&#x43e;&#x43d;&#x442;&#x435;&#x43d;&#x442;&#x430;</tspan></text>
    </g>
    <g class="words__list" x-ref="list">
        <g class="words__item">
            <path id="Vector_29" opacity="0.5"
                  d="M396.74 123.37H258.563C250.542 123.37 243.979 116.812 243.979 108.796V107.265C243.979 99.2497 250.542 92.6914 258.563 92.6914H396.667C404.688 92.6914 411.25 99.2497 411.25 107.265V108.796C411.323 116.812 404.76 123.37 396.74 123.37Z"
                  fill="#D3EBFF"/>
            <text
                id="&#208;&#163;&#208;&#189;&#208;&#184;&#208;&#178;&#208;&#181;&#209;&#128;&#209;&#129;&#208;&#176;&#208;&#187;&#209;&#140;&#208;&#189;&#208;&#176;&#209;&#143;"
                fill="#183B59" xml:space="preserve" style="white-space: pre" font-family="Inter" font-size="18"
                letter-spacing="0em"><tspan x="262.605" y="113.545">&#x423;&#x43d;&#x438;&#x432;&#x435;&#x440;&#x441;&#x430;&#x43b;&#x44c;&#x43d;&#x430;&#x44f;</tspan></text>
        </g>
        <g class="words__item">
            <path id="Vector_30" opacity="0.5"
                  d="M761.396 113.969H515.083C507.062 113.969 500.5 107.411 500.5 99.3954V97.8651C500.5 89.8493 507.062 83.291 515.083 83.291H761.323C769.344 83.291 775.906 89.8493 775.906 97.8651V99.3954C775.979 107.411 769.417 113.969 761.396 113.969Z"
                  fill="#D3EBFF"/>
            <text
                id="&#208;&#152;&#208;&#189;&#208;&#180;&#208;&#184;&#208;&#178;&#208;&#184;&#208;&#180;&#209;&#131;&#208;&#176;&#208;&#187;&#209;&#140;&#208;&#189;&#208;&#190;&#208;&#181; &#208;&#190;&#208;&#177;&#209;&#131;&#209;&#135;&#208;&#181;&#208;&#189;&#208;&#184;&#208;&#181;"
                fill="#183B59" xml:space="preserve" style="white-space: pre" font-family="Inter" font-size="18"
                letter-spacing="0em"><tspan x="517.065" y="103.545">&#x418;&#x43d;&#x434;&#x438;&#x432;&#x438;&#x434;&#x443;&#x430;&#x43b;&#x44c;&#x43d;&#x43e;&#x435; &#x43e;&#x431;&#x443;&#x447;&#x435;&#x43d;&#x438;&#x435;</tspan></text>
        </g>
        <g class="words__item">
            <path id="Vector_31" opacity="0.5"
                  d="M1121.75 116.666H1013.69C1005.67 116.666 999.104 110.107 999.104 102.092V100.561C999.104 92.5456 1005.67 85.9873 1013.69 85.9873H1121.75C1129.77 85.9873 1136.33 92.5456 1136.33 100.561V102.092C1136.33 110.107 1129.77 116.666 1121.75 116.666Z"
                  fill="#D3EBFF"/>
            <text
                id="&#208;&#162;&#209;&#128;&#208;&#181;&#208;&#189;&#208;&#176;&#208;&#182;&#208;&#181;&#209;&#128;&#209;&#139;"
                fill="#183B59" xml:space="preserve" style="white-space: pre" font-family="Inter" font-size="18"
                letter-spacing="0em"><tspan x="1012.99" y="107.545">&#x422;&#x440;&#x435;&#x43d;&#x430;&#x436;&#x435;&#x440;&#x44b;</tspan></text>
        </g>
        <g class="words__item">
            <path id="Vector_32" opacity="0.5"
                  d="M473.375 203.527H328.052C320.031 203.527 313.469 196.969 313.469 188.953V187.423C313.469 179.407 320.031 172.849 328.052 172.849H473.375C481.396 172.849 487.958 179.407 487.958 187.423V188.953C487.958 196.969 481.396 203.527 473.375 203.527Z"
                  fill="#D3EBFF"/>
            <text
                id="&#208;&#158;&#208;&#177;&#209;&#137;&#208;&#181;&#208;&#180;&#208;&#190;&#209;&#129;&#209;&#130;&#209;&#131;&#208;&#191;&#208;&#189;&#208;&#176;&#209;&#143;"
                fill="#183B59" xml:space="preserve" style="white-space: pre" font-family="Inter" font-size="18"
                letter-spacing="0em"><tspan x="329.527" y="193.545">&#x41e;&#x431;&#x449;&#x435;&#x434;&#x43e;&#x441;&#x442;&#x443;&#x43f;&#x43d;&#x430;&#x44f;</tspan></text>
        </g>
        <g class="words__item">
            <path id="Vector_33" opacity="0.5"
                  d="M703.208 193.69H572.323C564.302 193.69 557.74 187.131 557.74 179.116V177.585C557.74 169.57 564.302 163.011 572.323 163.011H703.208C711.229 163.011 717.792 169.57 717.792 177.585V179.116C717.792 187.131 711.229 193.69 703.208 193.69Z"
                  fill="#D3EBFF"/>
            <text
                id="&#208;&#146;&#209;&#129;&#208;&#181; &#208;&#191;&#209;&#128;&#208;&#181;&#208;&#180;&#208;&#188;&#208;&#181;&#209;&#130;&#209;&#139;"
                fill="#183B59" xml:space="preserve" style="white-space: pre" font-family="Inter" font-size="18"
                letter-spacing="0em"><tspan x="575.402" y="183.545">&#x412;&#x441;&#x435; &#x43f;&#x440;&#x435;&#x434;&#x43c;&#x435;&#x442;&#x44b;</tspan></text>
        </g>
        <g class="words__item">
            <path id="Vector_34" opacity="0.5"
                  d="M966.365 184.872H807.844C799.823 184.872 793.26 178.314 793.26 170.298V168.768C793.26 160.752 799.823 154.194 807.844 154.194H966.365C974.386 154.194 980.948 160.752 980.948 168.768V170.298C980.948 178.314 974.386 184.872 966.365 184.872Z"
                  fill="#D3EBFF"/>
            <text
                id="&#208;&#161;&#208;&#176;&#208;&#188;&#208;&#190;&#208;&#180;&#208;&#184;&#208;&#176;&#208;&#179;&#208;&#189;&#208;&#190;&#209;&#129;&#209;&#130;&#208;&#184;&#208;&#186;&#208;&#176;"
                fill="#183B59" xml:space="preserve" style="white-space: pre" font-family="Inter" font-size="18"
                letter-spacing="0em"><tspan x="806.459" y="175.545">&#x421;&#x430;&#x43c;&#x43e;&#x434;&#x438;&#x430;&#x433;&#x43d;&#x43e;&#x441;&#x442;&#x438;&#x43a;&#x430;</tspan></text>
        </g>
        <g class="words__item">
            <path id="Vector_35" opacity="0.5"
                  d="M351.677 272.463H247.26C239.24 272.463 232.677 265.904 232.677 257.889V256.358C232.677 248.343 239.24 241.784 247.26 241.784H351.75C359.771 241.784 366.333 248.343 366.333 256.358V257.889C366.26 265.904 359.698 272.463 351.677 272.463Z"
                  fill="#D3EBFF"/>
            <text
                id="&#208;&#145;&#208;&#181;&#209;&#129;&#208;&#191;&#208;&#187;&#208;&#176;&#209;&#130;&#208;&#189;&#208;&#176;&#209;&#143;"
                fill="#183B59" xml:space="preserve" style="white-space: pre" font-family="Inter" font-size="18"
                letter-spacing="0em"><tspan x="247.399" y="262.545">&#x411;&#x435;&#x441;&#x43f;&#x43b;&#x430;&#x442;&#x43d;&#x430;&#x44f;</tspan></text>
        </g>
        <g class="words__item">
            <path id="Vector_36" opacity="0.5"
                  d="M804.052 268.965H629.927C621.906 268.965 615.344 262.406 615.344 254.39V252.86C615.344 244.844 621.906 238.286 629.927 238.286H804.125C812.146 238.286 818.708 244.844 818.708 252.86V254.39C818.635 262.406 812.073 268.965 804.052 268.965Z"
                  fill="#D3EBFF"/>
            <text
                id="&#208;&#148;&#208;&#190;&#208;&#188;&#208;&#176;&#209;&#136;&#208;&#189;&#208;&#184;&#208;&#181; &#208;&#183;&#208;&#176;&#208;&#180;&#208;&#176;&#208;&#189;&#208;&#184;&#209;&#143;"
                fill="#183B59" xml:space="preserve" style="white-space: pre" font-family="Inter" font-size="18"
                letter-spacing="0em"><tspan x="631.456" y="260.545">&#x414;&#x43e;&#x43c;&#x430;&#x448;&#x43d;&#x438;&#x435; &#x437;&#x430;&#x434;&#x430;&#x43d;&#x438;&#x44f;</tspan></text>
        </g>
        <g class="words__item">
            <path id="Vector_37" opacity="0.5"
                  d="M1156.68 253.225H881.563C873.542 253.225 866.979 246.666 866.979 238.651V237.12C866.979 229.105 873.542 222.546 881.563 222.546H1156.68C1164.7 222.546 1171.26 229.105 1171.26 237.12V238.651C1171.26 246.666 1164.7 253.225 1156.68 253.225Z"
                  fill="#D3EBFF"/>
            <text
                id="&#208;&#145;&#208;&#181;&#208;&#183;&#208;&#190;&#208;&#191;&#208;&#176;&#209;&#129;&#208;&#189;&#209;&#139;&#208;&#185; &#209;&#134;&#208;&#184;&#209;&#132;&#209;&#128;&#208;&#190;&#208;&#178;&#208;&#190;&#208;&#185; &#209;&#129;&#208;&#181;&#209;&#128;&#208;&#178;&#208;&#184;&#209;&#129;"
                fill="#183B59" xml:space="preserve" style="white-space: pre" font-family="Inter" font-size="18"
                letter-spacing="0em"><tspan x="884.357" y="243.545">&#x411;&#x435;&#x437;&#x43e;&#x43f;&#x430;&#x441;&#x43d;&#x44b;&#x439; &#x446;&#x438;&#x444;&#x440;&#x43e;&#x432;&#x43e;&#x439; &#x441;&#x435;&#x440;&#x432;&#x438;&#x441;&#13;&#10;</tspan></text>
        </g>
        <g class="words__item">
            <path id="Vector_38" opacity="0.5"
                  d="M474.323 331.925H178.792C170.771 331.925 164.208 325.366 164.208 317.35V315.82C164.208 307.804 170.771 301.246 178.792 301.246H474.323C482.344 301.246 488.906 307.804 488.906 315.82V317.35C488.906 325.366 482.344 331.925 474.323 331.925Z"
                  fill="#D3EBFF"/>
            <text
                id="&#208;&#154;&#208;&#190;&#208;&#189;&#209;&#130;&#208;&#181;&#208;&#189;&#209;&#130; &#208;&#191;&#209;&#128;&#208;&#190;&#209;&#136;&#208;&#181;&#208;&#180;&#209;&#136;&#208;&#184;&#208;&#185; &#209;&#141;&#208;&#186;&#209;&#129;&#208;&#191;&#208;&#181;&#209;&#128;&#209;&#130;&#208;&#184;&#208;&#183;&#209;&#131;"
                fill="#183B59" xml:space="preserve" style="white-space: pre" font-family="Inter" font-size="18"
                letter-spacing="0em"><tspan x="185.323" y="322.545">&#x41a;&#x43e;&#x43d;&#x442;&#x435;&#x43d;&#x442; &#x43f;&#x440;&#x43e;&#x448;&#x435;&#x434;&#x448;&#x438;&#x439; &#x44d;&#x43a;&#x441;&#x43f;&#x435;&#x440;&#x442;&#x438;&#x437;&#x443;&#13;&#10;</tspan></text>
        </g>
        <g class="words__item">
            <path id="Vector_39" opacity="0.5"
                  d="M1238.27 320.339H1034.03C1026.01 320.339 1019.45 313.78 1019.45 305.765V304.234C1019.45 296.218 1026.01 289.66 1034.03 289.66H1238.27C1246.29 289.66 1252.85 296.218 1252.85 304.234V305.765C1252.85 313.78 1246.29 320.339 1238.27 320.339Z"
                  fill="#D3EBFF"/>
            <text
                id="&#208;&#154;&#208;&#176;&#209;&#130;&#208;&#176;&#208;&#187;&#208;&#190;&#208;&#179; &#208;&#191;&#208;&#190; &#208;&#191;&#209;&#128;&#208;&#181;&#208;&#180;&#208;&#188;&#208;&#181;&#209;&#130;&#208;&#176;&#208;&#188;"
                fill="#183B59" xml:space="preserve" style="white-space: pre" font-family="Inter" font-size="18"
                letter-spacing="0em"><tspan x="1034.63" y="311.545">&#x41a;&#x430;&#x442;&#x430;&#x43b;&#x43e;&#x433; &#x43f;&#x43e; &#x43f;&#x440;&#x435;&#x434;&#x43c;&#x435;&#x442;&#x430;&#x43c;</tspan></text>
        </g>
        <g class="words__item">
            <path id="Vector_40" opacity="0.5"
                  d="M374.5 428.915H179.885C171.865 428.915 165.302 422.357 165.302 414.341V412.811C165.302 404.795 171.865 398.237 179.885 398.237H374.5C382.521 398.237 389.083 404.795 389.083 412.811V414.341C389.083 422.357 382.521 428.915 374.5 428.915Z"
                  fill="#D3EBFF"/>
            <text
                id="&#208;&#161;&#208;&#188;&#208;&#181;&#209;&#136;&#208;&#176;&#208;&#189;&#208;&#189;&#208;&#190;&#208;&#181; &#208;&#190;&#208;&#177;&#209;&#131;&#209;&#135;&#208;&#181;&#208;&#189;&#208;&#184;&#208;&#181;"
                fill="#183B59" xml:space="preserve" style="white-space: pre" font-family="Inter" font-size="18"
                letter-spacing="0em"><tspan x="180.137" y="418.545">&#x421;&#x43c;&#x435;&#x448;&#x430;&#x43d;&#x43d;&#x43e;&#x435; &#x43e;&#x431;&#x443;&#x447;&#x435;&#x43d;&#x438;&#x435;</tspan></text>
        </g>
        <g class="words__item">
            <path id="Vector_41" opacity="0.5"
                  d="M1192.7 394.01H1070.2C1062.18 394.01 1055.61 387.452 1055.61 379.436V377.906C1055.61 369.89 1062.18 363.332 1070.2 363.332H1192.7C1200.72 363.332 1207.28 369.89 1207.28 377.906V379.436C1207.28 387.452 1200.72 394.01 1192.7 394.01Z"
                  fill="#D3EBFF"/>
            <text
                id="&#208;&#152;&#208;&#189;&#209;&#132;&#208;&#190;&#208;&#179;&#209;&#128;&#208;&#176;&#209;&#132;&#208;&#184;&#208;&#186;&#208;&#176;"
                fill="#183B59" xml:space="preserve" style="white-space: pre" font-family="Inter" font-size="18"
                letter-spacing="0em"><tspan x="1071.4" y="382.545">&#x418;&#x43d;&#x444;&#x43e;&#x433;&#x440;&#x430;&#x444;&#x438;&#x43a;&#x430;</tspan></text>
        </g>
        <g class="words__item">
            <path id="Vector_42" opacity="0.5"
                  d="M482.344 517.817H251.708C243.687 517.817 237.125 511.259 237.125 503.243V501.713C237.125 493.697 243.687 487.139 251.708 487.139H482.344C490.365 487.139 496.927 493.697 496.927 501.713V503.243C496.927 511.259 490.365 517.817 482.344 517.817Z"
                  fill="#D3EBFF"/>
            <text
                id="&#208;&#148;&#208;&#184;&#209;&#129;&#209;&#130;&#208;&#176;&#208;&#189;&#209;&#134;&#208;&#184;&#208;&#190;&#208;&#189;&#208;&#189;&#208;&#190;&#208;&#181; &#208;&#190;&#208;&#177;&#209;&#131;&#209;&#135;&#208;&#181;&#208;&#189;&#208;&#184;&#208;&#181;"
                fill="#183B59" xml:space="preserve" style="white-space: pre" font-family="Inter" font-size="18"
                letter-spacing="0em"><tspan x="252.388" y="506.545">&#x414;&#x438;&#x441;&#x442;&#x430;&#x43d;&#x446;&#x438;&#x43e;&#x43d;&#x43d;&#x43e;&#x435; &#x43e;&#x431;&#x443;&#x447;&#x435;&#x43d;&#x438;&#x435;&#13;</tspan></text>
        </g>
        <g class="words__item">
            <path id="Vector_43" opacity="0.5"
                  d="M894.104 550.098H656.25C648.229 550.098 641.667 543.54 641.667 535.524V533.994C641.667 525.978 648.229 519.42 656.25 519.42H894.104C902.125 519.42 908.687 525.978 908.687 533.994V535.524C908.687 543.54 902.125 550.098 894.104 550.098Z"
                  fill="#D3EBFF"/>
            <text
                id="&#208;&#163;&#208;&#180;&#208;&#190;&#208;&#177;&#208;&#189;&#208;&#176; &#208;&#180;&#208;&#187;&#209;&#143; &#208;&#191;&#208;&#190;&#208;&#187;&#209;&#140;&#208;&#183;&#208;&#190;&#208;&#178;&#208;&#176;&#209;&#130;&#208;&#181;&#208;&#187;&#209;&#143;"
                fill="#183B59" xml:space="preserve" style="white-space: pre" font-family="Inter" font-size="18"
                letter-spacing="0em"><tspan x="660.629" y="539.545">&#x423;&#x434;&#x43e;&#x431;&#x43d;&#x430; &#x434;&#x43b;&#x44f; &#x43f;&#x43e;&#x43b;&#x44c;&#x437;&#x43e;&#x432;&#x430;&#x442;&#x435;&#x43b;&#x44f;</tspan></text>
        </g>
        <g class="words__item">
            <path id="Vector_44" opacity="0.5"
                  d="M1117.81 470.889H946.021C938 470.889 931.438 464.33 931.438 456.314V454.711C931.438 446.696 938 440.137 946.021 440.137H1117.81C1125.83 440.137 1132.4 446.696 1132.4 454.711V456.242C1132.4 464.33 1125.83 470.889 1117.81 470.889Z"
                  fill="#D3EBFF"/>
            <text
                id="&#208;&#163;&#208;&#180;&#208;&#176;&#208;&#187;&#208;&#181;&#208;&#189;&#208;&#189;&#209;&#139;&#208;&#185; &#208;&#180;&#208;&#190;&#209;&#129;&#209;&#130;&#209;&#131;&#208;&#191;"
                fill="#183B59" xml:space="preserve" style="white-space: pre" font-family="Inter" font-size="18"
                letter-spacing="0em"><tspan x="950.058" y="460.545">&#x423;&#x434;&#x430;&#x43b;&#x435;&#x43d;&#x43d;&#x44b;&#x439; &#x434;&#x43e;&#x441;&#x442;&#x443;&#x43f;</tspan></text>
        </g>
        <g class="words__item">
            <path id="Vector_45" opacity="0.5"
                  d="M1271.89 537.638H1060.5C1052.48 537.638 1045.92 531.08 1045.92 523.064V521.534C1045.92 513.518 1052.48 506.959 1060.5 506.959H1271.89C1279.91 506.959 1286.47 513.518 1286.47 521.534V523.064C1286.47 531.08 1279.91 537.638 1271.89 537.638Z"
                  fill="#D3EBFF"/>
            <text
                id="&#208;&#155;&#208;&#176;&#208;&#186;&#208;&#190;&#208;&#189;&#208;&#184;&#209;&#135;&#208;&#189;&#209;&#139;&#208;&#185; &#208;&#184;&#208;&#189;&#209;&#130;&#208;&#181;&#209;&#128;&#209;&#132;&#208;&#181;&#208;&#185;&#209;&#129;"
                fill="#183B59" xml:space="preserve" style="white-space: pre" font-family="Inter" font-size="18"
                letter-spacing="0em"><tspan x="1055.09" y="528.545">&#x41b;&#x430;&#x43a;&#x43e;&#x43d;&#x438;&#x447;&#x43d;&#x44b;&#x439; &#x438;&#x43d;&#x442;&#x435;&#x440;&#x444;&#x435;&#x439;&#x441;</tspan></text>
        </g>
        <g class="words__item">
            <path id="Vector_46" opacity="0.5"
                  d="M532.146 587.991H320.687C312.667 587.991 306.104 581.433 306.104 573.417V571.887C306.104 563.871 312.667 557.313 320.687 557.313H532.073C540.094 557.313 546.656 563.871 546.656 571.887V573.417C546.729 581.433 540.167 587.991 532.146 587.991Z"
                  fill="#D3EBFF"/>
            <text
                id="&#208;&#152;&#208;&#189;&#209;&#130;&#208;&#181;&#209;&#128;&#208;&#176;&#208;&#186;&#209;&#130;&#208;&#184;&#208;&#178;&#208;&#189;&#209;&#139;&#208;&#181; &#208;&#187;&#208;&#181;&#208;&#186;&#209;&#134;&#208;&#184;&#208;&#184;"
                fill="#183B59" xml:space="preserve" style="white-space: pre" font-family="Inter" font-size="18"
                letter-spacing="0em"><tspan x="324.368" y="577.545">&#x418;&#x43d;&#x442;&#x435;&#x440;&#x430;&#x43a;&#x442;&#x438;&#x432;&#x43d;&#x44b;&#x435; &#x43b;&#x435;&#x43a;&#x446;&#x438;&#x438;</tspan></text>
        </g>
        <g class="words__item">
            <path id="Vector_47" opacity="0.5"
                  d="M849.479 625.811H605.573C597.552 625.811 590.99 619.252 590.99 611.237V609.706C590.99 601.691 597.552 595.132 605.573 595.132H849.479C857.5 595.132 864.063 601.691 864.063 609.706V611.237C864.063 619.252 857.5 625.811 849.479 625.811Z"
                  fill="#D3EBFF"/>
            <text
                id="&#208;&#163;&#208;&#189;&#208;&#184;&#208;&#186;&#208;&#176;&#208;&#187;&#209;&#140;&#208;&#189;&#209;&#139;&#208;&#185; &#208;&#178;&#208;&#184;&#208;&#180;&#208;&#181;&#208;&#190;&#208;&#186;&#208;&#190;&#208;&#189;&#209;&#130;&#208;&#181;&#208;&#189;&#209;&#130;"
                fill="#183B59" xml:space="preserve" style="white-space: pre" font-family="Inter" font-size="18"
                letter-spacing="0em"><tspan x="611.097" y="615.545">&#x423;&#x43d;&#x438;&#x43a;&#x430;&#x43b;&#x44c;&#x43d;&#x44b;&#x439; &#x432;&#x438;&#x434;&#x435;&#x43e;&#x43a;&#x43e;&#x43d;&#x442;&#x435;&#x43d;&#x442;</tspan></text>
        </g>
        <g class="words__item">
            <path id="Vector_48" opacity="0.5"
                  d="M1193.06 608.905H982.844C974.823 608.905 968.26 602.347 968.26 594.331V592.801C968.26 584.785 974.823 578.227 982.844 578.227H1193.06C1201.08 578.227 1207.65 584.785 1207.65 592.801V594.331C1207.65 602.347 1201.08 608.905 1193.06 608.905Z"
                  fill="#D3EBFF"/>
            <text
                id="&#208;&#154;&#208;&#176;&#209;&#135;&#208;&#181;&#209;&#129;&#209;&#130;&#208;&#178;&#208;&#181;&#208;&#189;&#208;&#189;&#209;&#139;&#208;&#185; &#208;&#186;&#208;&#190;&#208;&#189;&#209;&#130;&#208;&#181;&#208;&#189;&#209;&#130;"
                fill="#183B59" xml:space="preserve" style="white-space: pre" font-family="Inter" font-size="18"
                letter-spacing="0em"><tspan x="988.751" y="598.545">&#x41a;&#x430;&#x447;&#x435;&#x441;&#x442;&#x432;&#x435;&#x43d;&#x43d;&#x44b;&#x439; &#x43a;&#x43e;&#x43d;&#x442;&#x435;&#x43d;&#x442;</tspan></text>
        </g>
        <g class="words__item">
            <path id="Vector_49" opacity="0.5"
                  d="M331.771 663.485H179.229C171.208 663.485 164.646 656.927 164.646 648.911V647.381C164.646 639.365 171.208 632.807 179.229 632.807H331.771C339.792 632.807 346.354 639.365 346.354 647.381V648.911C346.354 656.927 339.792 663.485 331.771 663.485Z"
                  fill="#D3EBFF"/>
            <text
                id="&#208;&#161;&#208;&#176;&#208;&#188;&#208;&#190;&#208;&#191;&#208;&#190;&#208;&#180;&#208;&#179;&#208;&#190;&#209;&#130;&#208;&#190;&#208;&#178;&#208;&#186;&#208;&#176;"
                fill="#183B59" xml:space="preserve" style="white-space: pre" font-family="Inter" font-size="18"
                letter-spacing="0em"><tspan x="182.269" y="653.545">&#x421;&#x430;&#x43c;&#x43e;&#x43f;&#x43e;&#x434;&#x433;&#x43e;&#x442;&#x43e;&#x432;&#x43a;&#x430;</tspan></text>
        </g>
        <g class="words__item">
            <path id="Vector_50" opacity="0.5"
                  d="M748.052 697.661H566.708C558.687 697.661 552.125 691.103 552.125 683.087V681.556C552.125 673.541 558.687 666.982 566.708 666.982H748.052C756.073 666.982 762.635 673.541 762.635 681.556V683.087C762.635 691.103 756.073 697.661 748.052 697.661Z"
                  fill="#D3EBFF"/>
            <text
                id="&#208;&#158;&#208;&#177;&#208;&#189;&#208;&#190;&#208;&#178;&#208;&#187;&#208;&#181;&#208;&#189;&#208;&#189;&#209;&#139;&#208;&#185; &#208;&#164;&#208;&#147;&#208;&#158;&#208;&#161;"
                fill="#183B59" xml:space="preserve" style="white-space: pre" font-family="Inter" font-size="18"
                letter-spacing="0em"><tspan x="567.072" y="689.545">&#x41e;&#x431;&#x43d;&#x43e;&#x432;&#x43b;&#x435;&#x43d;&#x43d;&#x44b;&#x439; &#x424;&#x413;&#x41e;&#x421;</tspan></text>
        </g>
        <g class="words__item">
            <path id="Vector_51" opacity="0.5"
                  d="M1249.65 676.747H945.729C937.708 676.747 931.146 670.189 931.146 662.173V660.643C931.146 652.627 937.708 646.069 945.729 646.069H1249.65C1257.67 646.069 1264.23 652.627 1264.23 660.643V662.173C1264.23 670.189 1257.67 676.747 1249.65 676.747Z"
                  fill="#D3EBFF"/>
            <text
                id="&#208;&#159;&#208;&#181;&#209;&#128;&#209;&#129;&#208;&#190;&#208;&#189;&#208;&#176;&#208;&#187;&#208;&#184;&#208;&#183;&#208;&#184;&#209;&#128;&#208;&#190;&#208;&#178;&#208;&#176;&#208;&#189;&#208;&#189;&#209;&#139;&#208;&#181; &#208;&#191;&#208;&#190;&#208;&#180;&#208;&#177;&#208;&#190;&#209;&#128;&#208;&#186;&#208;&#184;"
                fill="#183B59" xml:space="preserve" style="white-space: pre" font-family="Inter" font-size="18"
                letter-spacing="0em"><tspan x="950.012" y="666.545">&#x41f;&#x435;&#x440;&#x441;&#x43e;&#x43d;&#x430;&#x43b;&#x438;&#x437;&#x438;&#x440;&#x43e;&#x432;&#x430;&#x43d;&#x43d;&#x44b;&#x435; &#x43f;&#x43e;&#x434;&#x431;&#x43e;&#x440;&#x43a;&#x438;</tspan></text>
        </g>
    </g>
    <defs>
        <linearGradient id="paint0_linear_311_3" x1="172.903" y1="144.674" x2="215.762" y2="144.674"
                        gradientUnits="userSpaceOnUse">
            <stop stop-color="#2D8399"/>
            <stop offset="1" stop-color="#1876C6"/>
        </linearGradient>
        <linearGradient id="paint1_linear_311_3" x1="833.693" y1="70.1125" x2="889.532" y2="70.1125"
                        gradientUnits="userSpaceOnUse">
            <stop stop-color="#2D8399"/>
            <stop offset="1" stop-color="#1876C6"/>
        </linearGradient>
        <linearGradient id="paint2_linear_311_3" x1="1173.86" y1="130.115" x2="1175.94" y2="130.115"
                        gradientUnits="userSpaceOnUse">
            <stop stop-color="#2D8399"/>
            <stop offset="1" stop-color="#1876C6"/>
        </linearGradient>
        <linearGradient id="paint3_linear_311_3" x1="1166.39" y1="130.788" x2="1207.15" y2="130.788"
                        gradientUnits="userSpaceOnUse">
            <stop stop-color="#2D8399"/>
            <stop offset="1" stop-color="#1876C6"/>
        </linearGradient>
        <linearGradient id="paint4_linear_311_3" x1="1184.59" y1="129.382" x2="1189.59" y2="129.382"
                        gradientUnits="userSpaceOnUse">
            <stop stop-color="#2D8399"/>
            <stop offset="1" stop-color="#1876C6"/>
        </linearGradient>
        <linearGradient id="paint5_linear_311_3" x1="523.433" y1="228.498" x2="552.304" y2="228.498"
                        gradientUnits="userSpaceOnUse">
            <stop stop-color="#2D8399"/>
            <stop offset="1" stop-color="#1876C6"/>
        </linearGradient>
        <linearGradient id="paint6_linear_311_3" x1="133.363" y1="365.387" x2="140.889" y2="365.387"
                        gradientUnits="userSpaceOnUse">
            <stop stop-color="#2D8399"/>
            <stop offset="1" stop-color="#1876C6"/>
        </linearGradient>
        <linearGradient id="paint7_linear_311_3" x1="148.416" y1="365.387" x2="155.942" y2="365.387"
                        gradientUnits="userSpaceOnUse">
            <stop stop-color="#2D8399"/>
            <stop offset="1" stop-color="#1876C6"/>
        </linearGradient>
        <linearGradient id="paint8_linear_311_3" x1="163.97" y1="365.387" x2="171.497" y2="365.387"
                        gradientUnits="userSpaceOnUse">
            <stop stop-color="#2D8399"/>
            <stop offset="1" stop-color="#1876C6"/>
        </linearGradient>
        <linearGradient id="paint9_linear_311_3" x1="122.324" y1="339.061" x2="183.037" y2="339.061"
                        gradientUnits="userSpaceOnUse">
            <stop stop-color="#2D8399"/>
            <stop offset="1" stop-color="#1876C6"/>
        </linearGradient>
        <linearGradient id="paint10_linear_311_3" x1="945.525" y1="325.03" x2="984.579" y2="325.03"
                        gradientUnits="userSpaceOnUse">
            <stop stop-color="#2D8399"/>
            <stop offset="1" stop-color="#1876C6"/>
        </linearGradient>
        <linearGradient id="paint11_linear_311_3" x1="205.25" y1="559.411" x2="240.434" y2="559.411"
                        gradientUnits="userSpaceOnUse">
            <stop stop-color="#2D8399"/>
            <stop offset="1" stop-color="#1876C6"/>
        </linearGradient>
        <linearGradient id="paint12_linear_311_3" x1="273.153" y1="690.503" x2="321.079" y2="690.503"
                        gradientUnits="userSpaceOnUse">
            <stop stop-color="#2D8399"/>
            <stop offset="1" stop-color="#1876C6"/>
        </linearGradient>
        <linearGradient id="paint13_linear_311_3" x1="501.706" y1="661.402" x2="503.984" y2="661.402"
                        gradientUnits="userSpaceOnUse">
            <stop stop-color="#2D8399"/>
            <stop offset="1" stop-color="#1876C6"/>
        </linearGradient>
        <linearGradient id="paint14_linear_311_3" x1="496.77" y1="636.737" x2="510.819" y2="636.737"
                        gradientUnits="userSpaceOnUse">
            <stop stop-color="#2D8399"/>
            <stop offset="1" stop-color="#1876C6"/>
        </linearGradient>
        <linearGradient id="paint15_linear_311_3" x1="812.74" y1="692.439" x2="880.478" y2="692.439"
                        gradientUnits="userSpaceOnUse">
            <stop stop-color="#2D8399"/>
            <stop offset="1" stop-color="#1876C6"/>
        </linearGradient>
        <linearGradient id="paint16_linear_311_3" x1="1264.11" y1="603.19" x2="1300.63" y2="603.19"
                        gradientUnits="userSpaceOnUse">
            <stop stop-color="#2D8399"/>
            <stop offset="1" stop-color="#1876C6"/>
        </linearGradient>
    </defs>
</svg>
