<?xml version="1.0" standalone="no"?>
<!DOCTYPE svg PUBLIC "-//W3C//DTD SVG 20010904//EN"
 "http://www.w3.org/TR/2001/REC-SVG-20010904/DTD/svg10.dtd">
<svg version="1.0" xmlns="http://www.w3.org/2000/svg"
 width="700.000000pt" height="700.000000pt" viewBox="0 0 700.000000 700.000000"
 preserveAspectRatio="xMidYMid meet">
<metadata>
Created by potrace 1.14, written by Peter Selinger 2001-2017
</metadata>
<g transform="translate(0.000000,700.000000) scale(0.100000,-0.100000)"
fill="#000000" stroke="none">
<path d="M3435 6203 c-38 -8 -86 -22 -105 -30 -50 -23 -291 -139 -605 -293
-559 -274 -747 -366 -980 -480 -132 -64 -329 -161 -437 -214 -108 -53 -207
-100 -220 -106 -13 -5 -30 -14 -38 -20 -8 -5 -132 -66 -275 -136 -143 -69
-328 -159 -411 -200 -86 -42 -165 -88 -182 -105 -85 -87 -94 -209 -24 -312 24
-36 128 -105 320 -213 20 -12 136 -80 257 -151 121 -72 479 -282 795 -468 316
-186 591 -348 610 -360 35 -23 387 -229 425 -249 11 -6 34 -20 50 -31 17 -12
41 -26 55 -33 25 -12 42 -22 90 -53 75 -49 250 -131 337 -159 324 -100 677
-70 963 83 69 37 161 92 660 393 102 62 268 162 370 224 222 134 211 127 275
167 28 17 67 40 86 51 19 11 151 90 294 177 226 137 880 532 1048 633 132 80
182 206 129 325 -42 91 -41 91 -677 392 -49 24 -153 73 -230 110 -77 37 -185
89 -240 115 -55 26 -143 68 -195 93 -52 24 -171 82 -265 127 -93 45 -197 95
-230 110 -33 15 -123 58 -200 95 -150 72 -314 151 -460 220 -49 24 -166 80
-260 125 -262 126 -337 158 -419 174 -93 20 -218 19 -311 -1z m390 -694 c697
-64 1228 -301 1437 -640 71 -115 92 -184 92 -309 1 -137 -36 -249 -117 -364
l-35 -48 48 -43 c94 -84 191 -140 295 -171 76 -23 68 -21 113 -23 l37 -2 -45
-14 c-47 -15 -359 -78 -445 -91 -27 -3 -142 -8 -255 -9 l-205 -3 -79 -37
c-205 -95 -391 -154 -670 -211 -11 -2 -37 -7 -56 -10 -19 -3 -42 -7 -50 -9 -8
-2 -41 -7 -73 -10 -32 -4 -68 -8 -79 -10 -58 -11 -243 -20 -423 -19 -230 1
-330 8 -505 36 -36 5 -78 12 -95 14 -114 18 -395 98 -495 141 -123 54 -236
113 -310 162 -102 67 -243 204 -294 284 -264 414 3 873 674 1160 150 64 344
124 520 162 59 12 195 36 236 41 27 3 62 7 79 10 16 2 71 6 120 10 50 4 91 8
93 9 7 6 407 1 487 -6z"/>
<path d="M3780 4910 c-107 -16 -390 -56 -628 -90 -239 -33 -442 -66 -453 -73
-40 -25 -43 -91 -6 -124 25 -23 864 -509 913 -529 35 -15 71 -8 91 17 26 34
373 729 373 748 0 28 -52 81 -77 80 -10 -1 -106 -14 -213 -29z"/>
<path d="M6455 4016 c-56 -35 -120 -74 -143 -87 -23 -13 -242 -145 -488 -294
-245 -148 -465 -281 -488 -295 -23 -14 -80 -48 -127 -76 -1131 -683 -1158
-699 -1279 -740 -30 -10 -57 -19 -60 -19 -3 -1 -23 -7 -45 -13 -22 -6 -58 -14
-80 -18 -22 -3 -43 -8 -46 -9 -11 -7 -156 -18 -239 -18 -188 1 -386 47 -564
133 -78 37 -141 74 -414 237 -68 40 -125 73 -128 73 -3 0 -25 14 -49 30 -24
17 -46 30 -49 30 -4 0 -105 59 -206 120 -49 29 -368 217 -385 226 -16 9 -79
46 -175 104 -8 5 -76 44 -150 88 -74 43 -198 116 -275 162 -77 45 -156 91
-175 102 -19 11 -55 32 -80 48 -104 64 -309 180 -319 180 -23 0 -277 -132
-304 -158 -96 -90 -99 -251 -8 -341 29 -28 280 -182 489 -301 15 -8 65 -37
112 -65 46 -27 93 -54 102 -60 21 -12 446 -262 468 -276 33 -20 449 -263 655
-383 121 -71 236 -139 255 -151 29 -19 155 -93 349 -205 14 -8 105 -61 201
-117 197 -115 284 -152 428 -187 232 -55 528 -19 742 89 56 28 651 384 773
462 37 24 69 43 72 43 2 0 29 15 58 34 29 19 69 43 88 54 32 18 316 189 1359
820 250 151 466 281 479 288 105 56 159 180 126 291 -25 83 -70 122 -227 197
-75 36 -140 66 -145 65 -4 0 -53 -29 -108 -63z"/>
<path d="M6478 3226 c-19 -13 -39 -25 -44 -27 -6 -2 -127 -75 -269 -161 -143
-86 -402 -242 -575 -347 -173 -104 -440 -265 -594 -358 -319 -192 -308 -186
-458 -276 -62 -37 -120 -72 -128 -78 -38 -24 -204 -123 -295 -176 -225 -130
-423 -183 -670 -178 -236 5 -414 63 -690 227 -60 36 -126 75 -145 86 -19 11
-104 61 -188 111 -85 50 -155 91 -157 91 -1 0 -49 28 -106 63 -58 35 -111 66
-119 70 -8 4 -24 13 -35 20 -51 31 -222 133 -240 143 -11 6 -83 48 -160 94
-124 74 -185 109 -290 170 -16 9 -195 115 -397 234 -202 119 -370 216 -373
216 -17 0 -333 -161 -357 -182 -65 -58 -93 -169 -64 -255 26 -79 64 -112 258
-223 14 -8 99 -58 187 -110 89 -52 170 -99 179 -105 33 -19 317 -186 332 -196
17 -10 549 -323 595 -349 17 -9 75 -44 130 -77 55 -33 131 -77 168 -99 38 -21
76 -43 85 -49 30 -18 322 -189 360 -212 20 -11 48 -28 62 -36 14 -7 115 -67
225 -132 110 -65 234 -135 275 -155 299 -148 650 -154 965 -18 39 17 169 90
290 163 257 154 1389 838 1780 1075 156 94 415 250 457 275 153 90 364 221
387 241 83 69 109 187 65 281 -39 82 -56 93 -319 218 -44 21 -83 40 -86 41 -4
2 -22 -7 -41 -20z"/>
</g>
</svg>
